<?xml version="1.0" encoding="utf-8"?>
<!-- Generator: Adobe Illustrator 16.0.0, SVG Export Plug-In . SVG Version: 6.00 Build 0)  -->
<!DOCTYPE svg PUBLIC "-//W3C//DTD SVG 1.1//EN" "http://www.w3.org/Graphics/SVG/1.1/DTD/svg11.dtd">
<svg version="1.1" id="Layer_2" xmlns="http://www.w3.org/2000/svg" xmlns:xlink="http://www.w3.org/1999/xlink" x="0px" y="0px"
	 width="3019.982px" height="2100px" viewBox="0 0 3019.982 2100" enable-background="new 0 0 3019.982 2100" xml:space="preserve">
<g>
	<g>
		<path fill="#BDBDBD" d="M1793.943,912.765c-0.522-3.332-3.64-5.61-6.979-5.09c-3.331,0.521-5.61,3.646-5.089,6.978
			c0.876,5.688,1.991,23.51-4.157,30.681c-1.332,1.553-2.938,2.483-4.958,2.851l0.561-33.941c0.081-4.932-3.895-8.974-8.827-8.974
			c-4.962,0-8.949,4.087-8.826,9.047l1.596,64.413c-2.116-0.341-3.79-1.274-5.167-2.878c-6.149-7.17-5.033-24.992-4.157-30.68
			c0.521-3.332-1.758-6.456-5.089-6.978c-3.338-0.52-6.456,1.758-6.978,5.09c-0.439,2.803-3.97,27.756,6.937,40.501
			c3.752,4.384,8.83,6.868,14.759,7.254l0.694,28.036h13.327l0.968-58.575c5.795-0.453,10.762-2.925,14.448-7.232
			C1797.912,940.521,1794.382,915.568,1793.943,912.765z"/>
		<path fill="#BDBDBD" d="M1224.895,967.368c-0.333-2.124-2.32-3.576-4.448-3.245c-2.124,0.332-3.577,2.323-3.244,4.448
			c0.559,3.626,1.27,14.986-2.65,19.558c-0.849,0.99-1.873,1.583-3.16,1.817l0.357-21.637c0.052-3.144-2.482-5.721-5.627-5.721
			c-3.163,0-5.705,2.605-5.626,5.767l1.017,41.061c-1.349-0.218-2.417-0.812-3.293-1.835c-3.92-4.571-3.208-15.932-2.65-19.557
			c0.333-2.125-1.121-4.116-3.245-4.448c-2.127-0.332-4.115,1.121-4.448,3.245c-0.28,1.787-2.531,17.694,4.422,25.818
			c2.392,2.794,5.628,4.377,9.408,4.624l0.442,17.873h8.496l0.616-37.34c3.694-0.289,6.861-1.865,9.21-4.61
			C1227.425,985.062,1225.174,969.155,1224.895,967.368z"/>
		<linearGradient id="SVGID_1_" gradientUnits="userSpaceOnUse" x1="1509.9917" y1="911.9678" x2="1509.9917" y2="1156.2939">
			<stop  offset="0" style="stop-color:#E5E5E5"/>
			<stop  offset="0.4764" style="stop-color:#F4F4F4"/>
			<stop  offset="1" style="stop-color:#FFFFFF"/>
		</linearGradient>
		<ellipse fill="url(#SVGID_1_)" cx="1509.992" cy="1138.078" rx="439.504" ry="155.593"/>
	</g>
	<g>
		<path fill="#FFD3BC" d="M1580.148,949.483c0,0-0.256,14.973-0.007,16.473c0.249,1.5-5.861,10.275-8.36,9.886
			c-2.5-0.389-7.498-1.222-8.221-2.055c-0.722-0.833-0.404-2.798-0.146-4.592c0.258-1.795,2.127-18.101,2.127-18.934
			S1577.372,947.206,1580.148,949.483z"/>
		
			<linearGradient id="SVGID_2_" gradientUnits="userSpaceOnUse" x1="4808.1836" y1="981.1836" x2="4830.9287" y2="998.4256" gradientTransform="matrix(-1 0 0 1 6395.3262 0)">
			<stop  offset="0" style="stop-color:#4E9CFF"/>
			<stop  offset="0.9844" style="stop-color:#176AD4"/>
		</linearGradient>
		<path fill="url(#SVGID_2_)" d="M1570.455,965.095c-3.127,1.689-4.881,6.831-5.326,6.894c-0.444,0.064-1.271-0.063-1.271-0.572
			c0-0.508,0.128-2.223-0.444-2.223c-0.571,0-1.207,2.794-1.334,6.859c-0.127,4.065-1.572,13.758,0,14.991
			c0.986,0.773,10.036,5.526,10.29,6.161s-0.19,5.082,0.572,5.78c0.762,0.698,2.54,2.414,3.938,2.477
			c1.397,0.064,9.464,0.89,13.275,0c3.812-0.889,8.639-2.731,8.766-3.239c0.127-0.508-0.953-11.306-2.159-12.64
			c-1.207-1.334-9.909-13.275-10.608-14.355c-0.698-1.08-1.207-3.684-1.207-5.208s-1.379-4.851-3.945-5.652
			C1578.328,963.534,1572.805,963.825,1570.455,965.095z"/>
		<path fill="#FFD3BC" d="M1488.885,958.141c0,0-0.003,8.72-0.251,10.22s5.861,10.275,8.36,9.886c2.5-0.388,7.499-1.222,8.22-2.055
			c0.722-0.833,0.405-2.797,0.147-4.592s-1.869-11.848-1.869-12.681C1503.493,958.085,1491.662,955.864,1488.885,958.141z"/>
		<path fill="#192B59" d="M1496.934,765.727c-3.538,12.864-10.229,56.935-10.229,78.351c0,21.416-2.142,76.025-2.142,84.324
			c0,8.299-0.894,28.888,1.251,29.96s7.149,4.289,13.94,3.217s8.579-5.361,8.757-9.293c0.179-3.932,1.788-32.169,3.396-43.071
			c1.608-10.902,7.327-31.928,11.08-45.453c3.753-13.525,12.511-40.72,14.834-40.616s16.796,59.684,18.002,63.061
			s3.505,51.353,3.653,55.378c0.149,4.026,0,7.902,2.535,9.542c2.534,1.64,10.287,5.666,14.313,5.964
			c4.025,0.298,6.709-6.113,7.454-8.052c0.746-1.938,2.066-66.108,1.591-83.711s0.916-50.429,0.102-61.133
			c-0.815-10.704-3.432-33.643-5.097-38.468C1578.711,760.902,1496.934,765.727,1496.934,765.727z"/>
		<linearGradient id="SVGID_3_" gradientUnits="userSpaceOnUse" x1="1522.3584" y1="594.5928" x2="1479.3416" y2="589.7923">
			<stop  offset="0" style="stop-color:#F2BFAD"/>
			<stop  offset="1" style="stop-color:#F2DAD4"/>
		</linearGradient>
		<path fill="url(#SVGID_3_)" d="M1471.949,616.2c3.376-3.751,19.134-21.51,22.261-22.135c3.126-0.625,10.738-2.001,12.435-3.752
			c1.697-1.75,8.875-24.285,6.033-28.384c-2.841-4.099-13.805-2.936-17.127,4.041s-3.156,10.631-8.638,15.449
			c-5.481,4.818-29.367,24.346-31.59,26.319c-2.224,1.974,2.188,11.557,5.676,13.218
			C1464.486,622.617,1471.949,616.2,1471.949,616.2z"/>
		<linearGradient id="SVGID_4_" gradientUnits="userSpaceOnUse" x1="1470.9009" y1="648.3623" x2="1617.5164" y2="759.504">
			<stop  offset="0" style="stop-color:#4E9CFF"/>
			<stop  offset="0.9844" style="stop-color:#176AD4"/>
		</linearGradient>
		<path fill="url(#SVGID_4_)" d="M1515.496,621.611c-8.052,1.688-21.427,3.116-25.843,4.545c-4.415,1.428-21.816,7.532-21.687,4.935
			s8.051-14.025,6.623-15.194c-1.429-1.168-10-2.597-11.428-4.415c-1.429-1.818-3.376-6.104-5.324-5.584
			c-1.948,0.52-24.531,21.555-22.985,29.608c3.645,18.986,57.018,32.82,58.236,41.101c1.218,8.28-4.14,87.678-1.218,90.601
			c2.923,2.922,33.853,14.126,49.441,15.1c15.587,0.974,42.93-4.456,44.423-8.56c1.492-4.105-7.606-82.992-6.551-82.992
			c1.057,0,1.354,24.833,13.227,31.255c7.838,4.239,18.619-0.127,20.683-2.466s-7.367-35.355-11.635-46.488
			c-4.268-11.132-8.35-34.14-17.998-42.304s-23.269-6.775-27.957-8.693c-4.688-1.918-20.421-0.544-24.388-0.958
			C1527.148,620.686,1515.496,621.611,1515.496,621.611z"/>
		<linearGradient id="SVGID_5_" gradientUnits="userSpaceOnUse" x1="1618.4346" y1="711.0215" x2="1620.6243" y2="748.1274">
			<stop  offset="0" style="stop-color:#F2BFAD"/>
			<stop  offset="0.7043" style="stop-color:#F2DAD4"/>
		</linearGradient>
		<path fill="url(#SVGID_5_)" d="M1616.058,704.62c0,0-13.88,4.196-14.963,5.639c-1.083,1.444-3.008,7.22,0,9.626
			c3.008,2.407,6.306,4.206,9.875,1.43c3.569-2.776,6.821-6.515,8.884-6.986c2.063-0.47,8.229,0.415,10.819-0.602
			s7.504-20.65,5.521-21.84C1634.211,690.697,1616.058,704.62,1616.058,704.62z"/>
		<path fill="#E64D4E" d="M1515.558,618.957c-4.48-0.928-13.127-9.386-13.921-17.979c-0.773-8.373-6.929-31.904,14.502-40.729
			c20.11-8.281,40.806,0.239,43.78,10.451c2.777,9.537-20.828,9.966-29.483,16.177c-8.654,6.211-9.243,10.335-11.403,9.353
			S1515.558,618.957,1515.558,618.957z"/>
		<linearGradient id="SVGID_6_" gradientUnits="userSpaceOnUse" x1="1527.9404" y1="610.0361" x2="1542.1639" y2="639.7406">
			<stop  offset="0" style="stop-color:#F2BFAD"/>
			<stop  offset="1" style="stop-color:#F2DAD4"/>
		</linearGradient>
		<path fill="url(#SVGID_6_)" d="M1515.195,602.193c-0.284,3.835-1.249,22.385,0.356,25.115c1.476,2.508,4.096,9.797,14.374,9.476
			c10.279-0.321,16.944-10.6,17.507-11.805c0.562-1.205-0.644-16.061-0.644-18.55s-13.812-8.352-19.353-8.19
			C1521.896,598.399,1515.462,598.587,1515.195,602.193z"/>
		<path fill="#F2DAD4" d="M1516.141,602.249c1.159-0.033-0.211,7.036,1.89,9.346c2.101,2.31,11.24,14.358,20.912,13.181
			c8.364-1.018,7.164-8.225,8.37-14.16c1.094-5.388,4.57-5.851,5.792-19.918c0.472-5.444,3.045-13.966-1.681-15.541
			c-4.726-1.576-22.473-5.776-26.883,0c-4.41,5.775-4.83,19.637-7.141,17.852s-7.141-10.501-9.976-5.776
			C1504.589,591.958,1509.943,602.427,1516.141,602.249z"/>
		<linearGradient id="SVGID_7_" gradientUnits="userSpaceOnUse" x1="1594.5742" y1="675.8271" x2="1619.3368" y2="721.3818">
			<stop  offset="0" style="stop-color:#F6DBDB"/>
			<stop  offset="1" style="stop-color:#EB9A99"/>
		</linearGradient>
		<path fill="url(#SVGID_7_)" d="M1590.803,674.188l-28.148,35.588c-1.463,1.851-0.118,4.571,2.241,4.53l52.027-0.884
			c0.864-0.015,1.673-0.428,2.191-1.121l26.591-35.535c1.259-1.682,0.047-4.077-2.053-4.06l-50.68,0.419
			C1592.126,673.133,1591.328,673.524,1590.803,674.188z"/>
		<path fill="#FFD3BC" d="M1635.31,688.521c-2.739,0.276-6.718,1.817-6.718,3.249s3.194,1.825,4.075,1.959
			c0.881,0.134,2.037,0.409,1.707,0.849c-0.331,0.441-0.991,2.644-2.753,2.258c-1.763-0.385-9.472-0.496-10.958-0.496
			c-1.487,0-3.249,1.046-3.359,2.148c-0.11,1.101-0.44,1.321-1.321,1.376c-0.881,0.055-2.478,0.881-2.478,2.313
			s3.537,2.721,3.537,3.227s6.938,4.745,8.299,5.532c1.359,0.787,3.9,2.791,5.332,2.791s3.829-1.36,4.008-3.328
			c0.18-1.968,3.007-3.4,3.042-4.366c0.036-0.966-0.895-1.682-0.787-2.29s2.577-1.467,2.577-3.006s-0.967-3.615-1.109-4.258
			c-0.144-0.645-0.716-2.04-0.144-2.219c0.573-0.179,2.577-2.04,2.219-3.758C1640.121,688.783,1636.575,688.394,1635.31,688.521z"/>
		<linearGradient id="SVGID_8_" gradientUnits="userSpaceOnUse" x1="1481.6323" y1="983.5889" x2="1504.3768" y2="1000.8303">
			<stop  offset="0" style="stop-color:#4E9CFF"/>
			<stop  offset="0.9844" style="stop-color:#176AD4"/>
		</linearGradient>
		<path fill="url(#SVGID_8_)" d="M1498.32,967.5c3.126,1.69,4.881,6.831,5.326,6.894c0.444,0.064,1.271-0.063,1.271-0.571
			c0-0.508-0.127-2.223,0.444-2.223s1.207,2.794,1.334,6.86c0.127,4.065,1.572,13.758,0,14.99
			c-0.986,0.773-10.036,5.526-10.29,6.162c-0.254,0.635,0.19,5.082-0.572,5.78c-0.762,0.699-2.541,2.414-3.938,2.477
			c-1.397,0.064-9.464,0.89-13.275,0c-3.811-0.889-8.639-2.731-8.766-3.239c-0.127-0.508,0.953-11.307,2.16-12.64
			c1.207-1.334,9.909-13.276,10.608-14.355c0.698-1.08,1.207-3.684,1.207-5.208s1.379-4.851,3.946-5.652
			C1490.447,965.939,1495.97,966.23,1498.32,967.5z"/>
	</g>
</g>
</svg>
