<?xml version="1.0" encoding="utf-8"?>
<!-- Generator: Adobe Illustrator 16.0.0, SVG Export Plug-In . SVG Version: 6.00 Build 0)  -->
<!DOCTYPE svg PUBLIC "-//W3C//DTD SVG 1.1//EN" "http://www.w3.org/Graphics/SVG/1.1/DTD/svg11.dtd">
<svg version="1.1" id="Layer_2" xmlns="http://www.w3.org/2000/svg" xmlns:xlink="http://www.w3.org/1999/xlink" x="0px" y="0px"
	 width="879.008px" height="736.758px" viewBox="0 0 879.008 736.758" enable-background="new 0 0 879.008 736.758"
	 xml:space="preserve">
<g>
	<g>
		<path fill="#BDBDBD" d="M723.455,355.852c-0.522-3.332-3.641-5.609-6.979-5.09c-3.331,0.521-5.61,3.646-5.089,6.979
			c0.876,5.688,1.991,23.51-4.156,30.682c-1.332,1.553-2.938,2.482-4.959,2.851l0.563-33.94c0.081-4.932-3.896-8.975-8.827-8.975
			c-4.962,0-8.949,4.088-8.826,9.048l1.597,64.413c-2.115-0.342-3.791-1.273-5.168-2.879c-6.147-7.17-5.031-24.991-4.156-30.68
			c0.521-3.332-1.758-6.456-5.09-6.979c-3.338-0.521-6.455,1.758-6.978,5.09c-0.438,2.804-3.97,27.756,6.937,40.501
			c3.752,4.384,8.83,6.868,14.761,7.254l0.692,28.036h13.327l0.968-58.575c5.797-0.452,10.764-2.925,14.448-7.231
			C727.424,383.608,723.894,358.655,723.455,355.852z"/>
		<path fill="#BDBDBD" d="M154.406,410.455c-0.332-2.124-2.319-3.576-4.447-3.245c-2.124,0.332-3.577,2.323-3.244,4.448
			c0.559,3.626,1.27,14.985-2.65,19.559c-0.849,0.989-1.873,1.583-3.16,1.816l0.356-21.638c0.052-3.145-2.481-5.721-5.627-5.721
			c-3.163,0-5.705,2.604-5.626,5.768l1.018,41.062c-1.35-0.219-2.417-0.813-3.293-1.836c-3.92-4.57-3.208-15.933-2.649-19.558
			c0.333-2.125-1.121-4.115-3.245-4.447c-2.127-0.332-4.115,1.121-4.448,3.245c-0.28,1.786-2.531,17.693,4.422,25.817
			c2.393,2.794,5.628,4.377,9.408,4.624l0.442,17.873h8.496l0.615-37.34c3.694-0.289,6.861-1.865,9.21-4.61
			C156.937,428.149,154.686,412.242,154.406,410.455z"/>
		
			<linearGradient id="SVGID_1_" gradientUnits="userSpaceOnUse" x1="511.5039" y1="-1133.9453" x2="511.5039" y2="-889.6191" gradientTransform="matrix(1 0 0 1 -72 1489)">
			<stop  offset="0" style="stop-color:#E5E5E5"/>
			<stop  offset="0.4764" style="stop-color:#F4F4F4"/>
			<stop  offset="1" style="stop-color:#FFFFFF"/>
		</linearGradient>
		<ellipse fill="url(#SVGID_1_)" cx="439.504" cy="581.166" rx="439.504" ry="155.593"/>
	</g>
	<g>
		<path fill="#FFD3BC" d="M509.66,392.57c0,0-0.258,14.973-0.008,16.473c0.248,1.5-5.86,10.275-8.359,9.887
			c-2.5-0.39-7.498-1.223-8.221-2.056c-0.724-0.833-0.404-2.798-0.146-4.592c0.258-1.795,2.127-18.102,2.127-18.935
			S506.884,390.293,509.66,392.57z"/>
		
			<linearGradient id="SVGID_2_" gradientUnits="userSpaceOnUse" x1="8267.6592" y1="-1064.7324" x2="8290.4053" y2="-1047.4896" gradientTransform="matrix(-1 0 0 1 8784.3164 1489)">
			<stop  offset="0" style="stop-color:#4E9CFF"/>
			<stop  offset="0.9844" style="stop-color:#176AD4"/>
		</linearGradient>
		<path fill="url(#SVGID_2_)" d="M499.967,408.182c-3.127,1.688-4.881,6.831-5.326,6.895c-0.443,0.063-1.271-0.063-1.271-0.572
			c0-0.508,0.13-2.223-0.442-2.223c-0.571,0-1.207,2.794-1.334,6.858s-1.572,13.758,0,14.991c0.985,0.772,10.036,5.525,10.29,6.16
			c0.254,0.636-0.189,5.082,0.572,5.78c0.762,0.697,2.54,2.414,3.938,2.478s9.465,0.89,13.275,0c3.813-0.89,8.639-2.731,8.766-3.239
			s-0.953-11.306-2.158-12.64c-1.207-1.334-9.91-13.275-10.607-14.355c-0.698-1.079-1.207-3.684-1.207-5.208
			c0-1.523-1.379-4.851-3.945-5.651C507.84,406.621,502.316,406.912,499.967,408.182z"/>
		<path fill="#FFD3BC" d="M418.396,401.228c0,0-0.003,8.721-0.251,10.221c-0.248,1.5,5.861,10.274,8.36,9.886
			c2.5-0.388,7.499-1.222,8.22-2.055c0.722-0.833,0.405-2.798,0.147-4.593c-0.259-1.795-1.869-11.849-1.869-12.681
			C433.005,401.172,421.174,398.951,418.396,401.228z"/>
		<path fill="#192B59" d="M426.446,208.813c-3.537,12.864-10.229,56.936-10.229,78.352s-2.143,76.025-2.143,84.324
			s-0.894,28.888,1.252,29.96c2.145,1.071,7.148,4.289,13.939,3.217c6.791-1.071,8.579-5.36,8.757-9.293
			c0.179-3.933,1.788-32.169,3.396-43.07c1.607-10.902,7.326-31.929,11.078-45.453c3.755-13.524,12.513-40.721,14.834-40.616
			c2.324,0.104,16.798,59.685,18.002,63.062c1.207,3.377,3.507,51.354,3.653,55.378c0.149,4.026,0,7.902,2.535,9.542
			c2.534,1.641,10.287,5.666,14.313,5.965c4.023,0.298,6.709-6.113,7.453-8.053c0.746-1.938,2.065-66.107,1.592-83.711
			c-0.477-17.604,0.916-50.43,0.102-61.133c-0.813-10.704-3.432-33.644-5.097-38.469
			C508.223,203.989,426.446,208.813,426.446,208.813z"/>
		
			<linearGradient id="SVGID_3_" gradientUnits="userSpaceOnUse" x1="523.8711" y1="-1451.3203" x2="480.8544" y2="-1456.1208" gradientTransform="matrix(1 0 0 1 -72 1489)">
			<stop  offset="0" style="stop-color:#F2BFAD"/>
			<stop  offset="1" style="stop-color:#F2DAD4"/>
		</linearGradient>
		<path fill="url(#SVGID_3_)" d="M401.461,59.287c3.376-3.751,19.134-21.51,22.261-22.135c3.126-0.625,10.738-2.001,12.435-3.753
			c1.697-1.75,8.875-24.284,6.033-28.384c-2.841-4.1-13.805-2.937-17.126,4.041c-3.321,6.978-3.156,10.631-8.638,15.449
			c-5.482,4.817-29.367,24.346-31.59,26.318c-2.224,1.975,2.188,11.557,5.676,13.218C393.998,65.704,401.461,59.287,401.461,59.287z
			"/>
		
			<linearGradient id="SVGID_4_" gradientUnits="userSpaceOnUse" x1="472.4121" y1="-1397.5488" x2="619.0264" y2="-1286.408" gradientTransform="matrix(1 0 0 1 -72 1489)">
			<stop  offset="0" style="stop-color:#4E9CFF"/>
			<stop  offset="0.9844" style="stop-color:#176AD4"/>
		</linearGradient>
		<path fill="url(#SVGID_4_)" d="M445.008,64.698c-8.052,1.688-21.427,3.115-25.843,4.545c-4.415,1.428-21.816,7.531-21.688,4.936
			c0.128-2.597,8.051-14.024,6.623-15.194c-1.429-1.168-10-2.597-11.428-4.414c-1.429-1.818-3.376-6.104-5.324-5.584
			c-1.948,0.521-24.531,21.555-22.985,29.607c3.646,18.985,57.019,32.819,58.236,41.102c1.218,8.279-4.14,87.678-1.218,90.602
			c2.923,2.922,33.854,14.125,49.439,15.1c15.588,0.975,42.932-4.456,44.424-8.561s-7.605-82.991-6.551-82.991
			c1.058,0,1.354,24.833,13.228,31.255c7.838,4.238,18.619-0.127,20.683-2.466c2.064-2.34-7.365-35.354-11.635-46.488
			c-4.268-11.132-8.35-34.14-17.998-42.304s-23.27-6.775-27.957-8.693s-20.421-0.544-24.388-0.958
			C456.66,63.772,445.008,64.698,445.008,64.698z"/>
		
			<linearGradient id="SVGID_5_" gradientUnits="userSpaceOnUse" x1="619.9473" y1="-1334.8911" x2="622.1369" y2="-1297.7852" gradientTransform="matrix(1 0 0 1 -72 1489)">
			<stop  offset="0" style="stop-color:#F2BFAD"/>
			<stop  offset="0.7043" style="stop-color:#F2DAD4"/>
		</linearGradient>
		<path fill="url(#SVGID_5_)" d="M545.57,147.707c0,0-13.881,4.196-14.963,5.64c-1.084,1.443-3.009,7.22,0,9.626
			c3.008,2.406,6.307,4.206,9.875,1.43c3.568-2.775,6.82-6.515,8.883-6.985c2.063-0.47,8.229,0.415,10.819-0.603
			c2.591-1.018,7.505-20.649,5.521-21.84S545.57,147.707,545.57,147.707z"/>
		<path fill="#E64D4E" d="M445.07,62.044c-4.479-0.928-13.127-9.386-13.921-17.979c-0.772-8.372-6.929-31.903,14.501-40.729
			c20.11-8.28,40.808,0.239,43.78,10.451c2.777,9.537-20.828,9.966-29.483,16.178c-8.652,6.211-9.241,10.335-11.401,9.354
			C446.385,38.335,445.07,62.044,445.07,62.044z"/>
		
			<linearGradient id="SVGID_6_" gradientUnits="userSpaceOnUse" x1="529.4512" y1="-1435.8765" x2="543.6744" y2="-1406.1725" gradientTransform="matrix(1 0 0 1 -72 1489)">
			<stop  offset="0" style="stop-color:#F2BFAD"/>
			<stop  offset="1" style="stop-color:#F2DAD4"/>
		</linearGradient>
		<path fill="url(#SVGID_6_)" d="M444.707,45.28c-0.284,3.835-1.249,22.385,0.354,25.114c1.478,2.509,4.097,9.798,14.374,9.477
			c10.279-0.32,16.944-10.601,17.508-11.806c0.563-1.204-0.645-16.061-0.645-18.55c0-2.488-13.813-8.353-19.354-8.189
			C451.408,41.486,444.974,41.674,444.707,45.28z"/>
		<path fill="#F2DAD4" d="M445.652,45.336c1.16-0.032-0.211,7.036,1.892,9.347c2.101,2.311,11.239,14.357,20.912,13.182
			c8.362-1.019,7.163-8.226,8.368-14.16c1.096-5.388,4.57-5.852,5.793-19.918c0.473-5.443,3.046-13.966-1.682-15.541
			c-4.726-1.576-22.473-5.775-26.883,0c-4.41,5.774-4.83,19.638-7.141,17.853c-2.313-1.785-7.143-10.501-9.978-5.775
			C434.101,35.045,439.455,45.514,445.652,45.336z"/>
		
			<linearGradient id="SVGID_7_" gradientUnits="userSpaceOnUse" x1="596.0869" y1="-1370.085" x2="620.8488" y2="-1324.5317" gradientTransform="matrix(1 0 0 1 -72 1489)">
			<stop  offset="0" style="stop-color:#F6DBDB"/>
			<stop  offset="1" style="stop-color:#EB9A99"/>
		</linearGradient>
		<path fill="url(#SVGID_7_)" d="M520.314,117.274l-28.146,35.589c-1.463,1.852-0.118,4.57,2.24,4.529l52.026-0.884
			c0.864-0.016,1.673-0.429,2.191-1.121l26.591-35.535c1.259-1.683,0.047-4.076-2.053-4.061l-50.682,0.419
			C521.638,116.22,520.84,116.611,520.314,117.274z"/>
		<path fill="#FFD3BC" d="M564.822,131.608c-2.739,0.275-6.72,1.816-6.72,3.248c0,1.433,3.194,1.825,4.075,1.959
			c0.881,0.135,2.037,0.409,1.707,0.85c-0.331,0.44-0.991,2.645-2.753,2.259c-1.763-0.386-9.474-0.496-10.958-0.496
			c-1.487,0-3.249,1.046-3.359,2.147c-0.109,1.102-0.438,1.32-1.32,1.376c-0.881,0.055-2.479,0.881-2.479,2.313
			s3.537,2.722,3.537,3.228s6.938,4.745,8.299,5.531c1.359,0.787,3.9,2.791,5.332,2.791s3.829-1.359,4.008-3.327
			c0.182-1.969,3.008-3.4,3.042-4.366c0.036-0.966-0.895-1.683-0.786-2.29c0.107-0.607,2.576-1.467,2.576-3.006
			s-0.967-3.615-1.107-4.259c-0.146-0.645-0.717-2.039-0.146-2.219c0.573-0.18,2.577-2.04,2.22-3.758
			C569.633,131.87,566.087,131.48,564.822,131.608z"/>
		
			<linearGradient id="SVGID_8_" gradientUnits="userSpaceOnUse" x1="483.1426" y1="-1062.3237" x2="505.8867" y2="-1045.0826" gradientTransform="matrix(1 0 0 1 -72 1489)">
			<stop  offset="0" style="stop-color:#4E9CFF"/>
			<stop  offset="0.9844" style="stop-color:#176AD4"/>
		</linearGradient>
		<path fill="url(#SVGID_8_)" d="M427.832,410.588c3.126,1.689,4.881,6.83,5.326,6.894c0.443,0.063,1.271-0.063,1.271-0.57
			s-0.127-2.224,0.444-2.224c0.57,0,1.207,2.794,1.334,6.859s1.571,13.759,0,14.99c-0.986,0.772-10.036,5.525-10.29,6.162
			c-0.255,0.635,0.188,5.082-0.572,5.779c-0.762,0.699-2.541,2.414-3.938,2.478c-1.396,0.063-9.464,0.891-13.274,0
			c-3.812-0.889-8.64-2.73-8.767-3.238c-0.127-0.509,0.953-11.308,2.16-12.641c1.207-1.334,9.909-13.275,10.608-14.354
			c0.698-1.08,1.207-3.685,1.207-5.208s1.379-4.852,3.946-5.651C419.959,409.026,425.482,409.317,427.832,410.588z"/>
	</g>
</g>
</svg>
