<?xml version="1.0" encoding="utf-8"?>
<!-- Generator: Adobe Illustrator 16.0.0, SVG Export Plug-In . SVG Version: 6.00 Build 0)  -->
<!DOCTYPE svg PUBLIC "-//W3C//DTD SVG 1.1//EN" "http://www.w3.org/Graphics/SVG/1.1/DTD/svg11.dtd">
<svg version="1.1" id="Layer_1" xmlns="http://www.w3.org/2000/svg" xmlns:xlink="http://www.w3.org/1999/xlink" x="0px" y="0px"
	 width="306.093px" height="244.874px" viewBox="0 0 306.093 244.874" enable-background="new 0 0 306.093 244.874"
	 xml:space="preserve">
<text transform="matrix(1.0165 0 0 1 20.0747 136.7793)"><tspan x="0" y="0" fill="#02478D" font-family="'Gilroy-Light'" font-size="57.6778" letter-spacing="-1.967">P</tspan><tspan x="28.435" y="0" fill="#02478D" font-family="'Gilroy-Light'" font-size="57.6778">ayn   </tspan></text>
<path fill="#6B6B6B" d="M162.896,143.039c-12.625,0-22.895-10.269-22.895-22.895h1.533c0,11.78,9.583,21.362,21.362,21.362V143.039z
	"/>
<path fill="#FFB56C" d="M162.896,146.105v-7.665c10.088,0,18.294-8.207,18.294-18.296c0-10.087-8.207-18.293-18.294-18.293
	c-10.088,0-18.295,8.206-18.295,18.293h-7.666c0-14.314,11.646-25.959,25.961-25.959s25.96,11.645,25.96,25.959
	C188.855,134.46,177.21,146.105,162.896,146.105"/>
<path fill="#F27622" d="M162.896,146.105v-7.665c10.088,0,18.294-8.207,18.294-18.296c0-10.087-8.207-18.293-18.294-18.293
	c-6.305,0-12.087,3.184-15.468,8.518l-6.475-4.104c4.794-7.563,12.997-12.079,21.943-12.079c14.314,0,25.96,11.645,25.96,25.959
	C188.855,134.46,177.21,146.105,162.896,146.105"/>
<path fill="#DD6105" d="M162.896,146.105v-7.665c10.088,0,18.294-8.207,18.294-18.296c0-8.027-5.366-15.236-13.048-17.53
	l2.194-7.345c10.904,3.257,18.52,13.486,18.52,24.875C188.855,134.46,177.21,146.105,162.896,146.105"/>
<path fill="#6B6B6B" d="M162.896,133.221c-7.209,0-13.076-5.865-13.076-13.076c0-7.209,5.866-13.073,13.076-13.073
	c7.209,0,13.075,5.864,13.075,13.073C175.97,127.355,170.104,133.221,162.896,133.221 M162.896,107.581
	c-6.928,0-12.564,5.637-12.564,12.563c0,6.93,5.636,12.564,12.564,12.564c6.928,0,12.563-5.635,12.563-12.564
	C175.459,113.218,169.823,107.581,162.896,107.581"/>
<path fill="#6B6B6B" d="M162.909,134.1l-0.003-1.023c0.167-0.001,0.333-0.005,0.498-0.01l0.039,1.021
	C163.265,134.095,163.087,134.098,162.909,134.1 M161.309,134.008c-0.176-0.02-0.354-0.043-0.528-0.069l0.152-1.011
	c0.163,0.024,0.327,0.046,0.493,0.066L161.309,134.008z M165.035,133.934l-0.155-1.01c0.164-0.024,0.326-0.053,0.488-0.084
	l0.193,1.003C165.388,133.878,165.211,133.907,165.035,133.934 M159.211,133.606c-0.171-0.047-0.342-0.097-0.512-0.151l0.308-0.975
	c0.156,0.05,0.315,0.097,0.475,0.14L159.211,133.606z M167.116,133.447l-0.311-0.973c0.158-0.052,0.314-0.104,0.47-0.159
	l0.346,0.961C167.454,133.336,167.286,133.393,167.116,133.447 M157.202,132.887c-0.163-0.073-0.325-0.149-0.485-0.229l0.454-0.916
	c0.149,0.073,0.298,0.145,0.448,0.212L157.202,132.887z M169.094,132.648l-0.454-0.917c0.148-0.073,0.294-0.149,0.438-0.228
	l0.489,0.897C169.411,132.487,169.253,132.568,169.094,132.648 M155.324,131.867c-0.15-0.097-0.297-0.197-0.443-0.298l0.586-0.838
	c0.136,0.095,0.273,0.188,0.412,0.276L155.324,131.867z M170.928,131.554l-0.591-0.834c0.136-0.096,0.269-0.193,0.401-0.294
	l0.618,0.813C171.216,131.348,171.073,131.451,170.928,131.554 M153.625,130.572c-0.133-0.119-0.264-0.239-0.392-0.362l0.708-0.736
	c0.12,0.114,0.24,0.227,0.364,0.336L153.625,130.572z M172.572,130.195l-0.708-0.736c0.118-0.114,0.234-0.23,0.349-0.35l0.737,0.709
	C172.827,129.947,172.701,130.073,172.572,130.195 M152.143,129.037c-0.114-0.138-0.224-0.276-0.333-0.419l0.812-0.62
	c0.101,0.13,0.204,0.26,0.309,0.389L152.143,129.037z M173.993,128.602l-0.813-0.619c0.1-0.132,0.199-0.265,0.293-0.4l0.835,0.589
	C174.206,128.317,174.101,128.461,173.993,128.602 M150.911,127.294c-0.091-0.152-0.18-0.308-0.266-0.463l0.898-0.49
	c0.079,0.146,0.161,0.288,0.245,0.429L150.911,127.294z M175.154,126.811l-0.897-0.489c0.08-0.145,0.156-0.291,0.229-0.438
	l0.915,0.453C175.323,126.495,175.241,126.653,175.154,126.811 M149.959,125.385c-0.066-0.164-0.13-0.331-0.191-0.498l0.961-0.35
	c0.056,0.155,0.115,0.312,0.177,0.463L149.959,125.385z M176.029,124.861l-0.961-0.348c0.056-0.155,0.108-0.311,0.158-0.468
	l0.975,0.308C176.147,124.523,176.09,124.692,176.029,124.861 M149.313,123.351c-0.041-0.174-0.078-0.348-0.112-0.521l1.003-0.198
	c0.032,0.164,0.066,0.324,0.104,0.484L149.313,123.351z M176.595,122.8l-1.004-0.192c0.031-0.162,0.059-0.326,0.083-0.488
	l1.011,0.154C176.659,122.45,176.628,122.626,176.595,122.8 M148.986,121.239c-0.014-0.176-0.025-0.354-0.032-0.531l1.022-0.042
	c0.006,0.166,0.016,0.331,0.029,0.495L148.986,121.239z M176.837,120.68l-1.022-0.038c0.006-0.166,0.009-0.331,0.009-0.497v-0.053
	h1.022v0.047C176.847,120.323,176.843,120.502,176.837,120.68 M150,119.182l-1.02-0.076c0.013-0.177,0.03-0.354,0.049-0.531
	l1.016,0.114C150.028,118.851,150.013,119.017,150,119.182 M175.735,118.612c-0.02-0.165-0.042-0.329-0.068-0.491l1.01-0.159
	c0.027,0.176,0.051,0.353,0.072,0.529L175.735,118.612z M150.296,117.226l-0.996-0.23c0.041-0.173,0.084-0.347,0.131-0.52
	l0.986,0.269C150.374,116.903,150.333,117.063,150.296,117.226 M175.353,116.671c-0.045-0.158-0.092-0.317-0.142-0.475l0.974-0.312
	c0.054,0.169,0.104,0.34,0.152,0.512L175.353,116.671z M150.889,115.337l-0.949-0.38c0.066-0.166,0.136-0.331,0.208-0.493
	l0.933,0.417C151.015,115.031,150.95,115.184,150.889,115.337 M174.677,114.813c-0.067-0.15-0.139-0.3-0.212-0.446l0.914-0.457
	c0.079,0.159,0.155,0.317,0.23,0.481L174.677,114.813z M151.764,113.562l-0.879-0.521c0.091-0.153,0.185-0.306,0.282-0.455
	l0.858,0.557C151.936,113.278,151.849,113.419,151.764,113.562 M173.726,113.08c-0.091-0.138-0.184-0.274-0.279-0.409l0.834-0.592
	c0.103,0.146,0.203,0.293,0.299,0.439L173.726,113.08z M152.901,111.941l-0.79-0.648c0.113-0.14,0.229-0.275,0.347-0.407
	l0.765,0.679C153.113,111.688,153.005,111.814,152.901,111.941 M172.521,111.511c-0.111-0.122-0.223-0.243-0.338-0.362l0.734-0.71
	c0.124,0.128,0.245,0.259,0.364,0.39L172.521,111.511z M154.27,110.514l-0.681-0.764c0.132-0.117,0.267-0.234,0.404-0.348
	l0.653,0.786C154.519,110.295,154.393,110.402,154.27,110.514 M171.089,110.143c-0.128-0.104-0.258-0.207-0.389-0.307l0.618-0.813
	c0.142,0.107,0.281,0.218,0.42,0.331L171.089,110.143z M155.84,109.307l-0.559-0.855c0.149-0.098,0.301-0.19,0.453-0.283
	l0.525,0.877C156.118,109.13,155.979,109.218,155.84,109.307 M169.468,109.009c-0.143-0.084-0.287-0.165-0.432-0.245l0.487-0.898
	c0.157,0.084,0.312,0.172,0.466,0.264L169.468,109.009z M157.574,108.356l-0.421-0.93c0.162-0.073,0.325-0.144,0.49-0.212
	l0.384,0.948C157.875,108.225,157.724,108.291,157.574,108.356 M167.693,108.135c-0.154-0.061-0.309-0.12-0.465-0.175l0.342-0.964
	c0.169,0.06,0.336,0.123,0.501,0.189L167.693,108.135z M159.433,107.685l-0.273-0.984c0.171-0.048,0.343-0.093,0.517-0.134
	l0.235,0.994C159.75,107.601,159.591,107.641,159.433,107.685 M165.802,107.544c-0.16-0.038-0.322-0.072-0.484-0.103l0.188-1.004
	c0.176,0.032,0.351,0.069,0.525,0.11L165.802,107.544z M161.374,107.305l-0.12-1.015c0.176-0.021,0.354-0.04,0.531-0.054l0.081,1.02
	C161.702,107.268,161.537,107.284,161.374,107.305 M163.845,107.25c-0.164-0.012-0.328-0.021-0.494-0.027l0.036-1.021
	c0.179,0.007,0.356,0.017,0.534,0.028L163.845,107.25z"/>
<text transform="matrix(1.0165 0 0 1 189.3267 135.5107)" fill="#02478D" font-family="'Gilroy-Light'" font-size="57.6778">mix</text>
</svg>
