<?xml version="1.0" encoding="utf-8"?>
<!-- Generator: Adobe Illustrator 16.0.0, SVG Export Plug-In . SVG Version: 6.00 Build 0)  -->
<!DOCTYPE svg PUBLIC "-//W3C//DTD SVG 1.1//EN" "http://www.w3.org/Graphics/SVG/1.1/DTD/svg11.dtd">
<svg version="1.1" id="Layer_1" xmlns="http://www.w3.org/2000/svg" xmlns:xlink="http://www.w3.org/1999/xlink" x="0px" y="0px"
	 width="274.912px" height="56.479px" viewBox="0 0 274.912 56.479" enable-background="new 0 0 274.912 56.479"
	 xml:space="preserve">
<text transform="matrix(1.0165 0 0 1 -4 45.1536)" fill="#02478D" font-family="'ArialMT'" font-size="57.6778">P</text>
<text transform="matrix(1.0165 0 0 1 35.2861 45.1536)" fill="#02478D" font-family="'ArialMT'" font-size="57.6778">ayn   </text>
<path fill="#6B6B6B" d="M155.896,51.413c-12.625,0-22.895-10.27-22.895-22.896h1.533c0,11.779,9.583,21.361,21.361,21.361V51.413z"
	/>
<path fill="#FFB56C" d="M155.896,54.479v-7.665c10.088,0,18.295-8.207,18.295-18.296c0-10.087-8.207-18.293-18.295-18.293
	s-18.295,8.206-18.295,18.293h-7.666c0-14.313,11.646-25.959,25.96-25.959s25.961,11.646,25.961,25.959
	C181.854,42.834,170.21,54.479,155.896,54.479"/>
<path fill="#F27622" d="M155.896,54.479v-7.665c10.088,0,18.295-8.207,18.295-18.296c0-10.087-8.207-18.293-18.295-18.293
	c-6.305,0-12.086,3.185-15.467,8.519l-6.476-4.104c4.794-7.563,12.998-12.079,21.942-12.079c14.314,0,25.961,11.646,25.961,25.959
	C181.854,42.834,170.21,54.479,155.896,54.479"/>
<path fill="#DD6105" d="M155.896,54.479v-7.665c10.088,0,18.295-8.207,18.295-18.296c0-8.026-5.366-15.235-13.049-17.529
	l2.193-7.346c10.904,3.257,18.521,13.486,18.521,24.875C181.854,42.834,170.21,54.479,155.896,54.479"/>
<path fill="#6B6B6B" d="M155.896,41.595c-7.209,0-13.076-5.865-13.076-13.076c0-7.209,5.867-13.073,13.076-13.073
	s13.076,5.864,13.076,13.073C168.97,35.729,163.104,41.595,155.896,41.595 M155.896,15.955c-6.928,0-12.563,5.637-12.563,12.563
	c0,6.931,5.636,12.564,12.563,12.564c6.929,0,12.563-5.635,12.563-12.564C168.458,21.592,162.824,15.955,155.896,15.955"/>
<path fill="#6B6B6B" d="M155.91,42.474l-0.004-1.021c0.168-0.002,0.333-0.006,0.497-0.012l0.039,1.021
	C156.265,42.469,156.087,42.472,155.91,42.474 M154.31,42.381c-0.178-0.021-0.354-0.043-0.528-0.068l0.151-1.012
	c0.164,0.025,0.326,0.047,0.492,0.066L154.31,42.381z M158.035,42.308l-0.154-1.011c0.164-0.023,0.326-0.053,0.488-0.084
	l0.192,1.004C158.388,42.252,158.21,42.282,158.035,42.308 M152.21,41.98c-0.17-0.047-0.342-0.097-0.512-0.15l0.309-0.976
	c0.156,0.05,0.314,0.099,0.475,0.142L152.21,41.98z M160.117,41.822l-0.312-0.974c0.156-0.053,0.313-0.104,0.469-0.159l0.347,0.961
	C160.455,41.709,160.287,41.767,160.117,41.822 M150.203,41.261c-0.164-0.073-0.326-0.149-0.486-0.229l0.455-0.916
	c0.147,0.072,0.298,0.146,0.447,0.213L150.203,41.261z M162.093,41.022l-0.453-0.917c0.148-0.072,0.295-0.148,0.438-0.228
	l0.489,0.896C162.412,40.861,162.253,40.942,162.093,41.022 M148.324,40.241c-0.15-0.098-0.298-0.197-0.443-0.299l0.586-0.838
	c0.138,0.096,0.273,0.188,0.412,0.276L148.324,40.241z M163.929,39.928l-0.592-0.834c0.137-0.096,0.27-0.193,0.4-0.295l0.617,0.814
	C164.216,39.722,164.074,39.825,163.929,39.928 M146.625,38.947c-0.132-0.119-0.265-0.238-0.392-0.361l0.707-0.736
	c0.121,0.113,0.24,0.228,0.365,0.336L146.625,38.947z M165.571,38.569l-0.706-0.735c0.116-0.113,0.233-0.229,0.348-0.351
	l0.738,0.709C165.828,38.322,165.701,38.448,165.571,38.569 M145.144,37.411c-0.115-0.139-0.225-0.275-0.334-0.418l0.813-0.621
	c0.102,0.131,0.204,0.26,0.309,0.39L145.144,37.411z M166.994,36.976l-0.813-0.619c0.101-0.132,0.198-0.265,0.293-0.398l0.836,0.588
	C167.207,36.691,167.101,36.834,166.994,36.976 M143.911,35.668c-0.092-0.152-0.18-0.31-0.266-0.463l0.897-0.49
	c0.079,0.146,0.161,0.287,0.245,0.429L143.911,35.668z M168.153,35.185l-0.896-0.489c0.08-0.145,0.156-0.29,0.229-0.438l0.914,0.453
	C168.324,34.87,168.242,35.027,168.153,35.185 M142.959,33.758c-0.065-0.163-0.13-0.33-0.19-0.497l0.961-0.351
	c0.056,0.154,0.115,0.313,0.177,0.463L142.959,33.758z M169.028,33.235l-0.961-0.348c0.058-0.155,0.107-0.311,0.158-0.469
	l0.976,0.309C169.147,32.897,169.089,33.066,169.028,33.235 M142.313,31.725c-0.041-0.174-0.078-0.348-0.112-0.521l1.003-0.198
	c0.031,0.164,0.066,0.325,0.104,0.485L142.313,31.725z M169.595,31.174l-1.004-0.192c0.031-0.162,0.059-0.325,0.082-0.487
	l1.012,0.153C169.66,30.824,169.628,31,169.595,31.174 M141.985,29.614c-0.014-0.177-0.024-0.354-0.031-0.531l1.021-0.042
	c0.006,0.166,0.017,0.331,0.029,0.495L141.985,29.614z M169.837,29.054l-1.021-0.038c0.006-0.166,0.009-0.331,0.009-0.497v-0.053
	h1.022v0.047C169.847,28.698,169.843,28.876,169.837,29.054 M143,27.556l-1.021-0.076c0.014-0.177,0.03-0.354,0.049-0.53
	l1.017,0.113C143.028,27.225,143.013,27.391,143,27.556 M168.735,26.986c-0.021-0.165-0.043-0.328-0.067-0.49l1.011-0.159
	c0.026,0.176,0.051,0.353,0.071,0.529L168.735,26.986z M143.296,25.6L142.3,25.37c0.041-0.173,0.084-0.348,0.131-0.521l0.986,0.27
	C143.374,25.277,143.333,25.437,143.296,25.6 M168.353,25.045c-0.045-0.158-0.092-0.317-0.143-0.476l0.975-0.312
	c0.055,0.169,0.104,0.34,0.152,0.512L168.353,25.045z M143.89,23.711l-0.949-0.38c0.065-0.166,0.136-0.331,0.207-0.493l0.934,0.417
	C144.015,23.406,143.95,23.558,143.89,23.711 M167.677,23.187c-0.066-0.149-0.139-0.3-0.213-0.445l0.914-0.457
	c0.08,0.158,0.156,0.316,0.23,0.48L167.677,23.187z M144.765,21.936l-0.88-0.521c0.091-0.153,0.185-0.307,0.282-0.455l0.857,0.557
	C144.937,21.652,144.849,21.793,144.765,21.936 M166.726,21.454c-0.092-0.139-0.184-0.274-0.279-0.409l0.834-0.592
	c0.104,0.146,0.203,0.293,0.3,0.438L166.726,21.454z M145.901,20.315l-0.791-0.647c0.113-0.141,0.229-0.275,0.348-0.407l0.766,0.679
	C146.112,20.062,146.005,20.188,145.901,20.315 M165.521,19.885c-0.11-0.122-0.223-0.243-0.338-0.362l0.734-0.71
	c0.123,0.128,0.244,0.26,0.363,0.391L165.521,19.885z M147.271,18.888l-0.682-0.764c0.133-0.117,0.268-0.234,0.404-0.349
	l0.652,0.786C147.519,18.669,147.394,18.776,147.271,18.888 M164.089,18.517c-0.129-0.104-0.258-0.207-0.389-0.307l0.617-0.813
	c0.143,0.107,0.281,0.219,0.42,0.331L164.089,18.517z M148.839,17.681l-0.559-0.854c0.148-0.099,0.301-0.19,0.453-0.283l0.524,0.877
	C149.119,17.504,148.979,17.592,148.839,17.681 M162.468,17.383c-0.143-0.084-0.287-0.165-0.432-0.245l0.486-0.897
	c0.156,0.084,0.313,0.172,0.465,0.264L162.468,17.383z M150.574,16.73l-0.421-0.93c0.162-0.073,0.324-0.144,0.49-0.212l0.383,0.948
	C150.875,16.599,150.724,16.665,150.574,16.73 M160.692,16.509c-0.153-0.061-0.309-0.12-0.465-0.175l0.342-0.964
	c0.17,0.06,0.336,0.123,0.502,0.188L160.692,16.509z M152.433,16.059l-0.272-0.983c0.172-0.049,0.344-0.094,0.519-0.135l0.233,0.994
	C152.75,15.975,152.591,16.015,152.433,16.059 M158.802,15.918c-0.16-0.038-0.322-0.072-0.484-0.104l0.188-1.004
	c0.177,0.032,0.353,0.069,0.525,0.11L158.802,15.918z M154.375,15.679l-0.121-1.015c0.177-0.021,0.354-0.04,0.531-0.055l0.082,1.021
	C154.703,15.642,154.537,15.658,154.375,15.679 M156.845,15.624c-0.164-0.013-0.328-0.021-0.494-0.027l0.037-1.021
	c0.178,0.007,0.355,0.017,0.533,0.027L156.845,15.624z"/>
<text transform="matrix(1.0165 0 0 1 184.3271 43.885)" fill="#02478D" font-family="'ArialMT'" font-size="57.6778">mix</text>
</svg>
