<?xml version="1.0" encoding="utf-8"?>
<!-- Generator: Adobe Illustrator 16.0.0, SVG Export Plug-In . SVG Version: 6.00 Build 0)  -->
<!DOCTYPE svg PUBLIC "-//W3C//DTD SVG 1.1//EN" "http://www.w3.org/Graphics/SVG/1.1/DTD/svg11.dtd">
<svg version="1.1" id="Layer_1" xmlns="http://www.w3.org/2000/svg" xmlns:xlink="http://www.w3.org/1999/xlink" x="0px" y="0px"
	 width="35.288px" height="35.638px" viewBox="135.415 104.781 35.288 35.638"
	 enable-background="new 135.415 104.781 35.288 35.638" xml:space="preserve">
<path fill="#6B6B6B" d="M153.047,137.899c-8.526,0-15.462-6.936-15.462-15.463h1.035c0,7.956,6.472,14.428,14.427,14.428V137.899z"
	/>
<path fill="#FFB56C" d="M153.047,139.969v-5.177c6.812,0,12.355-5.543,12.355-12.356c0-6.812-5.543-12.354-12.355-12.354
	c-6.813,0-12.356,5.542-12.356,12.354h-5.177c0-9.667,7.866-17.532,17.533-17.532s17.533,7.864,17.533,17.532
	C170.58,132.105,162.714,139.969,153.047,139.969"/>
<path fill="#F27622" d="M153.047,139.969v-5.177c6.812,0,12.355-5.543,12.355-12.356c0-6.812-5.543-12.354-12.355-12.354
	c-4.258,0-8.164,2.15-10.447,5.752l-4.373-2.771c3.238-5.108,8.778-8.158,14.819-8.158c9.668,0,17.532,7.864,17.532,17.532
	C170.579,132.105,162.714,139.969,153.047,139.969"/>
<path fill="#DD6105" d="M153.047,139.969v-5.177c6.812,0,12.355-5.543,12.355-12.356c0-5.422-3.624-10.29-8.813-11.839l1.482-4.96
	c7.364,2.2,12.508,9.108,12.508,16.799C170.58,132.104,162.714,139.969,153.047,139.969"/>
<path fill="#6B6B6B" d="M153.047,131.267c-4.869,0-8.831-3.961-8.831-8.831c0-4.869,3.962-8.83,8.831-8.83
	c4.869,0,8.83,3.961,8.83,8.83C161.876,127.306,157.916,131.267,153.047,131.267 M153.047,113.951c-4.679,0-8.485,3.807-8.485,8.485
	c0,4.681,3.806,8.485,8.485,8.485s8.484-3.805,8.484-8.485C161.531,117.758,157.726,113.951,153.047,113.951"/>
<path fill="#6B6B6B" d="M153.056,131.86l-0.002-0.69c0.113,0,0.225-0.003,0.335-0.007l0.027,0.69
	C153.296,131.858,153.177,131.859,153.056,131.86 M151.975,131.799c-0.119-0.014-0.239-0.029-0.356-0.047l0.103-0.684
	c0.11,0.017,0.221,0.031,0.333,0.045L151.975,131.799z M154.492,131.749l-0.104-0.682c0.11-0.017,0.221-0.036,0.329-0.058
	l0.131,0.678C154.73,131.71,154.611,131.731,154.492,131.749 M150.559,131.528c-0.116-0.032-0.231-0.065-0.346-0.102l0.208-0.658
	c0.106,0.033,0.213,0.064,0.321,0.094L150.559,131.528z M155.898,131.419l-0.211-0.656c0.107-0.034,0.213-0.071,0.318-0.107
	l0.232,0.649C156.125,131.345,156.012,131.383,155.898,131.419 M149.201,131.042c-0.11-0.05-0.22-0.102-0.327-0.154l0.306-0.618
	c0.101,0.049,0.201,0.098,0.303,0.144L149.201,131.042z M157.233,130.88l-0.307-0.619c0.101-0.049,0.198-0.101,0.296-0.152
	l0.331,0.604C157.447,130.772,157.34,130.827,157.233,130.88 M147.934,130.353c-0.101-0.064-0.201-0.133-0.299-0.201l0.396-0.566
	c0.092,0.064,0.185,0.127,0.278,0.188L147.934,130.353z M158.472,130.141l-0.4-0.563c0.093-0.065,0.182-0.131,0.271-0.199
	l0.417,0.55C158.666,130.002,158.57,130.072,158.472,130.141 M146.786,129.478c-0.09-0.08-0.179-0.161-0.265-0.244l0.479-0.497
	c0.08,0.077,0.162,0.153,0.246,0.227L146.786,129.478z M159.582,129.224l-0.478-0.497c0.079-0.078,0.158-0.156,0.236-0.236
	l0.497,0.479C159.753,129.056,159.668,129.141,159.582,129.224 M145.785,128.442c-0.077-0.093-0.151-0.188-0.225-0.283l0.548-0.419
	c0.068,0.088,0.138,0.176,0.208,0.263L145.785,128.442z M160.542,128.148l-0.55-0.419c0.068-0.089,0.135-0.179,0.199-0.27
	l0.564,0.397C160.686,127.956,160.614,128.053,160.542,128.148 M144.953,127.264c-0.062-0.103-0.122-0.207-0.179-0.313l0.606-0.331
	c0.053,0.099,0.108,0.194,0.165,0.29L144.953,127.264z M161.326,126.938l-0.605-0.33c0.054-0.098,0.104-0.197,0.154-0.296
	l0.618,0.306C161.44,126.724,161.384,126.832,161.326,126.938 M144.311,125.975c-0.045-0.111-0.088-0.225-0.129-0.337l0.649-0.235
	c0.038,0.104,0.078,0.21,0.12,0.313L144.311,125.975z M161.917,125.622l-0.648-0.235c0.037-0.104,0.072-0.21,0.106-0.316
	l0.658,0.209C161.997,125.394,161.958,125.508,161.917,125.622 M143.874,124.602c-0.027-0.118-0.053-0.235-0.076-0.354l0.677-0.134
	c0.022,0.111,0.045,0.22,0.071,0.327L143.874,124.602z M162.298,124.229l-0.678-0.13c0.021-0.109,0.04-0.22,0.057-0.329l0.684,0.104
	C162.342,123.993,162.322,124.112,162.298,124.229 M143.652,123.175c-0.009-0.119-0.017-0.239-0.021-0.359l0.69-0.028
	c0.004,0.112,0.011,0.224,0.02,0.334L143.652,123.175z M162.462,122.797l-0.69-0.026c0.005-0.112,0.007-0.224,0.007-0.335v-0.035
	h0.689v0.031C162.468,122.557,162.467,122.678,162.462,122.797 M144.338,121.786l-0.688-0.051c0.009-0.12,0.02-0.239,0.034-0.359
	l0.686,0.077C144.357,121.562,144.346,121.674,144.338,121.786 M161.718,121.401c-0.014-0.112-0.027-0.223-0.046-0.332l0.683-0.107
	c0.018,0.119,0.035,0.238,0.048,0.358L161.718,121.401z M144.538,120.465l-0.672-0.156c0.027-0.117,0.057-0.235,0.088-0.351
	l0.666,0.181C144.59,120.247,144.563,120.355,144.538,120.465 M161.46,120.09c-0.03-0.107-0.063-0.214-0.097-0.321l0.658-0.21
	c0.036,0.114,0.07,0.229,0.102,0.345L161.46,120.09z M144.938,119.189l-0.641-0.257c0.044-0.111,0.092-0.224,0.141-0.333l0.63,0.282
	C145.023,118.983,144.979,119.085,144.938,119.189 M161.003,118.835c-0.046-0.102-0.094-0.202-0.143-0.301l0.616-0.309
	c0.054,0.107,0.105,0.215,0.155,0.326L161.003,118.835z M145.529,117.99l-0.594-0.352c0.062-0.104,0.125-0.207,0.191-0.308
	l0.579,0.376C145.645,117.799,145.586,117.894,145.529,117.99 M160.362,117.665c-0.063-0.092-0.124-0.185-0.188-0.276l0.563-0.4
	c0.069,0.098,0.137,0.198,0.202,0.297L160.362,117.665z M146.297,116.896l-0.533-0.438c0.077-0.094,0.154-0.185,0.234-0.275
	l0.517,0.458C146.44,116.725,146.367,116.81,146.297,116.896 M159.547,116.605c-0.075-0.083-0.15-0.165-0.229-0.245l0.495-0.479
	c0.084,0.086,0.166,0.174,0.246,0.263L159.547,116.605z M147.222,115.932l-0.46-0.516c0.089-0.08,0.18-0.159,0.273-0.234
	l0.441,0.531C147.39,115.784,147.305,115.857,147.222,115.932 M158.581,115.681c-0.087-0.07-0.175-0.139-0.263-0.206l0.418-0.55
	c0.096,0.072,0.189,0.147,0.283,0.223L158.581,115.681z M148.282,115.116l-0.377-0.578c0.101-0.066,0.203-0.128,0.306-0.191
	l0.354,0.592C148.47,114.997,148.375,115.056,148.282,115.116 M157.486,114.916c-0.097-0.058-0.193-0.112-0.292-0.166l0.329-0.607
	c0.106,0.057,0.21,0.116,0.314,0.178L157.486,114.916z M149.453,114.475l-0.285-0.628c0.109-0.049,0.22-0.097,0.331-0.143
	l0.259,0.641C149.655,114.385,149.554,114.43,149.453,114.475 M156.287,114.325c-0.104-0.041-0.208-0.082-0.313-0.118l0.23-0.65
	c0.114,0.04,0.227,0.083,0.338,0.127L156.287,114.325z M150.708,114.021l-0.184-0.665c0.115-0.033,0.231-0.063,0.349-0.091
	l0.159,0.671C150.922,113.964,150.815,113.991,150.708,114.021 M155.01,113.926c-0.108-0.026-0.218-0.049-0.327-0.069l0.127-0.678
	c0.119,0.022,0.237,0.046,0.354,0.075L155.01,113.926z M152.019,113.764l-0.081-0.685c0.118-0.015,0.239-0.027,0.359-0.036
	l0.054,0.688C152.241,113.74,152.129,113.75,152.019,113.764 M153.688,113.727c-0.11-0.007-0.222-0.013-0.333-0.018l0.024-0.69
	c0.121,0.004,0.241,0.012,0.361,0.019L153.688,113.727z"/>
</svg>
