<?xml version="1.0" encoding="utf-8"?>
<!-- Generator: Adobe Illustrator 16.0.0, SVG Export Plug-In . SVG Version: 6.00 Build 0)  -->
<!DOCTYPE svg PUBLIC "-//W3C//DTD SVG 1.1//EN" "http://www.w3.org/Graphics/SVG/1.1/DTD/svg11.dtd">
<svg version="1.1" id="Layer_1" xmlns="http://www.w3.org/2000/svg" xmlns:xlink="http://www.w3.org/1999/xlink" x="0px" y="0px"
	 width="306.093px" height="244.874px" viewBox="0 0 306.093 244.874" enable-background="new 0 0 306.093 244.874"
	 xml:space="preserve">
<polygon fill="#FFFFFF" points="114.592,80.385 217.585,125.233 114.592,167.135 114.592,134.605 175.702,123.76 114.592,116.37 "/>
<path fill="#6B6B6B" d="M153.048,218.101c-52.754,0-95.667-42.909-95.667-95.667h6.403c0,49.224,40.044,89.264,89.264,89.264
	V218.101z"/>
<path fill="#FFB56C" d="M153.048,230.915v-32.031c42.153,0,76.446-34.294,76.446-76.45c0-42.149-34.293-76.443-76.446-76.443
	c-42.156,0-76.45,34.294-76.45,76.443H44.566c0-59.818,48.667-108.476,108.482-108.476s108.479,48.657,108.479,108.476
	S212.863,230.915,153.048,230.915"/>
<path fill="#F27622" d="M153.048,230.915v-32.031c42.153,0,76.446-34.294,76.446-76.45c0-42.149-34.293-76.443-76.446-76.443
	c-26.348,0-50.51,13.306-64.635,35.594l-27.057-17.15c20.034-31.603,54.31-50.476,91.691-50.476
	c59.815,0,108.479,48.657,108.479,108.476S212.863,230.915,153.048,230.915"/>
<path fill="#DD6105" d="M153.048,230.915v-32.031c42.153,0,76.446-34.294,76.446-76.45c0-33.547-22.423-63.67-54.524-73.255
	l9.17-30.69c45.562,13.609,77.387,56.354,77.387,103.945C261.527,182.252,212.863,230.915,153.048,230.915"/>
<path fill="#6B6B6B" d="M153.048,177.072c-30.127,0-54.639-24.509-54.639-54.639c0-30.124,24.512-54.632,54.639-54.632
	c30.124,0,54.635,24.508,54.635,54.632C207.684,152.563,183.172,177.072,153.048,177.072 M153.048,69.932
	c-28.951,0-52.501,23.554-52.501,52.502c0,28.954,23.55,52.502,52.501,52.502c28.948,0,52.499-23.548,52.499-52.502
	C205.547,93.485,181.996,69.932,153.048,69.932"/>
<path fill="#6B6B6B" d="M153.104,180.744l-0.014-4.273c0.698-0.007,1.39-0.021,2.078-0.042l0.163,4.268
	C154.594,180.724,153.851,180.737,153.104,180.744 M146.417,180.364c-0.736-0.084-1.477-0.18-2.206-0.291l0.636-4.225
	c0.681,0.104,1.366,0.193,2.058,0.276L146.417,180.364z M161.99,180.053l-0.647-4.219c0.685-0.104,1.363-0.222,2.04-0.353
	l0.806,4.191C163.463,179.817,162.727,179.942,161.99,180.053 M137.655,178.684c-0.716-0.194-1.432-0.401-2.14-0.63l1.286-4.072
	c0.653,0.207,1.317,0.4,1.984,0.58L137.655,178.684z M170.686,178.02l-1.3-4.066c0.661-0.214,1.314-0.436,1.964-0.664l1.445,4.019
	C172.097,177.556,171.395,177.791,170.686,178.02 M129.256,175.675c-0.681-0.304-1.359-0.622-2.026-0.954l1.895-3.824
	c0.623,0.305,1.245,0.602,1.874,0.886L129.256,175.675z M178.95,174.68l-1.895-3.831c0.619-0.305,1.228-0.623,1.829-0.947
	l2.043,3.748C180.274,174.009,179.614,174.348,178.95,174.68 M121.41,171.415c-0.625-0.4-1.241-0.822-1.85-1.244l2.448-3.5
	c0.567,0.395,1.141,0.781,1.722,1.155L121.41,171.415z M186.612,170.108l-2.469-3.485c0.567-0.401,1.124-0.81,1.677-1.231
	l2.583,3.402C187.815,169.244,187.221,169.68,186.612,170.108 M114.309,166.007c-0.557-0.497-1.104-1.002-1.639-1.514l2.959-3.078
	c0.498,0.478,1.003,0.948,1.521,1.404L114.309,166.007z M193.483,164.431l-2.957-3.077c0.491-0.478,0.979-0.962,1.459-1.459
	l3.078,2.96C194.548,163.394,194.022,163.919,193.483,164.431 M108.116,159.59c-0.477-0.574-0.937-1.155-1.39-1.749l3.392-2.594
	c0.422,0.547,0.851,1.086,1.29,1.625L108.116,159.59z M199.42,157.771l-3.396-2.587c0.418-0.553,0.83-1.106,1.224-1.674l3.492,2.463
	C200.312,156.582,199.873,157.184,199.42,157.771 M102.971,152.308c-0.381-0.636-0.754-1.286-1.11-1.936l3.752-2.047
	c0.328,0.608,0.671,1.203,1.023,1.791L102.971,152.308z M204.274,150.288l-3.748-2.047c0.332-0.602,0.65-1.217,0.958-1.832
	l3.824,1.895C204.979,148.968,204.634,149.632,204.274,150.288 M98.994,144.327c-0.276-0.684-0.543-1.383-0.799-2.081l4.018-1.459
	c0.235,0.649,0.48,1.3,0.74,1.937L98.994,144.327z M207.929,142.143l-4.015-1.452c0.235-0.65,0.453-1.301,0.661-1.957l4.073,1.286
	C208.423,140.731,208.185,141.437,207.929,142.143 M96.29,135.829c-0.169-0.727-0.325-1.453-0.47-2.179l4.191-0.83
	c0.135,0.685,0.276,1.355,0.436,2.026L96.29,135.829z M210.294,133.525l-4.194-0.802c0.128-0.678,0.246-1.362,0.349-2.04
	l4.225,0.644C210.561,132.066,210.433,132.8,210.294,133.525 M94.924,127.005c-0.059-0.733-0.104-1.48-0.135-2.221l4.27-0.172
	c0.024,0.691,0.066,1.383,0.121,2.067L94.924,127.005z M211.307,124.667l-4.27-0.159c0.024-0.691,0.038-1.383,0.038-2.074v-0.222
	h4.27v0.193C211.345,123.181,211.332,123.927,211.307,124.667 M99.164,118.409l-4.26-0.318c0.055-0.74,0.125-1.48,0.208-2.221
	l4.242,0.478C99.281,117.025,99.215,117.717,99.164,118.409 M206.702,116.03c-0.083-0.692-0.173-1.377-0.284-2.055l4.222-0.664
	c0.114,0.733,0.215,1.474,0.301,2.213L206.702,116.03z M100.401,110.234l-4.163-0.961c0.169-0.726,0.353-1.452,0.546-2.171
	l4.122,1.119C100.723,108.886,100.554,109.557,100.401,110.234 M205.104,107.918c-0.187-0.664-0.384-1.327-0.595-1.984l4.07-1.3
	c0.225,0.705,0.436,1.417,0.636,2.137L205.104,107.918z M102.877,102.345l-3.966-1.591c0.276-0.692,0.57-1.384,0.871-2.062
	l3.9,1.743C103.403,101.065,103.133,101.701,102.877,102.345 M202.279,100.152c-0.28-0.63-0.578-1.252-0.885-1.867l3.817-1.909
	c0.332,0.664,0.65,1.328,0.961,2.013L202.279,100.152z M106.535,94.924l-3.675-2.179c0.38-0.643,0.771-1.279,1.179-1.901
	l3.585,2.323C107.251,93.741,106.888,94.329,106.535,94.924 M198.306,92.911c-0.38-0.573-0.768-1.147-1.168-1.708l3.485-2.476
	c0.429,0.609,0.847,1.225,1.251,1.84L198.306,92.911z M111.286,88.153l-3.302-2.711c0.474-0.58,0.958-1.147,1.452-1.701l3.195,2.836
	C112.171,87.096,111.722,87.621,111.286,88.153 M193.269,86.355c-0.463-0.512-0.934-1.017-1.415-1.515l3.067-2.967
	c0.519,0.533,1.024,1.079,1.521,1.626L193.269,86.355z M117.005,82.186l-2.846-3.188c0.553-0.491,1.113-0.982,1.687-1.452
	l2.729,3.284C118.046,81.272,117.521,81.723,117.005,82.186 M187.287,80.637c-0.533-0.436-1.076-0.864-1.625-1.279l2.583-3.402
	c0.595,0.449,1.176,0.913,1.757,1.383L187.287,80.637z M123.568,77.145l-2.334-3.575c0.623-0.408,1.255-0.795,1.892-1.183
	l2.192,3.665C124.727,76.404,124.146,76.771,123.568,77.145 M180.513,75.899c-0.595-0.353-1.196-0.691-1.805-1.023l2.033-3.755
	c0.657,0.353,1.304,0.72,1.947,1.1L180.513,75.899z M130.812,73.175l-1.76-3.887c0.674-0.304,1.359-0.602,2.047-0.885l1.604,3.963
	C132.067,72.622,131.438,72.898,130.812,73.175 M173.096,72.248c-0.643-0.256-1.29-0.505-1.943-0.732l1.428-4.025
	c0.705,0.249,1.404,0.512,2.095,0.788L173.096,72.248z M138.578,70.367l-1.141-4.114c0.715-0.201,1.435-0.388,2.161-0.561
	l0.982,4.156C139.906,70.015,139.242,70.181,138.578,70.367 M165.195,69.779c-0.671-0.159-1.345-0.304-2.023-0.429l0.789-4.197
	c0.736,0.139,1.466,0.29,2.192,0.463L165.195,69.779z M146.689,68.776l-0.498-4.238c0.733-0.09,1.476-0.166,2.22-0.222l0.335,4.26
	C148.059,68.625,147.371,68.694,146.689,68.776 M157.018,68.549c-0.685-0.049-1.373-0.083-2.064-0.11l0.149-4.268
	c0.747,0.027,1.49,0.069,2.23,0.118L157.018,68.549z"/>
</svg>
