<?xml version="1.0" encoding="UTF-8" standalone="no"?>
<!-- Created with Inkscape (http://www.inkscape.org/) -->

<svg
   xmlns:dc="http://purl.org/dc/elements/1.1/"
   xmlns:cc="http://creativecommons.org/ns#"
   xmlns:rdf="http://www.w3.org/1999/02/22-rdf-syntax-ns#"
   xmlns:svg="http://www.w3.org/2000/svg"
   xmlns="http://www.w3.org/2000/svg"
   xmlns:sodipodi="http://sodipodi.sourceforge.net/DTD/sodipodi-0.dtd"
   xmlns:inkscape="http://www.inkscape.org/namespaces/inkscape"
   sodipodi:docname="Comic FX f1 - Copy - Copy - Copy (2).svg"
   inkscape:version="0.92.1 r15371"
   id="svg8"
   version="1.1"
   viewBox="0 0 28.548681 18.983931"
   height="18.983931mm"
   width="28.548681mm">
  <defs
     id="defs2" />
  <sodipodi:namedview
     inkscape:window-maximized="1"
     inkscape:window-y="-8"
     inkscape:window-x="-8"
     inkscape:window-height="705"
     inkscape:window-width="1368"
     showgrid="false"
     inkscape:current-layer="layer1"
     inkscape:document-units="mm"
     inkscape:cy="-407.17155"
     inkscape:cx="-780.62391"
     inkscape:zoom="0.20280137"
     inkscape:pageshadow="2"
     inkscape:pageopacity="0.0"
     borderopacity="1.0"
     bordercolor="#666666"
     pagecolor="#ffffff"
     id="base" />
  <metadata
     id="metadata5">
    <rdf:RDF>
      <cc:Work
         rdf:about="">
        <dc:format>image/svg+xml</dc:format>
        <dc:type
           rdf:resource="http://purl.org/dc/dcmitype/StillImage" />
        <dc:title />
      </cc:Work>
    </rdf:RDF>
  </metadata>
  <g
     inkscape:label="Layer 1"
     inkscape:groupmode="layer"
     id="layer1"
     transform="translate(-73.173347,-30.448743)">
    <path
       style="fill:#ffffff;fill-opacity:1;fill-rule:nonzero;stroke:#000000;stroke-width:0.93299997;stroke-linecap:round;stroke-linejoin:round;stroke-miterlimit:10;stroke-dasharray:none;stroke-opacity:1"
       d="m 87.439375,30.915243 c -0.47238,0 -0.94554,2.1e-4 -1.41678,0.0336 -0.90402,0.0636 -1.8078,0.159 -2.7003,0.31644 -0.83214,0.1467 -1.65792,0.33909 -2.46678,0.58338 -0.56712,0.1713 -1.1187,0.39195 -1.6668,0.6168 -0.34971,0.1434 -0.69681,0.2949 -1.0335,0.46662 -0.3192,0.1629 -0.62844,0.34506 -0.93324,0.53346 -0.2898,0.1791 -0.5778,0.36246 -0.85032,0.56688 -0.2553,0.1917 -0.4992,0.39909 -0.73314,0.61638 -0.2274,0.2112 -0.44787,0.43128 -0.65022,0.66672 -0.186,0.2166 -0.36162,0.4437 -0.51654,0.68364 -0.1512,0.234 -0.2841,0.48012 -0.4002,0.73314 -0.1116,0.243 -0.2136,0.49209 -0.2835,0.75006 -0.0693,0.2556 -0.1056,0.52002 -0.1332,0.78348 -0.015,0.1329 -0.015,0.2667 -0.015,0.4002 0,0.1335 0.0024,0.2673 0.015,0.39978 0.027,0.2634 0.0648,0.52755 0.1332,0.78348 0.0705,0.2634 0.1695,0.51942 0.2835,0.76698 0.1146,0.2484 0.252,0.48666 0.4002,0.71664 0.1572,0.2439 0.32736,0.48033 0.51654,0.70014 0.1998,0.2322 0.42576,0.44121 0.65022,0.6498 0.2364,0.2199 0.49074,0.41991 0.73314,0.6333 0.34557,0.30423 0.79161,0.5274 1.0281,0.92247 0.1698,0.2835 0.2541,0.63336 0.2352,0.96336 -0.027,0.45864 -0.237,0.90177 -0.47883,1.29237 -0.1911,0.30867 -0.47868,0.54795 -0.74574,0.79389 -0.38949,0.35871 -0.84345,0.64155 -1.24314,0.9888 -0.1935,0.168 -0.6633,0.2952 -0.55779,0.52869 0.18,0.39846 0.87198,-0.0696 1.30653,-0.1185 0.61251,-0.069 1.2246,-0.1452 1.83261,-0.246 0.3738,-0.0621 0.74733,-0.1296 1.11513,-0.2208 0.34518,-0.0855 0.68742,-0.1857 1.02219,-0.30558 0.31632,-0.1134 0.6321,-0.234 0.92934,-0.39066 0.2769,-0.1461 0.51183,-0.36363 0.78912,-0.50871 0.54897,-0.2874 1.10859,-0.59787 1.71804,-0.70971 0.88566,-0.1626 1.80012,0.054 2.7003,0.0777 0.47223,0.012 0.94437,0.0336 1.41678,0.0336 0.47238,0 0.94545,-0.0016 1.41678,-0.0336 0.9036,-0.0606 1.80783,-0.1461 2.7003,-0.3 0.83793,-0.1443 1.66911,-0.33813 2.48328,-0.58338 0.56724,-0.171 1.12092,-0.38658 1.66677,-0.6168 0.34587,-0.1458 0.68253,-0.31323 1.01703,-0.48354 0.32112,-0.1635 0.64206,-0.32889 0.94971,-0.51654 0.2868,-0.1749 0.5658,-0.36375 0.8334,-0.56688 0.2607,-0.198 0.51054,-0.41037 0.75006,-0.6333 0.2214,-0.2061 0.43611,-0.42072 0.63375,-0.6498 0.191705,-0.222 0.372275,-0.4548 0.533015,-0.70014 0.15,-0.2289 0.2883,-0.46704 0.40023,-0.71664 0.111,-0.2469 0.1965,-0.50556 0.2664,-0.76698 0.0687,-0.2568 0.1197,-0.51933 0.1503,-0.78348 0.015,-0.1326 0.015,-0.2664 0.015,-0.39978 0,-0.1335 -8.1e-4,-0.2676 -0.015,-0.4002 -0.0306,-0.264 -0.0804,-0.52689 -0.1503,-0.78348 -0.0696,-0.2562 -0.1581,-0.50784 -0.2664,-0.75006 -0.1137,-0.2541 -0.2475,-0.5004 -0.40023,-0.73314 -0.1587,-0.2415 -0.34443,-0.46473 -0.533015,-0.68364 -0.2001,-0.2322 -0.40926,-0.45789 -0.63375,-0.66672 -0.237,-0.2205 -0.49098,-0.42246 -0.75006,-0.61638 -0.2691,-0.2013 -0.54777,-0.39 -0.8334,-0.56688 -0.30867,-0.1911 -0.62616,-0.3687 -0.94971,-0.53346 -0.3324,-0.1692 -0.67236,-0.32406 -1.01703,-0.46662 -0.54741,-0.2265 -1.09953,-0.44595 -1.66677,-0.6168 -0.81417,-0.2451 -1.6458,-0.43644 -2.48328,-0.58338 -0.89262,-0.1566 -1.79628,-0.2529 -2.7003,-0.31644 -0.47124,-0.033 -0.9444,-0.0336 -1.41678,-0.0336 z"
       id="path5292"
       inkscape:connector-curvature="0" />
    <path
       inkscape:connector-curvature="0"
       id="path5454"
       style="font-style:normal;font-variant:normal;font-weight:bold;font-stretch:normal;font-size:2.82222223px;line-height:13.22916603px;font-family:'Comic Sans MS';-inkscape-font-specification:'Comic Sans MS Bold';text-align:center;letter-spacing:0px;word-spacing:0px;text-anchor:middle;fill:#000000;fill-opacity:1;stroke:none;stroke-width:0.79374993px;stroke-linecap:butt;stroke-linejoin:miter;stroke-opacity:1"
       d="m 86.061514,40.266933 q 0.018,0.2058 -0.0132,0.65682 -0.03588,0.53847 -0.554802,0.58389 -0.2883,0.024 -0.67917,-0.2685 -1.710606,-1.29036 -3.929457,-3.69408 0.06897,1.07295 0.09024,1.31592 0.0285,0.32535 0.0981,0.97911 0.07377,0.65337 0.10224,0.97872 0.10629,1.21494 -0.486756,1.26681 -0.300642,0.027 -0.498063,-0.1431 -0.17502,-0.1506 -0.19557,-0.38544 -0.0144,-0.1647 -0.0189,-0.50049 -3.57e-4,-0.33609 -0.0147,-0.50085 -0.0213,-0.243 -0.04731,-0.73038 -0.0261,-0.48741 -0.04731,-0.73041 -0.0228,-0.2595 -0.08082,-0.78141 -0.05811,-0.52194 -0.08082,-0.78141 -0.0216,-0.2472 -0.11391,-0.73287 -0.09231,-0.48576 -0.11391,-0.73284 -0.0216,-0.2472 0.17148,-0.45906 0.19722,-0.2124 0.469032,-0.2361 0.304761,-0.027 0.721536,0.46806 2.103228,2.50512 4.070919,4.03029 -0.0075,-0.1323 -0.05064,-0.62637 -0.17763,-2.03034 -0.2808,-2.7351 -0.0186,-0.1188 -0.09246,-0.4401 -0.06639,-0.2847 -0.08082,-0.44943 -0.04971,-0.56835 0.551559,-0.62094 0.671298,-0.0588 0.852534,2.01282 0.0039,0.0453 0.04869,0.65142 0.15834,2.0943 0.20301,2.60499 z" />
    <path
       inkscape:connector-curvature="0"
       id="path5456"
       style="font-style:normal;font-variant:normal;font-weight:bold;font-stretch:normal;font-size:2.82222223px;line-height:13.22916603px;font-family:'Comic Sans MS';-inkscape-font-specification:'Comic Sans MS Bold';text-align:center;letter-spacing:0px;word-spacing:0px;text-anchor:middle;fill:#000000;fill-opacity:1;stroke:none;stroke-width:0.79374993px;stroke-linecap:butt;stroke-linejoin:miter;stroke-opacity:1"
       d="m 89.76757,42.101883 q -1.2237,0 -2.083596,-0.70281 -0.917772,-0.7524 -0.917772,-1.94715 0,-1.40562 0.880566,-2.56317 0.988053,-1.30224 2.488737,-1.30224 1.442805,0 2.162142,0.66147 0.719337,0.66144 0.719337,1.98849 0,1.40562 -0.810288,2.54661 -0.934308,1.3188 -2.439126,1.3188 z m 0.367935,-5.39502 q -0.921906,0 -1.579233,0.89295 -0.615981,0.83511 -0.615981,1.85211 0,0.68625 0.533301,1.11621 0.512628,0.4134 1.293978,0.4134 0.909504,0 1.51722,-0.89298 0.558105,-0.81441 0.558105,-1.85208 0,-0.86817 -0.388608,-1.20714 -0.372069,-0.32247 -1.318782,-0.32247 z" />
    <path
       inkscape:connector-curvature="0"
       id="path5458"
       style="font-style:normal;font-variant:normal;font-weight:bold;font-stretch:normal;font-size:2.82222223px;line-height:13.22916603px;font-family:'Comic Sans MS';-inkscape-font-specification:'Comic Sans MS Bold';text-align:center;letter-spacing:0px;word-spacing:0px;text-anchor:middle;fill:#000000;fill-opacity:1;stroke:none;stroke-width:0.79374993px;stroke-linecap:butt;stroke-linejoin:miter;stroke-opacity:1"
       d="m 94.480036,40.814253 q -0.228,-0.0402 -0.353508,-0.2094 -0.12144,-0.1683 -0.0834,-0.38412 0.0279,-0.1587 0.07107,-0.47442 0.04785,-0.31899 0.07584,-0.47778 0.09906,-0.56184 0.305346,-1.68408 0.21036,-1.12152 0.309417,-1.68336 0.03804,-0.2157 0.21381,-0.33171 0.17649,-0.12 0.400404,-0.0804 0.22392,0.0396 0.348717,0.2127 0.12552,0.1689 0.08748,0.38484 l -0.761673,4.31964 q -0.03804,0.2157 -0.21381,0.33171 -0.17169,0.1167 -0.399684,0.0765 z m -0.27279,1.47573 q -0.24429,-0.0432 -0.410043,-0.34098 -0.14901,-0.2739 -0.11238,-0.48159 0.03732,-0.2118 0.22938,-0.32475 0.19206,-0.1131 0.403758,-0.0756 0.24429,0.0432 0.405972,0.34026 0.14901,0.2739 0.1131,0.47751 -0.0366,0.2076 -0.22938,0.32478 -0.1887,0.1179 -0.400404,0.0804 z" />
  </g>
</svg>
