<?xml version="1.0" encoding="utf-8"?>
<!-- Generator: Adobe Illustrator 16.0.0, SVG Export Plug-In . SVG Version: 6.00 Build 0)  -->
<!DOCTYPE svg PUBLIC "-//W3C//DTD SVG 1.1//EN" "http://www.w3.org/Graphics/SVG/1.1/DTD/svg11.dtd">
<svg version="1.1" id="Layer_1" xmlns="http://www.w3.org/2000/svg" xmlns:xlink="http://www.w3.org/1999/xlink" x="0px" y="0px"
	 width="72px" height="72px" viewBox="0 0 72 72" enable-background="new 0 0 72 72" xml:space="preserve">
<path fill="#5B5B5B" d="M30.537,25.989h9.293c0.768,0,1.391-0.623,1.391-1.39c0-0.768-0.623-1.391-1.391-1.391h-9.293
	c-0.768,0-1.391,0.623-1.391,1.391C29.146,25.367,29.769,25.989,30.537,25.989z"/>
<path fill="#5B5B5B" d="M48.172,31.69H30.537c-0.768,0-1.391,0.622-1.391,1.39s0.623,1.391,1.391,1.391h17.635
	c0.769,0,1.391-0.623,1.391-1.391S48.94,31.69,48.172,31.69z"/>
<path fill="#5B5B5B" d="M48.172,40.171H30.537c-0.768,0-1.391,0.622-1.391,1.391s0.623,1.39,1.391,1.39h17.635
	c0.769,0,1.391-0.621,1.391-1.39S48.94,40.171,48.172,40.171z"/>
<path fill="#5B5B5B" d="M62.743,17.786H60.53v-2.166c-0.021-3.091-2.519-5.593-5.609-5.621H8.819c-3.066,0-5.572,2.554-5.572,5.621
	v32.937c0.012,3.06,2.502,5.529,5.563,5.518h2.224v2.304c0,3.066,2.464,5.621,5.531,5.621h46.18c3.067,0,5.573-2.555,5.573-5.621
	V23.366C68.309,20.29,65.819,17.797,62.743,17.786z M57.749,48.514c0,1.535-1.245,2.78-2.78,2.78H8.808
	c-1.536,0-2.781-1.245-2.781-2.78V15.562c0-1.536,1.245-2.781,2.781-2.781h46.161c1.535,0,2.78,1.245,2.78,2.781V48.514z
	 M65.535,56.379c0,1.533-1.258,2.841-2.792,2.841h-46.18c-1.533,0-2.75-1.308-2.75-2.841v-2.304h41.107
	c3.067,0,5.609-2.451,5.609-5.518V20.567h2.213c1.541,0.009,2.787,1.258,2.792,2.799V56.379z"/>
<path fill="#5B5B5B" d="M18.401,28.039c1.346,0.001,2.435,1.092,2.437,2.437c0,0.768,0.623,1.39,1.391,1.39
	c0.768,0,1.39-0.623,1.39-1.39c-0.003-2.398-1.639-4.486-3.966-5.065v-1.367c0-0.768-0.623-1.391-1.39-1.391
	c-0.768,0-1.391,0.623-1.391,1.391v1.444c-2.469,0.757-4.012,3.207-3.629,5.761c0.383,2.555,2.576,4.444,5.159,4.444
	c1.346,0,2.437,1.091,2.437,2.437c0,1.346-1.091,2.437-2.436,2.437c-1.346,0-2.437-1.091-2.437-2.437c0-0.768-0.623-1.39-1.391-1.39
	s-1.39,0.623-1.39,1.39c0.002,2.291,1.498,4.313,3.688,4.988v1.086c0,0.768,0.623,1.391,1.391,1.391c0.768,0,1.39-0.623,1.39-1.391
	v-1.01c2.561-0.633,4.247-3.076,3.928-5.695c-0.319-2.618-2.542-4.587-5.179-4.587c-1.346,0-2.436-1.09-2.436-2.436
	C15.965,29.129,17.056,28.039,18.401,28.039z"/>
</svg>
