<?xml version="1.0" encoding="utf-8"?>
<!-- Generator: Adobe Illustrator 16.0.0, SVG Export Plug-In . SVG Version: 6.00 Build 0)  -->
<!DOCTYPE svg PUBLIC "-//W3C//DTD SVG 1.1//EN" "http://www.w3.org/Graphics/SVG/1.1/DTD/svg11.dtd">
<svg version="1.1" id="Layer_1" xmlns="http://www.w3.org/2000/svg" xmlns:xlink="http://www.w3.org/1999/xlink" x="0px" y="0px"
	 width="72px" height="72px" viewBox="0 0 72 72" enable-background="new 0 0 72 72" xml:space="preserve">
<path fill="#5B5B5B" d="M62.853,12.145c0.407-0.352,0.552-0.918,0.364-1.422c-0.188-0.503-0.668-0.837-1.206-0.837h-5.895
	C50.637,5.61,42.971,3.068,35.502,3.068c-7.767,0-15.649,2.761-21.326,7.429l-1.863-1.568c-0.375-0.315-0.898-0.391-1.347-0.193
	C10.518,8.935,10.22,9.371,10.2,9.861L10,14.671C5.342,20.298,2.57,28.233,2.57,36c0,6.822,2.154,13.899,5.804,19.196L7.05,56.291
	c-0.387,0.319-0.552,0.836-0.421,1.322c0.13,0.485,0.53,0.853,1.025,0.937l4.081,0.7c5.979,6.089,14.923,9.682,23.767,9.682
	c8.635,0,17.183-3.359,23.106-9.028l2.233,1.591c0.405,0.287,0.943,0.319,1.382,0.071c0.436-0.249,0.688-0.726,0.647-1.224
	l-0.4-4.916c3.74-5.281,5.963-12.501,5.963-19.426c0-8.021-2.93-16.086-7.887-21.859L62.853,12.145z M13.356,13.169
	c0.489,0.412,1.208,0.401,1.684-0.024c5.265-4.699,12.914-7.504,20.462-7.504c5.625,0,11.359,1.55,16.016,4.245h-2.982
	c-0.391,0-0.761,0.178-1.005,0.483c-0.243,0.306-0.336,0.705-0.249,1.086l0.51,2.262c-3.625-1.861-8.022-2.931-12.289-2.931
	c-6.187,0-12.274,2.27-16.125,5.438c-0.653,0.534-0.632,1.532,0.076,2.071l0.857,0.654l-7.977,1.563l0.328-7.927L13.356,13.169z
	 M54.963,48.111l-6.618,2.461c-0.453,0.169-0.773,0.577-0.829,1.058c-0.057,0.48,0.162,0.95,0.564,1.218l1.671,1.115
	c-3.83,2.912-9.136,4.678-14.249,4.678c-5.358,0-10.967-1.944-14.785-5.096l-0.363-5.934c-0.031-0.507-0.357-0.948-0.834-1.125
	c-0.477-0.179-1.012-0.06-1.368,0.304l-1.784,1.82c-2.185-3.508-3.507-8.197-3.507-12.611c0-4.933,1.652-10.177,4.332-13.817
	l6.419-1.258c0.497-0.098,0.891-0.478,1.005-0.971s-0.07-1.008-0.473-1.315l-1.81-1.38c0.052-0.041,0.095-0.076,0.136-0.108
	c3.628-2.375,8.495-3.791,13.031-3.791c4.615,0,9.569,1.446,13.064,3.793l1.4,6.216c0.103,0.455,0.443,0.819,0.892,0.951
	c0.446,0.132,0.931,0.012,1.263-0.314l1.756-1.719c2.654,3.716,4.266,8.838,4.266,13.714C58.143,40.236,56.931,44.83,54.963,48.111z
	 M11.146,54.641C7.387,49.686,5.143,42.718,5.143,36c0-5.87,1.703-11.832,4.663-16.642l-0.111,2.677
	c-0.034,0.833,0.719,1.475,1.533,1.316l2.465-0.484c-2.161,3.821-3.405,8.528-3.405,13.132c0,5.572,1.822,11.33,4.873,15.402
	c0.475,0.632,1.399,0.688,1.948,0.128l0.854-0.872l0.436,7.126l-7.552-1.296l0.095-0.078C11.472,55.97,11.563,55.188,11.146,54.641z
	 M59.377,57.292c-0.511-0.493-1.325-0.479-1.818,0.031c-5.464,5.657-13.709,9.035-22.057,9.035c-6.766,0-13.669-2.34-18.914-6.276
	l2.977,0.512c0.821,0.141,1.552-0.522,1.501-1.346l-0.145-2.364c4.111,2.711,9.458,4.329,14.581,4.329
	c6.326,0,12.94-2.458,17.264-6.417c0.292-0.267,0.444-0.654,0.414-1.047c-0.031-0.396-0.24-0.755-0.568-0.973l-1.007-0.672
	l7.778-2.891l0.699,8.58L59.377,57.292z M62.118,51.099l-0.309-3.787c-0.033-0.402-0.251-0.765-0.592-0.981
	c-0.34-0.218-0.762-0.263-1.139-0.121l-1.563,0.582c1.402-3.266,2.199-7.098,2.199-10.792c0-5.958-2.192-12.269-5.722-16.471
	c-0.231-0.275-0.565-0.44-0.923-0.458c-0.357-0.018-0.707,0.115-0.963,0.366l-1.138,1.116l-1.826-8.094h8.415l-0.643,0.557
	c-0.021,0.017-0.038,0.035-0.056,0.053c-0.009,0.008-0.019,0.015-0.028,0.024c-0.516,0.488-0.538,1.303-0.051,1.818
	C62.841,20.264,65.86,28.147,65.86,36C65.86,41.237,64.494,46.645,62.118,51.099z"/>
<path fill="#5B5B5B" d="M35.502,24.422c0.688,0,1.25-0.542,1.285-1.222c0.001-0.021,0.001-0.042,0.001-0.064
	c0-0.71-0.577-1.287-1.287-1.287s-1.287,0.576-1.287,1.287c0,0.022,0,0.043,0.001,0.064C34.252,23.88,34.813,24.422,35.502,24.422z"
	/>
<path fill="#5B5B5B" d="M49.619,35.031c-0.397-5.359-3.596-9.861-8.557-12.044c-0.65-0.286-1.409,0.009-1.695,0.659
	s0.009,1.41,0.659,1.696c4.073,1.792,6.699,5.482,7.026,9.872c0.438,6.946-5.094,12.363-11.551,12.363
	c-6.315,0-11.667-5.056-11.575-11.819c0.139-4.625,2.835-8.614,7.038-10.41c0.653-0.279,0.956-1.035,0.677-1.688
	c-0.279-0.654-1.035-0.957-1.688-0.677c-5.138,2.196-8.433,7.067-8.599,12.709v0.02c-0.119,8.269,6.461,14.439,14.147,14.439
	c7.877,0,14.658-6.607,14.118-15.106C49.62,35.04,49.62,35.036,49.619,35.031z"/>
<path fill="#5B5B5B" d="M35.63,37.194c0.709,0,1.287,0.578,1.287,1.286c0,0.711-0.577,1.287-1.287,1.287
	c-0.55,0-1.143-0.346-1.67-0.974c-0.457-0.544-1.269-0.614-1.812-0.157c-0.544,0.458-0.614,1.269-0.157,1.813
	c0.688,0.817,1.496,1.389,2.353,1.677v1.5c0,0.711,0.576,1.287,1.286,1.287c0.711,0,1.287-0.576,1.287-1.287v-1.507
	c1.497-0.531,2.573-1.962,2.573-3.639c0-2.127-1.732-3.859-3.86-3.859c-0.709,0-1.286-0.577-1.286-1.287
	c0-0.708,0.577-1.286,1.286-1.286c0.456,0,0.937,0.232,1.391,0.673c0.512,0.494,1.325,0.48,1.819-0.03
	c0.494-0.51,0.481-1.325-0.03-1.819c-0.651-0.631-1.306-0.989-1.894-1.184v-1.499c0-0.709-0.576-1.286-1.287-1.286
	c-0.71,0-1.286,0.577-1.286,1.286v1.508c-1.497,0.53-2.573,1.96-2.573,3.637C31.771,35.463,33.503,37.194,35.63,37.194z"/>
</svg>
