<?xml version="1.0" encoding="utf-8"?>
<!-- Generator: Adobe Illustrator 16.0.0, SVG Export Plug-In . SVG Version: 6.00 Build 0)  -->
<!DOCTYPE svg PUBLIC "-//W3C//DTD SVG 1.1//EN" "http://www.w3.org/Graphics/SVG/1.1/DTD/svg11.dtd">
<svg version="1.1" id="Layer_1" xmlns="http://www.w3.org/2000/svg" xmlns:xlink="http://www.w3.org/1999/xlink" x="0px" y="0px"
	 width="72px" height="72px" viewBox="0 0 72 72" enable-background="new 0 0 72 72" xml:space="preserve">
<path fill="#5B5B5B" d="M67.919,58.653V20.027c0-3.042-2.475-5.517-5.518-5.517H49.158c0-7.304-5.94-13.244-13.243-13.244
	c-7.302,0-13.243,5.94-13.243,13.244H9.428c-3.042,0-5.518,2.475-5.518,5.517v38.626H1.703v5.519c0,3.044,2.476,5.519,5.519,5.519
	h57.388c3.043,0,5.519-2.475,5.519-5.519v-5.519H67.919z M49.158,16.717h13.243c1.826,0,3.312,1.485,3.312,3.311v38.626h-2.208
	V21.132c0-1.218-0.989-2.208-2.207-2.208h-12.14V16.717z M49.158,21.132h12.14v37.521H10.531V21.132h12.141v8.085l-2.208,1.187v0.92
	c0,10.458,5.72,20.033,14.928,24.991l0.523,0.282l0.523-0.282c9.208-4.958,14.927-14.534,14.927-24.992v-0.919l-15.45-8.32
	l-6.622,3.566v-4.518h13.244v2.207h6.621V21.132z M28.19,60.861h15.451v1.104c0,0.608-0.496,1.104-1.104,1.104H29.293
	c-0.607,0-1.104-0.495-1.104-1.104V60.861z M35.915,24.592l13.24,7.13c-0.14,9.29-5.171,17.776-13.24,22.359
	c-8.071-4.583-13.1-13.07-13.24-22.36L35.915,24.592z M42.537,16.717v2.207H29.293v-2.207H42.537z M29.293,14.51
	c0-3.653,2.97-6.623,6.622-6.623c3.652,0,6.622,2.97,6.622,6.623H29.293z M35.915,3.473c6.085,0,11.036,4.951,11.036,11.037v6.622
	h-2.208V14.51c0-4.868-3.96-8.83-8.828-8.83c-4.869,0-8.83,3.961-8.83,8.83v12.329l-2.207,1.188V14.51
	C24.878,8.424,29.829,3.473,35.915,3.473z M6.117,20.027c0-1.825,1.486-3.311,3.311-3.311h13.244v2.207H10.531
	c-1.217,0-2.207,0.99-2.207,2.208v37.521H6.117V20.027z M67.919,64.172c0,1.827-1.484,3.312-3.31,3.312H7.221
	c-1.825,0-3.311-1.484-3.311-3.312v-3.311h22.073v1.104c0,1.825,1.485,3.313,3.311,3.313h13.244c1.825,0,3.31-1.487,3.31-3.313
	v-1.104h22.072V64.172z"/>
<path fill="#5B5B5B" d="M33.708,38.79h4.414c1.218,0,2.208,0.989,2.208,2.206s-0.99,2.208-2.208,2.208h-4.414
	c-1.217,0-2.207-0.991-2.207-2.208h-2.208c0,2.435,1.979,4.415,4.415,4.415h1.103v2.207h2.208v-2.207h1.104
	c2.435,0,4.415-1.98,4.415-4.415s-1.98-4.414-4.415-4.414h-4.414c-1.217,0-2.207-0.99-2.207-2.208c0-1.217,0.99-2.207,2.207-2.207
	h4.414c1.218,0,2.208,0.99,2.208,2.207h2.207c0-2.434-1.98-4.415-4.415-4.415h-1.104v-2.207h-2.208v2.207h-1.103
	c-2.436,0-4.415,1.98-4.415,4.415C29.293,36.81,31.272,38.79,33.708,38.79z"/>
</svg>
