<?xml version="1.0" encoding="utf-8"?>
<!-- Generator: Adobe Illustrator 16.0.0, SVG Export Plug-In . SVG Version: 6.00 Build 0)  -->
<!DOCTYPE svg PUBLIC "-//W3C//DTD SVG 1.1//EN" "http://www.w3.org/Graphics/SVG/1.1/DTD/svg11.dtd">
<svg version="1.1" id="Layer_1" xmlns="http://www.w3.org/2000/svg" xmlns:xlink="http://www.w3.org/1999/xlink" x="0px" y="0px"
	 width="209.409px" height="200.189px" viewBox="50.694 24.674 209.409 200.189"
	 enable-background="new 50.694 24.674 209.409 200.189" xml:space="preserve">
<path fill="#F17522" d="M85.626,192.705c0-37.936,0-74.883,0-112.542c-4.846,0-9.153,0.084-13.46-0.014
	c-11.384-0.258-19.395-6.331-20.881-17.522c-0.987-7.415-0.697-15.257,0.563-22.645c1.55-9.132,9.404-15.175,18.682-15.202
	c47.722-0.142,95.445-0.142,143.167,0.011c9.229,0.028,17.08,6.167,18.543,15.342c1.207,7.601,1.381,15.659,0.288,23.266
	c-1.521,10.605-9.373,16.432-20.125,16.73c-4.333,0.123-8.675,0.021-13.558,0.021c0,9.597,0,18.799,0,28.308
	c18.458,1.387,33.969,8.52,45.001,23.89c17.942,24.999,12.405,59.646-12.378,77.719c-25.254,18.412-59.864,13.197-78.122-12.066
	c-2.867-3.97-5.733-5.496-10.624-5.416C124.022,192.884,105.311,192.705,85.626,192.705z M113.645,178.917
	c10.097,0,19.813,0,30.015,0c-1.421-6.172,0.444-12.574-6.496-16.78c-4.132-2.503-1.928-8.576,3.096-10.707
	c1.602-0.679,3.605-1.584,4.307-2.959c1.96-3.804,3.333-7.908,4.961-11.976c-24.952-1.184-35.212-9.35-35.212-27.813
	c-0.007-15.521,10.489-26.905,25.276-27.695c7.922-0.424,15.111,1.146,21.21,6.489c8.734,7.645,9.826,17.762,8.476,29.091
	c3.606-1.574,6.257-3.281,9.13-3.861c5.199-1.046,6.131-4.029,5.952-8.804c-0.358-9.575-0.104-19.175-0.104-28.768
	c0-7.545,0-15.089,0-22.531c-10.621-0.838-12.809-3.119-14.176-14.046c-18.807,0-37.623,0-56.412,0
	c-0.58,10.624-2.708,12.847-13.541,14.332c0,37.156,0,74.351,0,111.507C111.003,166.001,113.133,168.23,113.645,178.917z
	 M240.471,164.662c-0.154-23.523-18.899-42.024-42.437-41.887c-23.539,0.142-42.05,18.885-41.906,42.419
	c0.15,23.522,18.906,42.038,42.439,41.896C222.064,206.945,240.626,188.155,240.471,164.662z M141.819,122.972
	c8.293,0.104,14.495-5.985,14.521-14.254c0.029-8.024-5.797-14.104-13.761-14.354c-8.3-0.264-14.624,5.67-14.842,13.924
	C127.52,116.542,133.59,122.871,141.819,122.972z M85.461,37.626c-7.208,2.009-16.481-3.511-19.582,4.734
	c-2.346,6.237-2.065,15.361,0.931,21.212c3.396,6.63,12.071,2.228,18.65,3.172C85.461,56.868,85.461,47.83,85.461,37.626z
	 M198.597,67.183c7.21-1.943,16.464,3.493,19.568-4.707c2.362-6.23,2.104-15.353-0.877-21.208c-3.391-6.661-12.07-2.213-18.69-3.193
	C198.597,47.947,198.597,56.98,198.597,67.183z"/>
<path fill="#F17522" d="M149.761,60.848c-2.453,1.783-4.725,4.677-7.394,5.1c-3.979,0.628-7.632-2.054-6.688-6.417
	c0.572-2.652,3.758-6.401,6.021-6.586c2.533-0.205,5.35,3.057,8.042,4.807C149.751,58.785,149.756,59.816,149.761,60.848z"/>
<g>
	<path fill="#F17522" d="M171.142,189.555c-13.163-14.706-12.48-36.667,1.398-50.533c13.871-13.874,35.899-14.547,50.53-1.394
		c14.255,12.795,16.897,34.844,3.581,51.166c1.489,1.529,2.98,3.063,4.547,4.664c0.342-0.317,0.662-0.594,0.967-0.879
		c2.566-2.475,3.344-2.484,5.832,0c6.307,6.293,12.612,12.59,18.906,18.898c1.953,1.96,1.953,3.148,0.039,5.092
		c-2.223,2.247-4.456,4.479-6.707,6.711c-2.143,2.122-3.238,2.113-5.404-0.043c-5.799-5.792-11.576-11.592-17.375-17.386
		c-3.918-3.925-3.922-3.922-0.578-8.254c-1.521-1.487-3.037-2.979-4.578-4.479C206.022,206.433,183.939,203.849,171.142,189.555z
		 M224.009,164.846c-0.096-12.875-10.445-25.497-25.713-25.374c-14.229,0.125-25.321,11.328-25.31,25.55
		c0.015,15.216,12.656,25.808,25.615,25.39C212.272,190.802,224.125,178.751,224.009,164.846z"/>
	<path fill="#F17522" d="M178.73,164.943c0.083-11.359,8.648-19.749,19.842-19.734c11.848,0.006,19.629,9.801,19.713,19.625
		c0.105,10.854-9.033,20.185-19.822,19.885C188.332,184.942,178.63,176.66,178.73,164.943z M193.063,155.485
		c-1.711-1.72-3.076-1.847-4.463-0.534c-1.455,1.379-1.351,2.842,0.415,4.618c1.765,1.786,3.585,3.521,5.613,5.502
		c-1.879,1.813-3.672,3.521-5.428,5.255c-1.841,1.805-2.07,3.252-0.783,4.627c1.221,1.313,3.16,1.082,4.879-0.678
		c1.699-1.734,3.33-3.55,5.111-5.462c2.049,2.112,3.774,3.937,5.555,5.708c1.516,1.495,3.396,1.663,4.57,0.477
		c1.182-1.186,0.997-3.047-0.517-4.563c-1.765-1.774-3.597-3.489-5.699-5.521c2.099-1.975,4.093-3.723,5.938-5.625
		c1.709-1.766,1.354-4.281-0.752-4.848c-0.93-0.244-2.39,0.195-3.168,0.854c-2.022,1.701-3.803,3.703-5.896,5.802
		C196.632,159.201,194.882,157.309,193.063,155.485z"/>
</g>
</svg>
