<?xml version="1.0" encoding="utf-8"?>
<!-- Generator: Adobe Illustrator 16.0.0, SVG Export Plug-In . SVG Version: 6.00 Build 0)  -->
<!DOCTYPE svg PUBLIC "-//W3C//DTD SVG 1.1//EN" "http://www.w3.org/Graphics/SVG/1.1/DTD/svg11.dtd">
<svg version="1.1" id="Layer_1" xmlns="http://www.w3.org/2000/svg" xmlns:xlink="http://www.w3.org/1999/xlink" x="0px" y="0px"
	 width="251.178px" height="201.856px" viewBox="22.937 28.684 251.178 201.856"
	 enable-background="new 22.937 28.684 251.178 201.856" xml:space="preserve">
<path fill="#F17522" d="M238.71,137.917c21.549,13.586,34.436,31.938,35.404,58.305c-5.464,0-10.49,0-15.762,0
	c-3.023-25.775-16.919-42.301-42.395-49.109c0-5.752,0-11.43,0-17.539c14.412-4.465,24.949-12.484,24.808-29.502
	c-0.14-16.681-10.661-24.413-24.899-28.848c0-5.262,0-10.168,0-15.047c16.074-1.122,32.848,13.611,37.834,25.665
	C261.875,101.576,257.389,120.029,238.71,137.917z"/>
<path fill="#F17522" d="M80.542,147.128c-25.769,7.322-39.32,23.111-42.395,49.713c-2.398,0-4.919,0-7.438,0
	c-2.541,0-5.076,0-7.519,0c-2.043-21.366,8.198-38.789,34.361-59.188c-17.425-14.985-23.595-33.229-14.817-55.08
	c6.097-15.172,21.954-26.151,37.705-26.758c0.134,2.015,0.139,4.059,0.419,6.068c0.878,6.334-0.668,10.099-7.679,12.601
	C62.342,78.351,56.238,86.893,55.67,98.893c-0.579,12.229,4.117,22.563,15.363,26.417c10.093,3.466,10.479,9.488,9.803,17.509
	C80.724,144.097,80.66,145.382,80.542,147.128z"/>
<path fill="none" d="M125.895,78.04c-0.131,17.423,14.714,32.514,31.832,32.024c15.753,0.509,31.087-11.98,31.999-30.132
	c-3.189-17.015-16.436-30.319-33.477-33.596C138.157,47.192,126.02,62.44,125.895,78.04z M157.774,53.434
	c14.013-0.014,24.748,10.502,24.863,24.729c0.108,14.672-12.039,25.053-24.731,24.776c-13.512,0.369-24.967-11.32-24.841-24.919
	C133.176,65.713,142.923,53.439,157.774,53.434z"/>
<path fill="none" d="M116.902,113.889c1.951-2.018,3.818-3.928,5.697-5.85c-11.376-13.946-13.445-31.22-7.958-45.884
	c-5.4,7.058-8.665,15.84-8.693,25.383c-0.025,8.52,2.44,16.408,6.694,23.038c0.844,0.254,1.764,0.981,3.041,2.214
	C116.061,113.145,116.458,113.491,116.902,113.889z"/>
<path fill="none" d="M153.081,78.127c-2.639,2.538-4.92,4.695-7.142,6.915c-1.903,1.898-2.127,4.229-0.654,5.717
	c1.474,1.483,3.841,1.279,5.722-0.591c2.236-2.23,4.403-4.514,6.968-7.154c2.233,2.397,4.276,4.659,6.409,6.84
	c2.15,2.204,4.564,2.493,6.104,0.855c1.618-1.726,1.33-3.543-0.973-5.804c-2.205-2.181-4.453-4.31-6.806-6.583
	c2.537-2.488,4.811-4.663,7.033-6.893c2.205-2.223,2.336-4.06,0.516-5.783c-1.735-1.641-3.448-1.484-5.596,0.671
	c-2.27,2.286-4.463,4.651-6.728,7.029c-2.625-2.633-4.853-5.135-7.382-7.267c-0.976-0.825-2.812-1.382-3.983-1.068
	c-2.63,0.707-3.075,3.857-0.925,6.071C147.954,73.464,150.448,75.658,153.081,78.127z"/>
<path fill="none" d="M128.03,113.464c-1.92,1.878-3.826,3.751-5.724,5.606c1.414,1.831,2.306,3.028,2.736,4.02
	c6.574,4.306,14.426,6.853,22.932,6.931c9.572,0.09,18.412-3.093,25.548-8.45C158.928,126.88,141.827,124.737,128.03,113.464z"/>
<path fill="none" d="M114.767,136.453c-0.042-0.037-0.081-0.07-0.126-0.104c-0.162,0.161-0.324,0.327-0.492,0.491
	C114.364,136.71,114.555,136.578,114.767,136.453z"/>
<path fill="#F17522" d="M112.643,110.576c-4.254-6.63-6.719-14.519-6.694-23.038c0.028-9.543,3.292-18.325,8.693-25.383
	c2.561-6.838,6.753-13.115,12.43-18.217c13.437-12.074,31.84-14.809,47.566-8.578c-20.908-10.529-46.957-8.07-65.302,8.391
	C97.16,54.678,90.421,68.366,89.719,84.88c-0.598,14.013,3.049,26.006,10.27,36.299c2.804-2.796,5.593-5.597,8.396-8.389
	C110.256,110.909,111.36,110.188,112.643,110.576z"/>
<path fill="#F17522" d="M189.726,79.933c0.027-0.56,0.087-1.106,0.087-1.675c0.011-17.813-13.873-31.854-31.706-32.005
	c-0.632-0.003-1.234,0.054-1.855,0.084C173.291,49.613,186.537,62.918,189.726,79.933z"/>
<path fill="#F17522" d="M181.966,136.312c26.753-20.674,29.914-51.471,18.996-74.232c5.896,15.553,3.092,33.599-8.83,46.914
	c-5.196,5.801-11.619,10.032-18.609,12.576c-7.136,5.357-15.975,8.54-25.548,8.45c-8.506-0.078-16.358-2.625-22.932-6.931
	c0.847,1.949-0.209,3.066-3.463,6.318c-2.311,2.313-4.626,4.629-6.938,6.939c0.045,0.033,0.083,0.066,0.126,0.104
	c-0.212,0.125-0.403,0.26-0.618,0.389c-4.78,4.785-9.557,9.57-14.345,14.354c-2.541,2.544-3.93,2.666-6.306,0.479
	c-20.128,17.453-29.347,37.383-28.838,61.733c5.28,0,10.565,0,15.812,0c2.219-28.759,16.249-49.961,39.502-60.675
	c4.299-1.984,6.937-1.395,11.019,1.461c14.006,9.799,16.796,21.454,8.47,36.141c-0.747,1.33-0.974,2.948-1.474,4.424
	c-6.806,20.144-6.806,20.144,9.084,34.472c0.182,0.162,0.45,0.229,2.639,1.313c3.323-3.793,6.443-8.037,10.264-11.514
	c3.821-3.475,4.685-6.673,2.724-11.598c-3.168-7.941-4.709-16.6-8.383-24.252c-4.722-9.811-2.477-16.281,5.473-23.313
	c12.086-10.691,11.701-11.373,25.35-2.214c19.734,13.243,29.621,32.147,30.848,55.847c5.508,0,10.588,0,15.65,0
	C232.951,183.542,219.302,162.468,181.966,136.312z"/>
<path fill="#FFFFFF" d="M190.48,88.011c0.009-2.765-0.266-5.462-0.754-8.078c-0.912,18.151-16.246,30.641-31.999,30.132
	c-17.118,0.489-31.963-14.602-31.832-32.024c0.125-15.6,12.263-30.848,30.354-31.703c-2.528-0.486-5.128-0.78-7.804-0.805
	c-13.752-0.124-26.021,6.449-33.805,16.623c-5.487,14.664-3.418,31.938,7.958,45.884c-1.878,1.922-3.746,3.832-5.697,5.85
	c-0.444-0.397-0.841-0.744-1.219-1.099c-1.277-1.232-2.197-1.96-3.041-2.214c3.2,4.998,7.424,9.261,12.399,12.514
	c-0.431-0.991-1.322-2.188-2.736-4.021c1.898-1.855,3.804-3.729,5.724-5.606c13.797,11.273,30.898,13.417,45.492,8.105
	C183.748,113.899,190.436,101.734,190.48,88.011z"/>
<path fill="#FFFFFF" d="M192.186,48.777c3.519,3.944,6.451,8.45,8.776,13.302c-2.262-5.964-5.76-11.574-10.58-16.391
	c-4.643-4.64-10.018-8.061-15.744-10.328C181.097,38.613,187.087,43.067,192.186,48.777z"/>
<path fill="#FFFFFF" d="M114.641,136.348c2.312-2.312,4.626-4.628,6.938-6.94c3.254-3.25,4.31-4.369,3.463-6.316
	c-4.976-3.253-9.199-7.516-12.399-12.514c-1.283-0.388-2.387,0.333-4.257,2.214c-2.804,2.792-5.593,5.593-8.396,8.389
	C103.874,126.712,108.777,131.761,114.641,136.348z"/>
<path fill="#F17522" d="M127.071,43.938c-5.677,5.102-9.87,11.379-12.43,18.217c7.785-10.174,20.053-16.747,33.805-16.623
	c2.675,0.024,5.274,0.318,7.804,0.805c0.621-0.03,1.226-0.087,1.856-0.084c17.833,0.151,31.718,14.191,31.706,32.005
	c0,0.568-0.059,1.115-0.087,1.675c0.489,2.616,0.763,5.313,0.754,8.078c-0.044,13.724-6.733,25.889-16.958,33.559
	c6.99-2.544,13.414-6.775,18.609-12.576c11.922-13.315,14.726-31.361,8.83-46.914c-2.326-4.852-5.258-9.357-8.776-13.302
	c-5.099-5.71-11.089-10.164-17.548-13.417C158.912,29.13,140.508,31.864,127.071,43.938z"/>
<path fill="#FFFFFF" d="M157.905,102.939c12.693,0.276,24.841-10.104,24.731-24.776c-0.115-14.228-10.852-24.743-24.863-24.729
	c-14.851,0.006-24.598,12.279-24.709,24.587C132.938,91.619,144.393,103.309,157.905,102.939z M146.571,65.012
	c1.171-0.313,3.007,0.243,3.983,1.068c2.53,2.132,4.757,4.634,7.382,7.267c2.265-2.378,4.458-4.743,6.728-7.029
	c2.146-2.155,3.86-2.312,5.596-0.671c1.82,1.724,1.689,3.561-0.516,5.783c-2.223,2.229-4.496,4.404-7.033,6.893
	c2.354,2.273,4.601,4.402,6.806,6.583c2.303,2.261,2.591,4.078,0.973,5.804c-1.54,1.638-3.956,1.349-6.104-0.855
	c-2.133-2.181-4.176-4.442-6.409-6.84c-2.565,2.641-4.732,4.924-6.968,7.154c-1.881,1.87-4.249,2.074-5.722,0.591
	c-1.473-1.487-1.249-3.818,0.654-5.717c2.222-2.22,4.503-4.377,7.142-6.915c-2.633-2.469-5.126-4.663-7.435-7.044
	C143.496,68.869,143.94,65.719,146.571,65.012z"/>
<g>
	<path fill="#F17522" d="M124.472,116.223c-1.535,1.498-3.063,3-4.582,4.483c3.351,4.344,3.351,4.344-0.579,8.271
		c-5.811,5.81-11.611,11.626-17.423,17.429c-2.16,2.166-3.27,2.166-5.411,0.045c-2.245-2.232-4.492-4.473-6.726-6.73
		c-1.923-1.942-1.917-3.137,0.04-5.102c6.309-6.32,12.634-12.632,18.962-18.939c2.485-2.491,3.265-2.482,5.839,0
		c0.302,0.288,0.618,0.564,0.973,0.88c1.563-1.613,3.058-3.142,4.556-4.679c-13.35-16.358-10.703-38.453,3.581-51.286
		c14.667-13.18,36.747-12.506,50.654,1.4c13.909,13.906,14.597,35.909,1.399,50.651
		C162.921,126.973,140.801,129.561,124.472,116.223z M148.234,113.5c12.986,0.422,25.663-10.193,25.67-25.445
		c0.01-14.249-11.104-25.486-25.372-25.606c-15.301-0.125-25.668,12.526-25.769,25.431
		C122.655,101.815,134.532,113.894,148.234,113.5z"/>
	<path fill="#F17522" d="M148.376,107.801c-10.817,0.296-19.977-9.055-19.876-19.938c0.09-9.844,7.885-19.664,19.768-19.667
		c11.211-0.011,19.801,8.397,19.892,19.778C168.25,99.718,158.531,108.021,148.376,107.801z M148.398,84.122
		c-2.102-2.107-3.882-4.106-5.909-5.815c-0.78-0.657-2.245-1.103-3.184-0.854c-2.107,0.567-2.459,3.086-0.74,4.857
		c1.848,1.906,3.843,3.66,5.945,5.642c-2.108,2.026-3.936,3.754-5.713,5.528c-1.521,1.519-1.697,3.385-0.521,4.572
		c1.18,1.189,3.072,1.023,4.576-0.472c1.789-1.782,3.522-3.611,5.576-5.725c1.79,1.918,3.421,3.731,5.126,5.474
		c1.722,1.764,3.652,1.995,4.886,0.682c1.295-1.375,1.065-2.831-0.774-4.643c-1.769-1.738-3.563-3.446-5.454-5.266
		c2.032-1.991,3.854-3.727,5.629-5.515c1.767-1.779,1.871-3.243,0.414-4.627c-1.383-1.314-2.756-1.188-4.476,0.534
		C151.966,80.329,150.213,82.216,148.398,84.122z"/>
</g>
</svg>
