<?xml version="1.0" encoding="utf-8"?>
<!-- Generator: Adobe Illustrator 16.0.0, SVG Export Plug-In . SVG Version: 6.00 Build 0)  -->
<!DOCTYPE svg PUBLIC "-//W3C//DTD SVG 1.1//EN" "http://www.w3.org/Graphics/SVG/1.1/DTD/svg11.dtd">
<svg version="1.1" id="Layer_1" xmlns="http://www.w3.org/2000/svg" xmlns:xlink="http://www.w3.org/1999/xlink" x="0px" y="0px"
	 width="222.583px" height="212.839px" viewBox="45.351 15.936 222.583 212.839"
	 enable-background="new 45.351 15.936 222.583 212.839" xml:space="preserve">
<path fill="#F17522" d="M47.618,182.667c6.059-12.211,8.937-13.692,22.623-12.738c2.349,0.164,5.417-0.618,7.127-2.125
	c12.092-10.656,26.337-6.461,40.422-5.629c-10.304,6.449-20.696,12.759-30.841,19.441c-2.402,1.58-4.877,4.104-5.764,6.719
	c-3.049,8.973-7.783,13.682-15.563,14.174c-7.543,0.48-13.046-3.545-16.997-12.387c-0.2-0.449-0.667-0.777-1.008-1.158
	C47.618,186.867,47.618,184.765,47.618,182.667z"/>
<path fill="#F17522" d="M130.269,91.006c-22.383-22.894-15.781-48.549-1.772-62.247c15.757-15.41,41.355-15.695,57.713-0.867
	c17.977,16.298,17.873,39.265-0.594,63.233c18.812,11.873,30.5,28.126,30.834,51.728c-5.236,0-10.109,0-15.681,0
	c-1.526-13.964-6.465-27.165-19.45-34.228c-7.902-4.298-17.695-7.355-26.57-7.189c-21.667,0.4-36.75,17.036-39.836,41.481
	c-5.054,0-10.16,0-15.826,0C99.421,119.395,110.917,103.131,130.269,91.006z M183.035,58.599
	c-0.097-14.154-11.387-25.406-25.402-25.324c-14.292,0.087-25.311,11.669-25.11,26.396c0.187,13.792,11.167,24.768,25.003,24.987
	C171.792,84.882,183.13,73.297,183.035,58.599z"/>
<path fill="#F17522" d="M150.449,160.869c4.972,0,9.604,0,15.372,0c0,9.699-0.348,19.269,0.187,28.791
	c0.193,3.452,1.816,7.338,3.986,10.077c5.797,7.32,5.883,17.119-0.531,23.405c-6.443,6.307-16.806,6.338-23.302,0.068
	c-6.451-6.225-6.375-16.061-0.676-23.402c2.274-2.938,3.792-7.109,4.062-10.83c0.611-8.575,0.243-17.221,0.297-25.838
	C149.847,162.651,150.092,162.164,150.449,160.869z"/>
<path fill="#F17522" d="M197.763,162.147c14.494-1.101,28.965-4.765,41.294,6.081c1.868,1.645,5.847,1.574,8.729,1.24
	c9.857-1.133,17.668,4.15,19.569,13.764c1.64,8.277-4.172,16.707-12.874,18.666c-9.102,2.053-16.949-3.068-19.898-12.109
	c-1.01-3.098-3.406-6.367-6.098-8.189C218.455,174.808,208.035,168.583,197.763,162.147z"/>
<g>
	<path fill="#FFFFFF" d="M141.575,77.57c-8.093-9.037-7.67-22.531,0.86-31.054c8.524-8.529,22.063-8.942,31.055-0.858
		c8.76,7.863,10.383,21.412,2.198,31.445c0.917,0.942,1.835,1.882,2.796,2.865c0.213-0.192,0.409-0.362,0.594-0.539
		c1.58-1.521,2.057-1.526,3.586,0c3.875,3.866,7.752,7.738,11.619,11.616c1.202,1.204,1.202,1.934,0.022,3.128
		c-1.365,1.383-2.739,2.752-4.123,4.127c-1.313,1.303-1.99,1.298-3.318-0.029c-3.563-3.559-7.116-7.123-10.68-10.686
		c-2.407-2.411-2.41-2.408-0.354-5.073c-0.935-0.908-1.869-1.827-2.812-2.75C163.009,87.945,149.44,86.354,141.575,77.57z
		 M174.064,62.387c-0.059-7.912-6.417-15.671-15.799-15.594c-8.746,0.073-15.563,6.962-15.559,15.702
		c0.009,9.35,7.778,15.858,15.743,15.602C166.852,78.336,174.134,70.934,174.064,62.387z"/>
	<path fill="#FFFFFF" d="M146.236,62.444c0.052-6.979,5.317-12.134,12.198-12.129c7.278,0.005,12.06,6.027,12.114,12.063
		c0.064,6.669-5.553,12.403-12.185,12.22C152.14,74.737,146.176,69.645,146.236,62.444z M155.044,56.634
		c-1.051-1.058-1.891-1.137-2.738-0.33c-0.896,0.851-0.831,1.747,0.252,2.838c1.084,1.099,2.205,2.163,3.451,3.382
		c-1.156,1.116-2.258,2.163-3.339,3.229c-1.13,1.112-1.269,2.001-0.479,2.844c0.752,0.806,1.939,0.666,2.998-0.416
		c1.046-1.064,2.048-2.181,3.139-3.355c1.264,1.298,2.323,2.416,3.418,3.507c0.93,0.919,2.084,1.02,2.808,0.293
		c0.728-0.729,0.614-1.873-0.316-2.805c-1.087-1.09-2.212-2.145-3.503-3.394c1.289-1.213,2.516-2.288,3.646-3.456
		c1.054-1.084,0.838-2.628-0.457-2.977c-0.573-0.152-1.469,0.118-1.949,0.522c-1.244,1.047-2.335,2.275-3.624,3.566
		C157.239,58.917,156.164,57.757,155.044,56.634z"/>
</g>
<g>
	<path fill="#F17522" d="M141.575,74.223c-8.093-9.037-7.67-22.533,0.86-31.057c8.524-8.529,22.063-8.942,31.055-0.857
		c8.76,7.863,10.383,21.414,2.198,31.444c0.917,0.944,1.835,1.882,2.796,2.867c0.213-0.194,0.409-0.362,0.594-0.541
		c1.58-1.521,2.057-1.523,3.586,0c3.875,3.869,7.752,7.738,11.619,11.618c1.202,1.204,1.202,1.934,0.022,3.126
		c-1.365,1.384-2.739,2.753-4.123,4.127c-1.313,1.303-1.99,1.298-3.318-0.029c-3.563-3.559-7.116-7.123-10.68-10.683
		c-2.407-2.414-2.41-2.411-0.354-5.073c-0.935-0.911-1.869-1.83-2.812-2.753C163.009,84.595,149.44,83.005,141.575,74.223z
		 M174.064,59.036c-0.059-7.912-6.417-15.671-15.799-15.592c-8.746,0.074-15.563,6.961-15.559,15.7
		c0.009,9.35,7.778,15.861,15.743,15.604C166.852,74.988,174.134,67.583,174.064,59.036z"/>
	<path fill="#F17522" d="M146.236,59.096c0.052-6.979,5.317-12.135,12.198-12.131c7.278,0.005,12.06,6.026,12.114,12.063
		c0.064,6.671-5.553,12.404-12.185,12.22C152.14,71.387,146.176,66.294,146.236,59.096z M155.044,53.284
		c-1.051-1.056-1.891-1.136-2.738-0.328c-0.896,0.85-0.831,1.747,0.252,2.838c1.084,1.096,2.205,2.163,3.451,3.382
		c-1.156,1.113-2.258,2.163-3.339,3.229c-1.13,1.11-1.269,1.999-0.479,2.844c0.752,0.806,1.939,0.666,2.998-0.416
		c1.046-1.066,2.048-2.181,3.139-3.356c1.264,1.298,2.323,2.418,3.418,3.508c0.93,0.917,2.084,1.021,2.808,0.291
		c0.728-0.727,0.614-1.873-0.316-2.805c-1.087-1.088-2.212-2.145-3.503-3.394c1.289-1.21,2.516-2.284,3.646-3.453
		c1.054-1.086,0.838-2.632-0.457-2.979c-0.573-0.15-1.469,0.119-1.949,0.523c-1.244,1.046-2.335,2.276-3.624,3.565
		C157.239,55.57,156.164,54.406,155.044,53.284z"/>
</g>
</svg>
