<?xml version="1.0" encoding="utf-8"?>
<!-- Generator: Adobe Illustrator 16.0.0, SVG Export Plug-In . SVG Version: 6.00 Build 0)  -->
<!DOCTYPE svg PUBLIC "-//W3C//DTD SVG 1.1//EN" "http://www.w3.org/Graphics/SVG/1.1/DTD/svg11.dtd">
<svg version="1.1" id="Layer_1" xmlns="http://www.w3.org/2000/svg" xmlns:xlink="http://www.w3.org/1999/xlink" x="0px" y="0px"
	 width="190.006px" height="188.398px" viewBox="53.858 33.693 190.006 188.398"
	 enable-background="new 53.858 33.693 190.006 188.398" xml:space="preserve">
<path fill="none" d="M219.343,49.62c-32.119-0.002-64.235-0.002-96.351,0.006c-6.823,0-8.976,2.182-8.979,9.081
	c-0.006,18.294-0.002,36.588-0.003,54.885c0,18.533-0.008,37.068,0.006,55.603c0.003,6.064,2.363,8.407,8.4,8.407
	c32.356,0,64.712,0,97.069,0c5.794-0.002,8.302-2.515,8.302-8.315c0.002-37.07,0.002-74.139,0-111.21
	C227.789,52.14,225.274,49.624,219.343,49.62z M206.005,156.115c-7.821,0.03-15.643,0.014-23.461,0.014
	c-15.482,0-30.965-0.012-46.448,0.013c-1.928,0.005-3.534-0.382-4.086-2.476c-0.669-2.537,0.926-4.383,3.818-4.389
	c11.651-0.021,23.302-0.01,34.957-0.01c11.649,0,23.301-0.01,34.954,0.005c2.931,0.005,4.167,1.204,3.996,3.771
	C209.597,155.123,208.484,156.104,206.005,156.115z M205.56,134.896c-11.572,0.02-23.143,0.01-34.715,0.01
	c-11.492,0-22.983,0.008-34.475-0.006c-2.912-0.004-4.3-1.039-4.42-3.232c-0.107-1.947,0.765-3.215,2.681-3.664
	c0.611-0.144,1.263-0.164,1.895-0.164c22.905-0.008,45.808-0.012,68.709-0.002c3.078,0,4.435,1.061,4.507,3.396
	C209.819,133.731,208.553,134.891,205.56,134.896z M205.812,113.647c-5.74,0.055-11.482,0.017-17.227,0.017
	c-5.662,0.002-11.324,0.007-16.986,0c-2.001-0.005-3.661-0.595-4.124-2.815c-0.517-2.48,1.022-4.199,3.812-4.216
	c6.219-0.028,12.44-0.01,18.66-0.01c5.264,0,10.527-0.014,15.793,0.005c2.752,0.01,3.945,1.022,4.016,3.308
	C209.824,112.292,208.501,113.623,205.812,113.647z M167.419,88.714c0.033-2.248,1.252-3.339,4.002-3.346
	c11.506-0.029,23.01-0.031,34.513,0c2.685,0.01,3.856,1.166,3.815,3.501c-0.043,2.306-1.244,3.372-3.957,3.382
	c-5.672,0.025-11.344,0.01-17.018,0.01c-5.752,0-11.504,0.014-17.255-0.008C168.768,92.243,167.382,91.015,167.419,88.714z
	 M205.847,70.92c-11.428,0.042-22.855,0.042-34.281,0.009c-2.893-0.009-4.167-1.171-4.148-3.494c0.018-2.274,1.41-3.446,4.195-3.456
	c5.676-0.014,11.348-0.005,17.021-0.005c5.671,0,11.346-0.014,17.021,0.005c2.837,0.01,4.101,1.117,4.101,3.499
	C209.755,69.768,208.578,70.91,205.847,70.92z"/>
<path fill="none" d="M78.286,85.501c-5.199,1.808-6.947,5.598-5.062,10.76c7.159,19.607,14.303,39.215,21.462,58.819
	c1.569,4.293,3.173,8.574,4.763,12.86c0.113-0.03,0.227-0.063,0.339-0.101c0-29.766,0-59.534,0-89.612
	c-0.716,0.196-1.172,0.296-1.609,0.444C91.546,80.942,84.907,83.197,78.286,85.501z"/>
<path fill="none" d="M149.339,191.61c-9.424,0-18.849-0.065-28.272,0.027c-5.465,0.055-10.644-0.644-15.308-4.146
	c1.38,3.954,2.745,7.911,4.148,11.857c1.865,5.253,5.565,6.951,10.735,4.936c8.532-3.328,17.061-6.666,25.588-10.009
	c1.784-0.7,3.552-1.437,5.327-2.159c-0.047-0.166-0.096-0.337-0.146-0.507C150.721,191.61,150.03,191.61,149.339,191.61z"/>
<path fill="#F17522" d="M205.234,127.835c-22.902-0.01-45.805-0.004-68.709,0.002c-0.632,0-1.283,0.021-1.895,0.166
	c-1.916,0.449-2.788,1.715-2.681,3.662c0.121,2.194,1.508,3.229,4.42,3.233c11.492,0.013,22.983,0.006,34.474,0.006
	c11.572,0,23.144,0.009,34.716-0.01c2.993-0.005,4.26-1.164,4.183-3.664C209.667,128.896,208.313,127.835,205.234,127.835z"/>
<path fill="#F17522" d="M205.739,149.272c-11.653-0.015-23.305-0.005-34.954-0.005c-11.654,0-23.306-0.012-34.957,0.01
	c-2.893,0.006-4.488,1.852-3.818,4.389c0.553,2.094,2.159,2.479,4.086,2.476c15.482-0.022,30.965-0.013,46.448-0.013
	c7.82,0,15.641,0.018,23.461-0.014c2.479-0.012,3.591-0.992,3.729-3.07C209.906,150.477,208.669,149.277,205.739,149.272z"/>
<path fill="#F17522" d="M205.739,106.628c-5.266-0.019-10.528-0.005-15.793-0.005c-6.22,0-12.44-0.019-18.661,0.01
	c-2.787,0.017-4.326,1.735-3.811,4.216c0.463,2.221,2.123,2.811,4.124,2.815c5.661,0.007,11.323,0.002,16.987,0
	c5.742,0,11.485,0.038,17.226-0.017c2.69-0.024,4.013-1.355,3.942-3.712C209.684,107.65,208.492,106.638,205.739,106.628z"/>
<path fill="#F17522" d="M205.655,63.979c-5.674-0.019-11.349-0.005-17.021-0.005c-5.674,0-11.348-0.009-17.021,0.005
	c-2.787,0.01-4.179,1.182-4.195,3.456c-0.018,2.323,1.258,3.485,4.148,3.494c11.426,0.033,22.854,0.033,34.281-0.009
	c2.73-0.01,3.908-1.152,3.908-3.442C209.755,65.096,208.492,63.988,205.655,63.979z"/>
<path fill="#F17522" d="M171.52,92.253c5.751,0.021,11.503,0.008,17.255,0.008c5.674,0,11.346,0.016,17.018-0.01
	c2.713-0.01,3.914-1.076,3.957-3.382c0.041-2.335-1.131-3.491-3.815-3.501c-11.502-0.031-23.006-0.029-34.513,0
	c-2.75,0.007-3.969,1.098-4.002,3.346C167.382,91.015,168.768,92.243,171.52,92.253z"/>
<path fill="none" d="M87.447,128.998c3.395,4.393,3.764,4.893,0.672,8.082c2.189,6,4.376,12.002,6.567,18
	c1.569,4.293,3.173,8.574,4.763,12.86c0.113-0.03,0.227-0.063,0.339-0.101c0-13.047,0-26.104,0-39.178
	c-2.451-1.33-4.835-2.918-7.118-4.783C90.921,125.593,89.181,127.298,87.447,128.998z"/>
<path fill="none" d="M151.143,119.806c-9.486,10.592-23.424,15.548-37.131,13.581c0,11.937-0.004,23.872,0.005,35.808
	c0.003,6.064,2.363,8.407,8.4,8.407c32.356,0,64.713,0,97.069,0c5.794-0.002,8.303-2.515,8.303-8.315
	c0.002-37.07,0.002-74.139,0-111.21c0-5.936-2.514-8.451-8.444-8.455c-32.119-0.002-64.235-0.002-96.351,0.006
	c-0.631,0-1.208,0.023-1.761,0.064c10.285,0.351,20.448,4.5,28.316,12.367C165.402,77.909,166.19,102.998,151.143,119.806z"/>
<path fill="none" d="M78.267,85.509c-5.185,1.812-6.924,5.595-5.042,10.752c3.324,9.105,6.645,18.208,9.966,27.313
	c1.542-1.583,3.035-3.113,4.525-4.643C79.45,108.805,76.573,96.753,78.267,85.509z"/>
<path fill="none" d="M119.802,69.121c12.787-0.009,22.575,9.579,22.677,22.561c0.105,13.389-10.98,22.852-22.554,22.596
	c-2.039,0.056-4.019-0.212-5.915-0.717c0,0.01,0,0.02,0,0.031c0,2.237,0,4.475,0,6.711c1.87,0.368,3.795,0.535,5.753,0.478
	c14.81,0.479,29.258-11.623,29.269-29.01c0.01-16.249-12.66-29.059-28.928-29.194c-2.117-0.017-4.15,0.185-6.092,0.568
	c0,2.244,0,4.491,0,6.737C115.833,69.409,117.758,69.124,119.802,69.121z"/>
<path fill="none" d="M125.828,102.346c1.967,2.013,4.17,2.271,5.573,0.773c1.473-1.569,1.214-3.226-0.883-5.29
	c-2.015-1.979-4.062-3.927-6.216-6.007c2.317-2.263,4.396-4.246,6.419-6.284c2.013-2.029,2.131-3.699,0.467-5.28
	c-1.575-1.495-3.142-1.347-5.096,0.618c-2.075,2.083-4.074,4.243-6.143,6.408c-2.109-2.116-3.948-4.126-5.938-5.912
	c0,2.959,0,5.915,0,8.871c0.498,0.462,1,0.926,1.509,1.405c-0.519,0.499-1.017,0.977-1.509,1.448c0,3.05-0.001,6.099-0.001,9.148
	c1.904-1.907,3.779-3.882,5.979-6.142C122.025,98.287,123.884,100.359,125.828,102.346z"/>
<path fill="none" d="M99.789,112.731c0-3.584,0-7.162,0-10.754c-1.629-3.154-2.559-6.706-2.525-10.423
	c0.031-3.493,0.916-6.985,2.525-10.135c0-1.066,0-2.127,0-3.192c-0.716,0.196-1.172,0.296-1.609,0.444
	c-1.701,0.583-3.398,1.169-5.099,1.749c-1.5,3.532-2.325,7.33-2.354,11.148C90.663,99.731,94.211,107.329,99.789,112.731z"/>
<path fill="none" d="M149.339,191.61c-9.424,0-18.849-0.065-28.272,0.027c-5.465,0.055-10.644-0.644-15.308-4.146
	c1.38,3.954,2.745,7.911,4.148,11.857c1.865,5.253,5.565,6.951,10.735,4.936c8.532-3.328,17.061-6.666,25.588-10.009
	c1.784-0.7,3.552-1.437,5.327-2.159c-0.047-0.166-0.096-0.337-0.146-0.507C150.721,191.61,150.03,191.61,149.339,191.61z"/>
<path fill="#F17522" d="M241.759,56.437c-0.028-11.48-9.072-20.749-20.395-20.768c-34.115-0.06-68.228-0.081-102.342,0.023
	c-7.912,0.024-13.611,3.987-16.993,11.16c-1.185,2.515-1.767,5.14-2.011,7.811c6.622-3.573,13.947-5.222,21.212-4.973
	c0.553-0.041,1.13-0.064,1.761-0.064c32.116-0.008,64.232-0.008,96.351-0.006c5.931,0.004,8.443,2.52,8.443,8.455
	c0.002,37.072,0.002,74.141,0,111.209c0,5.803-2.508,8.314-8.302,8.316c-32.356,0-64.713,0-97.069,0c-6.037,0-8.396-2.342-8.4-8.407
	c-0.009-11.937-0.005-23.872-0.005-35.808c-4.838-0.694-9.649-2.246-14.223-4.725c0,13.074,0,26.131,0,39.178
	c-0.112,0.035-0.226,0.068-0.339,0.101c-1.589-4.286-3.194-8.567-4.763-12.86c-2.191-5.998-4.378-12-6.567-18
	c-0.392,0.403-0.83,0.844-1.333,1.348c-3.463,3.464-6.927,6.929-10.389,10.395c6.85,18.91,13.718,37.818,20.616,56.713
	c0.991,2.713,2.582,5.33,4.393,7.596c3.66,4.576,13.621,8.509,19.68,6.127c23.428-9.205,46.984-18.086,70.505-27.043
	c1.086-0.414,2.324-0.565,3.494-0.573c8.944-0.058,17.896,0.086,26.84-0.097c11.929-0.24,19.842-8.444,19.847-20.303
	c0.005-18.934,0.003-37.869,0-56.804C241.771,95.104,241.807,75.771,241.759,56.437z M146.23,194.276
	c-8.527,3.343-17.056,6.681-25.588,10.009c-5.17,2.016-8.87,0.317-10.735-4.936c-1.403-3.946-2.768-7.903-4.148-11.857
	c4.664,3.502,9.843,4.2,15.308,4.146c9.423-0.095,18.848-0.027,28.272-0.027c0.691,0,1.382,0,2.072,0
	c0.05,0.17,0.099,0.341,0.146,0.507C149.783,192.839,148.015,193.576,146.23,194.276z"/>
<path fill="#F17522" d="M81.412,123.261c0.342,0.332,0.704,0.646,1.101,1.006c0.231-0.234,0.45-0.46,0.677-0.693
	c-3.321-9.105-6.642-18.207-9.966-27.313c-1.882-5.157-0.143-8.94,5.042-10.752c0.953-6.33,3.352-12.4,7.066-17.73
	c-4.375,1.559-8.74,3.142-13.087,4.772c-11.605,4.353-17.369,16.677-13.179,28.301c3.361,9.327,6.738,18.653,10.108,27.979
	c1.859-1.857,3.714-3.715,5.573-5.572C77.589,120.425,78.474,120.432,81.412,123.261z"/>
<path fill="#FFFFFF" d="M109.003,97.958c-1.73,1.728-1.932,3.857-0.587,5.21c1.344,1.356,3.497,1.171,5.216-0.542
	c0.126-0.127,0.253-0.257,0.379-0.381c0-3.05,0.001-6.099,0.001-9.148C112.228,94.813,110.594,96.369,109.003,97.958z"/>
<path fill="#FFFFFF" d="M113.216,80.655c-0.89-0.75-2.561-1.257-3.632-0.971c-2.403,0.646-2.805,3.519-0.846,5.535
	c1.659,1.712,3.428,3.322,5.274,5.023c0-2.956,0-5.912,0-8.871C113.747,81.133,113.488,80.885,113.216,80.655z"/>
<path fill="#FFFFFF" d="M114.012,90.243c0,0.951,0,1.902,0,2.854c0.492-0.472,0.99-0.949,1.509-1.448
	C115.012,91.169,114.51,90.705,114.012,90.243z"/>
<g>
	<path fill="#F17522" d="M94.984,121.191c-1.617,1.585-3.225,3.159-4.828,4.73c3.534,4.576,3.532,4.574-0.61,8.718
		c-6.12,6.12-12.233,12.25-18.358,18.366c-2.281,2.281-3.448,2.283-5.701,0.047c-2.371-2.356-4.739-4.713-7.088-7.088
		c-2.026-2.051-2.025-3.311,0.039-5.377c6.65-6.668,13.314-13.316,19.98-19.97c2.626-2.619,3.443-2.612,6.16,0.002
		c0.318,0.309,0.652,0.596,1.02,0.93c1.655-1.699,3.227-3.312,4.807-4.932c-14.071-17.241-11.28-40.527,3.772-54.05
		c15.458-13.892,38.728-13.182,53.387,1.475c14.657,14.652,15.387,37.849,1.475,53.383
		C135.513,132.527,112.198,135.253,94.984,121.191z M120.029,118.328c13.69,0.444,27.046-10.744,27.057-26.818
		c0.008-15.02-11.703-26.862-26.741-26.986c-16.126-0.133-27.054,13.202-27.158,26.8
		C93.073,106.014,105.589,118.739,120.029,118.328z"/>
	<path fill="#F17522" d="M120.179,112.316c-11.398,0.314-21.053-9.541-20.95-21.005c0.095-10.379,8.311-20.727,20.836-20.736
		c11.819-0.01,20.868,8.854,20.962,20.854C141.125,103.803,130.878,112.553,120.179,112.316z M120.201,87.364
		c-2.21-2.216-4.089-4.329-6.226-6.128c-0.823-0.693-2.367-1.164-3.357-0.898c-2.221,0.595-2.592,3.253-0.781,5.118
		c1.946,2.008,4.056,3.859,6.27,5.939c-2.218,2.146-4.148,3.962-6.022,5.833c-1.601,1.599-1.788,3.568-0.546,4.82
		c1.244,1.253,3.234,1.078,4.824-0.504c1.881-1.872,3.708-3.798,5.875-6.029c1.883,2.021,3.6,3.934,5.399,5.771
		c1.818,1.859,3.854,2.101,5.151,0.715c1.362-1.451,1.122-2.983-0.817-4.891c-1.862-1.83-3.753-3.63-5.745-5.554
		c2.142-2.091,4.063-3.924,5.933-5.808c1.862-1.878,1.971-3.422,0.433-4.88c-1.456-1.386-2.906-1.247-4.711,0.569
		C123.962,83.365,122.114,85.363,120.201,87.364z"/>
</g>
</svg>
