<?xml version="1.0" encoding="utf-8"?>
<!-- Generator: Adobe Illustrator 16.0.0, SVG Export Plug-In . SVG Version: 6.00 Build 0)  -->
<!DOCTYPE svg PUBLIC "-//W3C//DTD SVG 1.1//EN" "http://www.w3.org/Graphics/SVG/1.1/DTD/svg11.dtd">
<svg version="1.1" id="Layer_1" xmlns="http://www.w3.org/2000/svg" xmlns:xlink="http://www.w3.org/1999/xlink" x="0px" y="0px"
	 width="72px" height="72px" viewBox="0 0 72 72" enable-background="new 0 0 72 72" xml:space="preserve">
<path fill="#5B5B5B" stroke="#5B5B5B" stroke-width="2" stroke-miterlimit="10" d="M6.954,62.808h18.181
	c0.479,4.434,4.26,7.682,8.999,7.682h0.147c4.742,0,8.521-3.248,9-7.682h18.18c0.324-0.01,0.618-0.191,0.772-0.476
	c0.155-0.283,0.149-0.631-0.017-0.908l-3.674-5.984c-1.668-2.726-2.746-5.77-3.168-8.937c8.286-1.656,13.964-9.327,13.132-17.735
	c-0.832-8.409-7.905-14.816-16.355-14.816c-1.726-0.002-3.442,0.272-5.083,0.812c-1.708-1.309-3.597-2.362-5.605-3.129V9.392
	c0-3.998-3.24-7.238-7.238-7.238c-3.998,0-7.238,3.24-7.238,7.238v2.245c-8.272,3.13-13.742,11.054-13.737,19.898V43.52
	c-0.002,4.206-1.169,8.331-3.374,11.916l-3.675,5.978c-0.168,0.282-0.176,0.631-0.02,0.919C6.336,62.618,6.63,62.8,6.954,62.808z
	 M34.282,68.718h-0.147c-3.741,0-6.739-2.511-7.213-5.91h14.573C41.021,66.207,38.024,68.718,34.282,68.718z M66.814,30.384
	c0,7.422-5.548,13.674-12.918,14.558c-7.369,0.883-14.237-3.881-15.99-11.094c-1.754-7.213,2.159-14.599,9.113-17.198
	c0.121-0.017,0.237-0.059,0.341-0.123c4.481-1.549,9.435-0.836,13.298,1.915C64.521,21.193,66.814,25.642,66.814,30.384z
	 M28.761,9.392c0-3.018,2.447-5.465,5.465-5.465c3.019,0,5.464,2.447,5.464,5.465v1.678c-3.579-0.967-7.351-0.967-10.93,0V9.392z
	 M11.388,56.385c2.377-3.871,3.635-8.323,3.636-12.865V31.534c0-10.707,8.606-19.418,19.191-19.418
	c3.896,0.004,7.701,1.197,10.9,3.421c-6.945,3.292-10.681,10.958-8.994,18.456c1.688,7.498,8.348,12.826,16.032,12.826
	c0.495,0,0.985-0.023,1.469-0.067c0.457,3.413,1.619,6.693,3.412,9.633l2.843,4.651H8.54L11.388,56.385z"/>
<path fill="#5B5B5B" stroke="#5B5B5B" stroke-width="2" stroke-miterlimit="10" d="M52.152,31.179c1.647,0,2.981,1.334,2.981,2.98
	c0,1.646-1.334,2.981-2.981,2.981c-1.646,0-2.979-1.335-2.979-2.981c0-0.489-0.397-0.886-0.888-0.886
	c-0.488,0-0.886,0.396-0.886,0.886c0.003,2.262,1.597,4.208,3.813,4.659v1.392c0,0.489,0.396,0.887,0.885,0.887
	c0.49,0,0.886-0.397,0.886-0.887v-1.37c2.427-0.433,4.12-2.645,3.904-5.098c-0.217-2.454-2.271-4.335-4.735-4.335
	c-1.646,0-2.979-1.334-2.979-2.98c0-1.647,1.334-2.981,2.979-2.981c1.647,0,2.981,1.334,2.981,2.981
	c0,0.489,0.396,0.886,0.887,0.886c0.488,0,0.885-0.396,0.885-0.886c-0.002-2.303-1.653-4.273-3.922-4.679v-1.331
	c0-0.489-0.396-0.886-0.886-0.886c-0.488,0-0.885,0.397-0.885,0.886v1.351c-2.395,0.483-4.033,2.702-3.79,5.132
	C47.666,29.329,49.711,31.179,52.152,31.179z"/>
</svg>
