<?xml version="1.0" encoding="utf-8"?>
<!-- Generator: Adobe Illustrator 16.0.0, SVG Export Plug-In . SVG Version: 6.00 Build 0)  -->
<!DOCTYPE svg PUBLIC "-//W3C//DTD SVG 1.1//EN" "http://www.w3.org/Graphics/SVG/1.1/DTD/svg11.dtd">
<svg version="1.1" id="Layer_1" xmlns="http://www.w3.org/2000/svg" xmlns:xlink="http://www.w3.org/1999/xlink" x="0px" y="0px"
	 width="72px" height="72px" viewBox="0 0 72 72" enable-background="new 0 0 72 72" xml:space="preserve">
<path fill="#5B5B5B" d="M53.075,50.077c-0.649,0-1.174,0.527-1.174,1.174v3.52H15.534c-0.648,0-1.174,0.525-1.174,1.174
	c0,0.646,0.525,1.174,1.174,1.174h36.368v8.212c0,1.942-1.575,3.52-3.52,3.52H15.534c-1.944,0-3.52-1.577-3.52-3.52V6.67
	c0-1.943,1.575-3.52,3.52-3.52h32.848c1.944,0,3.52,1.577,3.52,3.52v7.04c0,0.647,0.524,1.172,1.174,1.172
	c0.648,0,1.173-0.525,1.173-1.172V6.67c0-3.238-2.626-5.865-5.866-5.865H15.534c-3.24,0-5.867,2.627-5.867,5.865v58.66
	c0,3.238,2.627,5.865,5.867,5.865h32.848c3.24,0,5.866-2.627,5.866-5.865V51.251C54.248,50.604,53.724,50.077,53.075,50.077z"/>
<path fill="#5B5B5B" d="M36.65,61.81c0.649,0,1.174-0.525,1.174-1.173c0-0.648-0.525-1.173-1.174-1.173h-9.384
	c-1.296,0-2.347,1.05-2.347,2.346v2.347c0,1.296,1.051,2.346,2.347,2.346h9.384c0.649,0,1.174-0.524,1.174-1.172
	c0-0.648-0.525-1.174-1.174-1.174h-9.384V61.81H36.65z"/>
<path fill="#5B5B5B" d="M53.075,38.346c-1.296,0-2.346-1.05-2.346-2.346c0-0.648-0.527-1.174-1.174-1.174
	c-0.648,0-1.174,0.525-1.174,1.174c0.007,2.135,1.453,3.995,3.52,4.528v1.338c0,0.647,0.524,1.173,1.174,1.173
	c0.648,0,1.173-0.525,1.173-1.173v-1.338c2.26-0.613,3.722-2.799,3.426-5.12c-0.296-2.323-2.258-4.073-4.599-4.101
	c-1.296,0-2.346-1.05-2.346-2.346c0-1.296,1.05-2.347,2.346-2.347c1.295,0,2.346,1.051,2.346,2.347c0,0.647,0.526,1.172,1.173,1.172
	c0.649,0,1.174-0.525,1.174-1.172c-0.007-2.135-1.453-3.995-3.52-4.529v-1.338c0-0.647-0.524-1.172-1.173-1.172
	c-0.649,0-1.174,0.525-1.174,1.172v1.338c-2.26,0.613-3.721,2.799-3.426,5.121c0.297,2.323,2.258,4.073,4.6,4.101
	c1.295,0,2.346,1.05,2.346,2.346C55.421,37.296,54.37,38.346,53.075,38.346z"/>
<path fill="#5B5B5B" d="M53.075,17.229c-4.954-0.003-9.601,2.401-12.46,6.447c-2.861,4.044-3.578,9.226-1.924,13.896
	c0.217,0.611,0.889,0.933,1.502,0.716c0.612-0.218,0.933-0.891,0.716-1.502c-0.491-1.382-0.742-2.838-0.74-4.306
	c0.003-6.156,4.353-11.455,10.393-12.654C56.6,18.629,62.646,21.861,65,27.549c2.354,5.689,0.361,12.249-4.759,15.667
	c-5.12,3.42-11.941,2.746-16.294-1.609c-0.466-0.396-1.159-0.371-1.593,0.063c-0.433,0.434-0.459,1.127-0.061,1.593
	c4.88,4.883,12.433,5.879,18.411,2.428c5.979-3.452,8.894-10.49,7.105-17.158S59.979,17.227,53.075,17.229z"/>
<path fill="#5B5B5B" d="M26.092,23.095h8.212c0.647,0,1.174-0.525,1.174-1.172c0-0.648-0.527-1.173-1.174-1.173h-7.039v-1.174
	c-0.001-0.451-0.261-0.861-0.668-1.056c-0.405-0.192-0.883-0.136-1.233,0.142l-5.865,4.692c-0.278,0.223-0.438,0.559-0.438,0.915
	c0,0.356,0.161,0.693,0.438,0.916l5.865,4.691c0.208,0.167,0.463,0.257,0.728,0.258c0.175,0.004,0.348-0.037,0.505-0.116
	c0.407-0.194,0.667-0.604,0.668-1.056v-1.174h7.039c0.647,0,1.174-0.525,1.174-1.173c0-0.647-0.527-1.172-1.174-1.172h-8.212
	c-0.613-0.003-1.124,0.468-1.173,1.079l-2.816-2.252l2.816-2.252C24.968,22.626,25.479,23.098,26.092,23.095z"/>
<path fill="#5B5B5B" d="M27.934,44.095c0.156,0.081,0.329,0.12,0.503,0.117c0.266-0.001,0.521-0.092,0.728-0.258l5.865-4.693
	c0.278-0.223,0.44-0.559,0.44-0.915c0-0.354-0.162-0.692-0.44-0.914l-5.865-4.693c-0.351-0.278-0.829-0.333-1.231-0.14
	c-0.408,0.193-0.668,0.604-0.668,1.056v1.172h-7.041c-0.647,0-1.172,0.525-1.172,1.174s0.525,1.174,1.172,1.174h8.212
	c0.613,0.001,1.124-0.469,1.174-1.08l2.815,2.252L29.611,40.6c-0.05-0.612-0.561-1.082-1.174-1.08h-8.212
	c-0.647,0-1.172,0.525-1.172,1.174c0,0.646,0.525,1.173,1.172,1.173h7.041v1.173C27.266,43.49,27.526,43.9,27.934,44.095z"/>
<path fill="#5B5B5B" d="M19.053,7.843c0,0.649-0.525,1.174-1.174,1.174s-1.173-0.525-1.173-1.174c0-0.647,0.525-1.173,1.173-1.173
	S19.053,7.196,19.053,7.843z"/>
<path fill="#5B5B5B" d="M23.745,7.843c0,0.649-0.525,1.174-1.172,1.174c-0.648,0-1.173-0.525-1.173-1.174
	c0-0.647,0.525-1.173,1.173-1.173C23.22,6.67,23.745,7.196,23.745,7.843z"/>
<path fill="#5B5B5B" d="M42.517,16.056c0-0.647-0.525-1.173-1.174-1.173h-7.039c-0.648,0-1.173,0.526-1.173,1.173
	c0,0.649,0.525,1.174,1.173,1.174h7.039C41.991,17.229,42.517,16.705,42.517,16.056z"/>
<path fill="#5B5B5B" d="M30.785,50.077h8.212c0.647,0,1.172-0.524,1.172-1.172c0-0.648-0.524-1.174-1.172-1.174h-8.212
	c-0.648,0-1.173,0.525-1.173,1.174C29.611,49.553,30.136,50.077,30.785,50.077z"/>
</svg>
