<?xml version="1.0" encoding="utf-8"?>
<!-- Generator: Adobe Illustrator 16.0.0, SVG Export Plug-In . SVG Version: 6.00 Build 0)  -->
<!DOCTYPE svg PUBLIC "-//W3C//DTD SVG 1.1//EN" "http://www.w3.org/Graphics/SVG/1.1/DTD/svg11.dtd">
<svg version="1.1" id="Layer_1" xmlns="http://www.w3.org/2000/svg" xmlns:xlink="http://www.w3.org/1999/xlink" x="0px" y="0px"
	 width="72px" height="72px" viewBox="0 0 72 72" enable-background="new 0 0 72 72" xml:space="preserve">
<g>
	<circle fill="#5B5B5B" cx="41.616" cy="50.212" r="1.323"/>
	<circle fill="#5B5B5B" cx="36.322" cy="36.977" r="1.324"/>
	<circle fill="#5B5B5B" cx="36.322" cy="50.212" r="1.323"/>
	<circle fill="#5B5B5B" cx="31.028" cy="50.212" r="1.323"/>
	<path fill="#5B5B5B" d="M36.322,3.097c-18.269,0-33.88,15.579-33.88,33.879v2.648c0,0.73,0.592,1.323,1.324,1.323h5.049
		c0.312,2.156,0.886,4.279,1.713,6.338l-3.699,2.135c-0.304,0.175-0.526,0.465-0.616,0.803c-0.091,0.339-0.044,0.7,0.132,1.004
		l2.646,4.585c0.365,0.634,1.175,0.851,1.807,0.485l3.708-2.142c1.359,1.725,2.912,3.277,4.635,4.637l-2.14,3.708
		c-0.366,0.632-0.149,1.442,0.485,1.807l4.584,2.648c0.632,0.364,1.441,0.147,1.807-0.485l2.136-3.698
		c2.058,0.826,4.181,1.401,6.337,1.712v5.05c0,0.73,0.592,1.323,1.322,1.323h5.295c0.73,0,1.323-0.593,1.323-1.323v-5.05
		c2.156-0.312,4.281-0.886,6.338-1.712l2.135,3.698c0.366,0.632,1.176,0.85,1.807,0.483l4.586-2.646
		c0.633-0.364,0.85-1.175,0.484-1.807l-2.141-3.709c1.724-1.358,3.276-2.911,4.637-4.636l3.708,2.141
		c0.631,0.366,1.441,0.149,1.807-0.484l2.647-4.585c0.365-0.631,0.148-1.441-0.484-1.807l-3.699-2.135
		c0.827-2.059,1.401-4.182,1.713-6.338h5.049c0.73,0,1.324-0.594,1.324-1.323v-2.648C70.203,18.726,54.638,3.097,36.322,3.097
		L36.322,3.097z M8.775,22.602l3.962,2.287c0.63,0.364,1.44,0.151,1.808-0.484c0.366-0.633,0.149-1.443-0.484-1.808l-3.931-2.27
		c2.48-3.801,5.755-7.063,9.547-9.533l2.264,3.922c0.367,0.636,1.179,0.849,1.808,0.484c0.633-0.365,0.851-1.175,0.485-1.808
		l-2.283-3.951c3.98-2.148,8.42-3.455,13.046-3.666v4.732c0,0.731,0.593,1.324,1.323,1.324c0.731,0,1.324-0.593,1.324-1.324V5.776
		c4.626,0.21,9.067,1.518,13.047,3.666l-2.282,3.951c-0.365,0.633-0.149,1.442,0.484,1.808c0.632,0.364,1.442,0.151,1.81-0.484
		l2.264-3.922c3.791,2.47,7.065,5.732,9.546,9.533l-3.931,2.27c-0.633,0.365-0.85,1.175-0.483,1.808
		c0.367,0.636,1.179,0.848,1.809,0.484l3.959-2.287c1.73,3.2,2.916,6.711,3.418,10.405h-8.816
		c-1.863-10.4-10.915-18.528-22.147-18.528c-10.934,0-20.254,7.887-22.148,18.528H5.359C5.861,29.313,7.046,25.801,8.775,22.602
		L8.775,22.602z M67.556,38.301h-4.896c-0.682,0-1.251,0.517-1.319,1.193c-0.264,2.669-0.973,5.295-2.107,7.808
		c-0.279,0.618-0.043,1.35,0.545,1.691l3.568,2.059l-1.322,2.291l-3.577-2.063c-0.588-0.341-1.336-0.18-1.733,0.372
		c-1.59,2.203-3.513,4.126-5.717,5.716c-0.551,0.396-0.712,1.146-0.371,1.734l2.063,3.574l-2.291,1.324l-2.06-3.567
		c-0.34-0.589-1.073-0.824-1.69-0.545c-2.512,1.135-5.139,1.843-7.809,2.107c-0.677,0.067-1.192,0.637-1.192,1.317v4.897h-2.647
		v-4.897c0-0.681-0.516-1.25-1.193-1.317c-2.668-0.265-5.295-0.975-7.807-2.107c-0.621-0.279-1.352-0.044-1.691,0.545l-2.06,3.567
		l-2.292-1.324l2.063-3.574c0.339-0.588,0.179-1.338-0.372-1.734c-2.203-1.59-4.125-3.513-5.716-5.716
		c-0.398-0.552-1.146-0.713-1.736-0.372l-3.574,2.063l-1.323-2.291l3.568-2.059c0.588-0.342,0.824-1.073,0.544-1.691
		c-1.134-2.513-1.842-5.139-2.107-7.808c-0.067-0.677-0.637-1.193-1.317-1.193H5.089v-1.324c0-0.441,0.01-0.882,0.03-1.323h8.744
		c-0.026,0.441-0.04,0.882-0.04,1.323c0,12.406,10.092,22.5,22.498,22.5c3.796,0,7.548-0.964,10.854-2.786
		c0.639-0.352,0.871-1.158,0.518-1.799c-0.352-0.639-1.158-0.872-1.797-0.519c-2.914,1.607-6.224,2.457-9.575,2.457
		c-10.946,0-19.852-8.905-19.852-19.854c0-10.972,8.913-19.85,19.852-19.85c4.782,0,9.304,1.679,12.898,4.758l-11.702,8.584
		c-0.394-0.073-0.793-0.108-1.196-0.108c-3.648,0-6.617,2.968-6.617,6.616c0,3.65,2.969,6.618,6.617,6.618
		c3.649,0,6.618-2.968,6.618-6.618c0-0.401-0.036-0.801-0.107-1.194l8.581-11.701c2.95,3.458,4.762,7.979,4.762,12.895
		c0,3.35-0.85,6.66-2.457,9.575c-0.354,0.64-0.12,1.444,0.519,1.798c0.64,0.354,1.446,0.121,1.8-0.52
		c1.82-3.305,2.786-7.058,2.786-10.854c0-0.441-0.016-0.882-0.042-1.323h8.746c0.018,0.441,0.029,0.882,0.029,1.323V38.301
		L67.556,38.301z M40.134,35.862c0.104,0.36,0.158,0.736,0.158,1.115c0,2.189-1.781,3.972-3.97,3.972
		c-2.188,0-3.969-1.782-3.969-3.972c0-2.188,1.781-3.969,3.969-3.969c0.38,0,0.755,0.054,1.115,0.159
		c0.395,0.115,0.822,0.04,1.154-0.204l6.548-4.802l-4.801,6.549C40.094,35.041,40.018,35.467,40.134,35.862L40.134,35.862z"/>
	<circle fill="#5B5B5B" cx="51.277" cy="51.932" r="1.324"/>
</g>
</svg>
