<?xml version="1.0" encoding="utf-8"?>
<!-- Generator: Adobe Illustrator 16.0.0, SVG Export Plug-In . SVG Version: 6.00 Build 0)  -->
<!DOCTYPE svg PUBLIC "-//W3C//DTD SVG 1.1//EN" "http://www.w3.org/Graphics/SVG/1.1/DTD/svg11.dtd">
<svg version="1.1" id="Layer_1" xmlns="http://www.w3.org/2000/svg" xmlns:xlink="http://www.w3.org/1999/xlink" x="0px" y="0px"
	 width="72px" height="72px" viewBox="0 0 72 72" enable-background="new 0 0 72 72" xml:space="preserve">
<g>
	<path fill="#5B5B5B" d="M68.005,31.271c-0.591-0.945-1.15-1.838-1.359-2.621c-0.226-0.843-0.189-1.933-0.152-3.086
		c0.061-1.854,0.13-3.955-0.925-5.776c-1.069-1.847-2.938-2.841-4.586-3.718c-1.006-0.535-1.956-1.04-2.554-1.638
		c-0.597-0.597-1.103-1.548-1.637-2.554c-0.877-1.648-1.871-3.517-3.719-4.586c-1.821-1.053-3.923-0.986-5.776-0.925
		c-1.153,0.037-2.243,0.073-3.085-0.153c-0.782-0.209-1.677-0.768-2.621-1.359c-1.598-1-3.41-2.133-5.591-2.133
		c-2.181,0-3.993,1.133-5.591,2.133c-0.945,0.592-1.838,1.151-2.621,1.36c-0.843,0.225-1.933,0.189-3.086,0.152
		c-1.853-0.061-3.955-0.128-5.776,0.926c-1.847,1.068-2.84,2.937-3.717,4.585c-0.535,1.006-1.04,1.957-1.638,2.554
		c-0.598,0.598-1.548,1.103-2.553,1.638c-1.649,0.877-3.518,1.871-4.587,3.718c-1.054,1.821-0.985,3.922-0.926,5.776
		c0.039,1.153,0.073,2.243-0.151,3.086c-0.21,0.782-0.768,1.675-1.36,2.62c-0.999,1.598-2.132,3.409-2.132,5.59
		c0,2.183,1.133,3.993,2.134,5.591c0.591,0.946,1.15,1.839,1.359,2.62c0.226,0.844,0.19,1.935,0.153,3.087
		c-0.061,1.854-0.129,3.956,0.924,5.776c1.069,1.847,2.938,2.842,4.587,3.719c1.005,0.533,1.955,1.038,2.553,1.636
		s1.103,1.549,1.638,2.555c0.877,1.648,1.871,3.516,3.718,4.585c1.821,1.055,3.921,0.987,5.776,0.926
		c1.153-0.038,2.243-0.071,3.085,0.151c0.782,0.21,1.676,0.77,2.621,1.362C32.007,69.866,33.819,71,36,71
		c2.181,0,3.993-1.134,5.591-2.131c0.944-0.593,1.839-1.152,2.621-1.362c0.842-0.226,1.932-0.189,3.086-0.151
		c1.853,0.062,3.954,0.129,5.776-0.926c1.847-1.069,2.841-2.937,3.718-4.585c0.534-1.006,1.04-1.957,1.637-2.555
		c0.598-0.598,1.548-1.103,2.554-1.636c1.648-0.877,3.517-1.872,4.586-3.719c1.055-1.82,0.985-3.922,0.925-5.776
		c-0.037-1.152-0.071-2.243,0.152-3.087c0.211-0.781,0.769-1.674,1.36-2.62c0.999-1.598,2.133-3.408,2.133-5.591
		C70.139,34.68,69.005,32.869,68.005,31.271L68.005,31.271z M64.588,40.313c-0.724,1.156-1.472,2.352-1.838,3.718
		c-0.379,1.42-0.332,2.862-0.287,4.259c0.048,1.442,0.091,2.803-0.385,3.627c-0.491,0.848-1.704,1.493-2.988,2.177
		c-1.224,0.649-2.489,1.323-3.513,2.346c-1.023,1.023-1.695,2.288-2.347,3.512c-0.683,1.285-1.328,2.499-2.176,2.988
		c-0.823,0.478-2.185,0.434-3.626,0.385c-1.396-0.044-2.84-0.092-4.259,0.287c-1.366,0.367-2.562,1.116-3.718,1.839
		c-1.249,0.779-2.428,1.519-3.452,1.519s-2.203-0.739-3.452-1.519c-1.157-0.723-2.352-1.472-3.719-1.839
		c-0.951-0.254-1.915-0.315-2.866-0.315c-0.468,0-0.932,0.016-1.393,0.031c-1.441,0.046-2.803,0.09-3.626-0.388
		c-0.848-0.489-1.493-1.703-2.176-2.987c-0.651-1.224-1.323-2.489-2.347-3.513c-1.023-1.022-2.289-1.696-3.512-2.346
		c-1.285-0.684-2.498-1.33-2.989-2.177c-0.476-0.824-0.432-2.185-0.384-3.626c0.044-1.397,0.092-2.84-0.288-4.26
		c-0.365-1.366-1.113-2.562-1.837-3.718c-0.781-1.248-1.518-2.428-1.518-3.452c0-1.023,0.737-2.203,1.518-3.451
		c0.723-1.156,1.472-2.352,1.837-3.719c0.378-1.419,0.332-2.862,0.288-4.258c-0.048-1.442-0.091-2.803,0.384-3.626
		c0.491-0.849,1.704-1.494,2.989-2.177c1.223-0.651,2.489-1.323,3.512-2.347c1.023-1.022,1.695-2.288,2.347-3.511
		c0.684-1.286,1.329-2.499,2.176-2.99c0.824-0.476,2.185-0.432,3.626-0.385c1.396,0.045,2.84,0.092,4.258-0.287
		c1.367-0.365,2.562-1.113,3.719-1.837C33.797,7.493,34.976,6.755,36,6.755s2.203,0.738,3.452,1.519
		c1.156,0.724,2.352,1.472,3.718,1.837c1.419,0.379,2.862,0.332,4.259,0.287c1.441-0.046,2.803-0.091,3.626,0.385
		c0.848,0.491,1.493,1.705,2.176,2.99c0.651,1.223,1.323,2.488,2.347,3.511c1.023,1.023,2.289,1.696,3.513,2.347
		c1.284,0.683,2.497,1.329,2.988,2.177c0.476,0.824,0.433,2.185,0.385,3.626c-0.045,1.396-0.092,2.839,0.287,4.258
		c0.366,1.367,1.113,2.563,1.838,3.719c0.781,1.248,1.519,2.428,1.519,3.451C66.106,37.886,65.369,39.064,64.588,40.313
		L64.588,40.313z"/>
	<path fill="#5B5B5B" d="M32.25,41.013l-5.578-5.576l-2.851,2.851l8.371,8.372l15.956-15.317l-2.792-2.909L32.25,41.013z"/>
	<path fill="#5B5B5B" d="M36,13.341c-12.97,0-23.521,10.552-23.521,23.521c0,12.97,10.55,23.521,23.521,23.521
		c12.969,0,23.521-10.552,23.521-23.521C59.521,23.893,48.969,13.341,36,13.341z M36,56.351c-10.747,0-19.489-8.743-19.489-19.489
		c0-10.746,8.742-19.488,19.489-19.488c10.746,0,19.489,8.742,19.489,19.488C55.489,47.607,46.746,56.351,36,56.351z"/>
</g>
</svg>
