<?xml version="1.0" encoding="utf-8"?>
<!-- Generator: Adobe Illustrator 16.0.0, SVG Export Plug-In . SVG Version: 6.00 Build 0)  -->
<!DOCTYPE svg PUBLIC "-//W3C//DTD SVG 1.1//EN" "http://www.w3.org/Graphics/SVG/1.1/DTD/svg11.dtd">
<svg version="1.1" id="Layer_1" xmlns="http://www.w3.org/2000/svg" xmlns:xlink="http://www.w3.org/1999/xlink" x="0px" y="0px"
	 width="485.881px" height="96.333px" viewBox="0 0 485.881 96.333" enable-background="new 0 0 485.881 96.333"
	 xml:space="preserve">
<path fill-rule="evenodd" clip-rule="evenodd" fill="#F99C2E" d="M74.847,1.47c5.068,2.539,7.851,7.363,11.214,11.531
	c1.905,2.362,3.458,2.734,6.013,1.245c2.839-1.655,5.864-3.005,8.86-4.376c4.897-2.239,9.028-0.851,11.475,3.915
	c1.909,3.718,3.717,7.494,5.418,11.312c0.816,1.832,1.719,2.421,3.777,1.752c3.609-1.172,7.32-2.045,11.012-2.947
	c4.478-1.092,7.523,0.51,8.744,4.944c3.494,12.699,6.883,25.428,10.195,38.177c1.161,4.468-0.604,7.493-5.079,8.681
	c-21.797,5.788-43.614,11.503-65.44,17.184c-4.09,1.063-6.475-0.012-8.316-3.899c-0.767-1.62-1.372-1.814-2.793-1.037
	c-1.777,0.973-3.593,1.89-5.446,2.708c-3.166,1.398-6.304,1.236-8.858-1.169c-1.516-1.428-2.384-1.489-4.029-0.174
	c-6.197,4.951-9.716,4.447-14.654-1.821c-1.958-2.486-3.872-5.007-5.806-7.511c1.153-0.793,2.455-0.754,3.764-0.67
	c1.738,2.295,3.434,4.626,5.227,6.878c2.58,3.24,4.951,3.833,7.696,2.042c4.656-3.038,4.782-3.46,2.406-8.269
	c-0.388-0.786-0.829-1.546-1.246-2.318c1.022-1.158,2.364-0.612,3.593-0.676c1.279,2.723,2.485,5.481,3.854,8.157
	c1.598,3.12,4.018,3.802,7.232,2.336c7.659-3.493,7.676-3.451,5.455-11.656c-0.164-0.604-0.283-1.221-0.424-1.831
	c1.049-0.646,2.188-0.95,3.419-0.891c1.149,4.662,2.302,9.322,3.446,13.984c0.615,2.506,2.311,3.188,4.616,2.633
	c2.828-0.683,5.629-1.478,8.444-2.217c18.483-4.853,36.967-9.698,55.448-14.558c4.651-1.224,5.088-2.014,3.856-6.684
	c-0.775-2.937-1.522-5.879-2.314-8.812c-1.824-6.751-3.667-13.497-5.463-20.101c-3.659,1.021-6.809,1.943-9.982,2.774
	c-6.94,1.82-9.714,0.178-11.007-6.779c-0.322-1.73-0.502-2.4-2.492-1.873c-16.029,4.244-32.084,8.392-48.138,12.542
	c-2.899,0.749-3.889,2.302-3.025,5.318c1.949,6.811,3.684,13.683,5.505,20.53c-1.114,0.277-2.227,0.554-3.342,0.83
	c-1.749-6.733-3.516-13.461-5.243-20.199c-1.445-5.637-0.056-8.069,5.49-9.54c13.701-3.634,27.41-7.236,41.115-10.849
	c6.814-1.797,6.817-1.797,3.694-8.118c-0.089-0.18-0.381-0.261-0.612-0.409c-3.578,3.994-8.565,5.618-13.296,7.539
	c-2.869,1.166-5.467-0.113-7.214-2.715c-1.296-1.932-1.947-4.1-2.063-6.427c0.286-0.221,0.445-0.477,0.06-0.718
	c-0.067-0.042-0.31,0.198-0.473,0.307c-1.739,0.734-3.514,1.394-5.211,2.215c-13.675,6.617-27.332,13.273-41.002,19.9
	c-5.313,2.575-5.83,4.008-3.193,9.417c3.771,7.736,7.569,15.458,11.356,23.186c-1.147,0.187-2.293,0.373-3.44,0.559
	c-3.711-7.61-7.438-15.211-11.128-22.831c-3.12-6.444-1.872-9.955,4.607-13.139c9.746-4.79,19.492-9.58,29.238-14.369
	c3.31-1.523,6.64-3,9.923-4.577c5.346-2.566,5.335-2.595,1.452-7.119c-0.121-0.141-0.394-0.151-0.703-0.26
	c-2.031,5.162-7.389,6.956-10.836,10.71c-6.104,1.743-9.11-0.204-11.776-7.753C44.398,26.578,30.4,37.596,16.496,48.729
	c-2.822,2.26-2.664,4.78-0.149,7.91c5.544,6.9,11.054,13.827,16.578,20.743c-1.345,0.271-2.689,0.542-4.034,0.813
	c-0.331-1.574-1.496-2.625-2.444-3.791c-4.131-5.081-8.302-10.13-12.458-15.191c-4.468-6.796-4.038-9.567,2.353-14.687
	c2.168-1.738,4.425-3.362,6.606-5.083C38.984,26.792,55.011,14.129,71.041,1.47C72.309,1.47,73.578,1.47,74.847,1.47z M77.59,11.431
	c-0.226-1.787-1.354-3.168-2.82-4.194c-1.43-1-2.881-0.565-4.184,0.491c-2.165,1.754-4.342,3.493-6.521,5.229
	c-2.307,1.84-2.069,3.803-0.358,5.903c1.652,2.027,3.474,2.381,5.58,0.719c2.186-1.727,4.369-3.459,6.561-5.179
	C76.787,13.664,77.388,12.737,77.59,11.431z M127.228,37.442c2.495-0.675,5.68-1.476,8.828-2.408
	c2.408-0.714,3.011-2.386,2.329-4.747c-0.685-2.371-1.832-3.89-4.59-3.191c-2.939,0.744-5.898,1.417-8.812,2.252
	c-2.173,0.624-2.957,2.117-2.406,4.385C123.097,35.88,123.892,37.596,127.228,37.442z M109.015,18.45
	c-0.167-3.552-3.089-5.437-6.303-3.99c-2.536,1.142-5.042,2.36-7.516,3.631c-2.198,1.129-2.627,2.846-1.573,5.085
	c0.966,2.054,2.495,3.844,4.651,2.569C101.984,23.549,107.443,23.787,109.015,18.45z"/>
<path fill-rule="evenodd" clip-rule="evenodd" fill="#5BC368" d="M1,72.271c0.254,0,0.508,0,0.762,0.001
	c-0.018,0.797-0.036,1.595-0.054,2.392l-0.343-0.129L1,74.556C1,73.794,1,73.033,1,72.271z"/>
<path fill-rule="evenodd" clip-rule="evenodd" fill="#46BB56" d="M1.708,74.665c0.018-0.797,0.036-1.595,0.054-2.392
	c0.061-0.991,0.579-1.731,1.294-2.363c0.388,0.044,0.775,0.088,1.163,0.133C3.66,74.615,4.484,76.01,9.08,77.347
	c6.515,1.895,13.174,1.321,19.812,0.848c1.345-0.271,2.689-0.542,4.033-0.813c4.966-0.479,9.898-1.162,14.707-2.561
	c1.147-0.186,2.293-0.372,3.439-0.559c5.604-0.851,11.131-2.069,16.592-3.588c1.115-0.276,2.228-0.553,3.342-0.83
	c15.892-3.399,31.383-8.207,46.95-12.669c-0.533-1.891-2.28-2.393-2.232-4.318c6.032,0.745,11.96,1.478,18.705,2.311
	c-5.356,4.298-10.026,8.044-14.964,12.005c0.154-5.427,0.167-5.371-4.837-4.174c-14.165,3.389-28.342,6.729-42.514,10.086
	c-1.232-0.059-2.37,0.245-3.419,0.891c-5.436,0.66-10.799,1.708-16.118,2.995c-1.229,0.064-2.571-0.482-3.593,0.676
	c-4.754,0.05-9.395,1.057-14.083,1.666c-1.309-0.084-2.61-0.123-3.764,0.67c-6.542,0.202-13.104,1.174-19.615-0.154
	C7.787,79.069,3.594,79.005,1.708,74.665z"/>
<path fill-rule="evenodd" clip-rule="evenodd" fill="#191919" d="M316.729,56.087c-4.713,5.638-9.179,10.961-13.624,16.303
	c-3.531,4.244-3.511,4.246-6.933,0.157c-4.531-5.414-9.077-10.816-13.675-16.293c-1.128,1.126-0.629,2.316-0.636,3.355
	c-0.052,7.606-0.018,15.211-0.044,22.818c-0.002,0.803,0.341,1.898-1.026,2.053c-1.253,0.142-1.448-0.65-1.448-1.646
	c0.007-9.761,0.001-19.522,0.01-29.283c0.001-0.764,0.041-1.544,1.042-1.732c1.326-0.25,2.097,0.513,2.866,1.437
	c3.565,4.285,7.188,8.523,10.751,12.812c5.619,6.763,5.594,6.765,11.096,0.146c3.564-4.286,7.184-8.529,10.745-12.818
	c0.848-1.021,1.707-2.033,3.155-1.502c1.48,0.542,0.857,1.954,0.863,2.984c0.046,9,0.046,18-0.001,27
	c-0.005,0.969,0.652,2.553-1.229,2.579c-1.901,0.026-1.274-1.571-1.282-2.546c-0.051-7.225-0.009-14.451-0.046-21.676
	C317.307,59.015,317.654,57.736,316.729,56.087z"/>
<path fill-rule="evenodd" clip-rule="evenodd" fill="#212121" d="M468.475,85.46c-6.099-0.037-11.832-1.289-16.687-5.242
	c-0.75-0.611-2.321-1.148-1.072-2.626c1.275-1.51,1.94,0.054,2.729,0.647c7.316,5.517,15.419,5.923,23.84,3.476
	c3.06-0.89,5.641-2.85,5.427-6.461c-0.215-3.643-3.32-4.592-6.208-5.105c-4.486-0.797-9.05-1.142-13.556-1.844
	c-2.113-0.33-4.22-0.9-6.235-1.624c-3.003-1.079-5.5-2.858-5.654-6.413c-0.147-3.351,1.975-5.507,4.705-6.781
	c8.483-3.961,16.93-3.784,25.109,0.951c0.921,0.533,2.857,1.016,1.939,2.616c-1.045,1.819-2.077,0.033-3.049-0.517
	c-6.709-3.792-13.736-4.174-20.921-1.723c-2.514,0.858-5.182,1.991-4.978,5.398c0.192,3.197,2.844,3.9,5.266,4.663
	c4.393,1.385,9.006,1.369,13.519,1.99c2.522,0.346,5.018,0.785,7.381,1.733c2.687,1.08,4.956,2.609,5.277,5.864
	c0.332,3.369-1.065,5.935-3.758,7.797C477.616,84.979,473.102,85.479,468.475,85.46z"/>
<path fill-rule="evenodd" clip-rule="evenodd" fill="#1E1E1E" d="M331.414,68.059c0-4.563,0.077-9.13-0.036-13.691
	c-0.048-1.946,0.525-2.67,2.565-2.647c8.493,0.094,16.988,0.021,25.482,0.064c0.983,0.005,2.637-0.571,2.457,1.344
	c-0.166,1.77-1.761,1.05-2.734,1.058c-7.226,0.062-14.455,0.158-21.678-0.028c-2.816-0.072-3.663,0.716-3.626,3.598
	c0.112,8.8-0.018,8.802,8.962,8.802c4.31,0,8.621-0.021,12.931,0.018c0.92,0.008,2.249-0.366,2.256,1.229
	c0.007,1.595-1.319,1.24-2.241,1.244c-6.339,0.032-12.678,0.083-19.016-0.019c-2.054-0.033-2.816,0.486-2.878,2.722
	c-0.292,10.399-0.368,10.397,9.914,10.397c5.451,0,10.903-0.019,16.354,0.02c0.909,0.006,2.253-0.433,2.356,1.118
	c0.112,1.682-1.305,1.232-2.189,1.236c-8.874,0.035-17.749-0.028-26.623,0.059c-1.917,0.02-2.322-0.726-2.288-2.451
	C331.475,77.442,331.414,72.75,331.414,68.059z"/>
<path fill-rule="evenodd" clip-rule="evenodd" fill="#131313" d="M373.894,56.134c0,8.354,0.038,16.707-0.044,25.06
	c-0.011,1.146,0.936,3.236-1.317,3.19c-1.95-0.04-1.083-1.97-1.092-3.035c-0.075-8.75-0.069-17.502-0.01-26.253
	c0.008-1.12-0.733-2.704,1.063-3.216c1.444-0.413,2.331,0.613,3.239,1.532c8.297,8.379,16.605,16.747,24.916,25.114
	c0.512,0.515,1.066,0.988,2.243,2.072c0-4.69,0-8.664,0-12.638c0-4.438-0.044-8.878,0.034-13.316
	c0.017-0.974-0.696-2.655,1.053-2.713c2.105-0.07,1.228,1.802,1.287,2.862c0.126,2.276,0.039,4.563,0.039,6.847
	c0,6.088,0.064,12.177-0.045,18.263c-0.027,1.503,0.99,3.626-0.773,4.425c-1.836,0.832-2.82-1.272-3.919-2.373
	c-6.899-6.911-13.748-13.874-20.589-20.841c-1.754-1.788-3.425-3.658-5.134-5.49C374.525,55.794,374.209,55.964,373.894,56.134z"/>
<path fill-rule="evenodd" clip-rule="evenodd" fill="#1E1E1E" d="M172.594,36.989c3.145-8.087,5.972-15.403,8.847-22.7
	c0.388-0.984,0.401-2.367,1.935-2.493c1.83-0.149,1.881,1.432,2.31,2.518c2.417,6.124,4.75,12.279,7.166,18.403
	c0.441,1.12,0.504,2.479,1.939,3.449c2.556-6.964,5.061-13.793,7.57-20.621c0.305-0.832,0.702-1.636,0.933-2.486
	c0.297-1.096,1.087-1.544,1.983-1.169c0.975,0.409,0.357,1.258,0.099,1.947c-1.115,2.961-2.213,5.929-3.314,8.895
	c-1.896,5.103-3.771,10.214-5.701,15.304c-0.336,0.884-0.477,2.079-1.887,2.028c-1.337-0.047-1.505-1.125-1.868-2.065
	c-2.911-7.53-5.833-15.056-9.05-23.352c-3.133,8.048-5.969,15.371-8.842,22.679c-0.434,1.104-0.435,2.72-2.154,2.717
	c-1.737-0.002-1.71-1.636-2.128-2.742c-2.858-7.58-5.697-15.167-8.465-22.779c-0.289-0.792-1.5-1.952-0.12-2.577
	c1.445-0.655,1.826,0.697,2.237,1.83C166.797,21.259,169.558,28.727,172.594,36.989z"/>
<path fill-rule="evenodd" clip-rule="evenodd" fill="#191919" d="M238.357,84.097c-2.802,1.104-3.57-0.676-4.056-2.14
	c-2.027-6.124-6.153-8.338-12.379-7.212c-1.349,0.244-2.798,0.178-4.17,0.011c-7.012-0.85-13.028-0.008-15.181,8.189
	c-0.372,1.413-1.523,1.943-3.401,1.199c1.49-2.738,2.923-5.453,4.43-8.125c4.164-7.381,8.335-14.76,12.555-22.109
	c1.598-2.785,3.336-3.07,4.717-0.671C226.733,63.427,232.473,73.686,238.357,84.097z M228.828,72.212
	c-3.422-6.051-6.652-11.763-10.199-18.033c-3.552,6.362-6.711,12.02-10.069,18.033C215.479,72.212,221.917,72.212,228.828,72.212z"
	/>
<path fill-rule="evenodd" clip-rule="evenodd" fill="#131313" d="M165.374,67.763c-0.001-4.314,0.036-8.628-0.019-12.942
	c-0.023-1.777-0.094-3.148,2.469-3.083c6.72,0.171,13.454-0.092,20.171,0.138c7.125,0.243,11.25,4.276,11.083,10.345
	c-0.145,5.311-3.526,8.99-9.505,9.401c-6.189,0.427-12.425,0.347-18.635,0.23c-2.514-0.047-3.375,0.679-3.166,3.194
	c0.21,2.521,0.059,5.072,0.037,7.609c-0.007,0.853,0.183,1.869-1.231,1.839c-1.392-0.03-1.192-1.043-1.194-1.889
	C165.367,77.659,165.375,72.711,165.374,67.763z M179.205,54.39c0-0.077,0-0.153,0-0.23c-3.044,0-6.09,0.046-9.133-0.02
	c-1.532-0.033-2.343,0.344-2.296,2.109c0.1,3.803,0.083,7.611,0.005,11.415c-0.03,1.478,0.492,2.048,1.964,2.024
	c6.465-0.105,12.946,0.084,19.392-0.307c4.813-0.291,7.444-3.316,7.463-7.53c0.019-4.079-2.376-6.835-7.144-7.386
	C186.082,54.074,182.625,54.39,179.205,54.39z"/>
<path fill-rule="evenodd" clip-rule="evenodd" fill="#212121" d="M266.287,40.92c-11.67-0.068-18.38-7.589-16.422-18.43
	c0.156-0.863,0.405-1.722,0.721-2.541c3.052-7.895,14.248-11.52,23.863-7.743c7.57,2.973,11.034,11.564,7.895,19.582
	C280.037,37.679,274.255,40.968,266.287,40.92z M266.603,38.723c1.852,0.113,3.979-0.219,6.041-0.893
	c5.288-1.73,8.399-6.104,8.453-11.8c0.054-5.858-2.787-10.128-8.143-11.973c-4.731-1.629-9.483-1.534-14.105,0.438
	c-3.616,1.543-5.87,4.273-6.68,8.176C250.226,32.025,256.046,38.662,266.603,38.723z"/>
<path fill-rule="evenodd" clip-rule="evenodd" fill="#212121" d="M367.904,40.925c-4.278-0.124-9.171-1.168-13.325-4.484
	c-0.712-0.568-1.998-1.186-1.022-2.392c1.073-1.327,1.742,0.113,2.436,0.634c5.965,4.479,12.603,4.846,19.538,3.175
	c2.146-0.518,4.113-1.604,5.014-3.735c1.045-2.475,0.33-4.453-2.277-5.554c-3.205-1.352-6.618-1.627-10.018-1.971
	c-3.535-0.358-7.08-0.724-10.34-2.253c-5.133-2.405-5.542-7.518-0.907-10.719c5.741-3.965,17.641-3.581,23.083,0.785
	c0.594,0.476,1.903,0.844,1.069,1.974c-0.893,1.21-1.686,0.227-2.534-0.333c-5.479-3.625-11.414-3.809-17.492-2.005
	c-2.458,0.729-5.055,1.872-4.923,4.987c0.126,2.986,2.813,3.778,5.144,4.236c3.844,0.756,7.772,1.067,11.646,1.684
	c1.864,0.297,3.727,0.733,5.512,1.336c2.372,0.801,4.36,2.158,4.709,4.92c0.369,2.934-0.881,5.2-3.23,6.842
	C376.632,40.397,372.778,40.935,367.904,40.925z"/>
<path fill-rule="evenodd" clip-rule="evenodd" fill="#262626" d="M456.106,25.955c-0.001-3.803,0.104-7.612-0.043-11.41
	c-0.081-2.089,0.461-2.884,2.709-2.841c7.098,0.135,14.2,0.035,21.3,0.066c0.895,0.004,2.335-0.457,2.149,1.23
	c-0.147,1.333-1.41,0.764-2.169,0.77c-6.213,0.048-12.428,0.113-18.638-0.018c-2.188-0.046-3.098,0.345-3.116,2.85
	c-0.059,7.955-0.179,7.954,7.854,7.954c3.169,0,6.341-0.066,9.508,0.035c1.133,0.037,3.171-0.688,3.171,0.959
	c0,2.099-2.17,1.059-3.328,1.093c-4.687,0.135-9.383,0.15-14.071,0.014c-2.149-0.063-3.116,0.274-3.139,2.82
	c-0.074,8.417-0.194,8.416,8.174,8.416c4.818,0,9.636-0.009,14.454,0.017c0.7,0.004,1.673-0.197,1.796,0.863
	c0.154,1.321-0.891,1.313-1.78,1.314c-7.608,0.012-15.216-0.035-22.822,0.038c-1.844,0.018-2.041-0.929-2.025-2.377
	C456.136,33.816,456.107,29.885,456.106,25.955z"/>
<path fill-rule="evenodd" clip-rule="evenodd" fill="#191919" d="M321.606,25.873c0-3.805,0.133-7.618-0.05-11.414
	c-0.112-2.306,0.841-2.731,2.875-2.703c6.976,0.096,13.953,0.019,20.93,0.06c0.905,0.005,2.403-0.465,2.462,0.927
	c0.065,1.533-1.479,0.998-2.355,1.004c-6.342,0.05-12.686,0.089-19.026-0.01c-1.903-0.029-2.598,0.405-2.658,2.495
	c-0.239,8.368-0.327,8.365,8.179,8.365c3.425,0,6.851-0.017,10.275,0.015c0.822,0.007,2.058-0.303,2.124,0.939
	c0.091,1.703-1.403,1.083-2.25,1.093c-5.072,0.059-10.149,0.113-15.22-0.01c-2.123-0.052-3.112,0.238-3.123,2.807
	c-0.037,8.48-0.164,8.48,8.472,8.48c4.692,0,9.386-0.011,14.079,0.014c0.812,0.004,1.98-0.291,1.858,1.15
	c-0.086,1.024-0.988,0.972-1.74,0.973c-7.611,0.006-15.223-0.027-22.833,0.026c-1.817,0.013-2.031-0.962-2.014-2.414
	C321.635,33.737,321.606,29.805,321.606,25.873z"/>
<path fill-rule="evenodd" clip-rule="evenodd" fill="#343434" d="M429.578,51.692c4.934,0,9.87-0.024,14.803,0.02
	c1.022,0.01,2.585-0.449,2.492,1.378c-0.076,1.475-1.426,1.134-2.373,1.143c-3.542,0.031-7.091,0.138-10.626-0.032
	c-2.308-0.111-3.052,0.634-3.016,2.974c0.126,8.096,0.077,16.195,0.014,24.292c-0.008,1.09,0.745,2.911-1.215,3.008
	c-2.403,0.12-1.444-1.96-1.457-3.096c-0.084-7.843-0.206-15.694,0.036-23.532c0.097-3.11-0.959-3.876-3.815-3.652
	c-2.893,0.227-5.821,0.142-8.725,0.007c-1.202-0.056-3.286,0.881-3.378-1.149c-0.097-2.157,2.038-1.293,3.215-1.319
	C420.214,51.632,424.896,51.691,429.578,51.692z"/>
<path fill-rule="evenodd" clip-rule="evenodd" fill="#1E1E1E" d="M419.177,38.999c0.035,1.225-0.813,1.328-1.466,0.879
	c-0.681-0.466-1.333-1.25-1.58-2.029c-1.754-5.549-5.615-7.163-11.018-6.186c-0.98,0.177-2.031,0.125-3.03,0.008
	c-5.987-0.701-11.297-0.211-13.229,6.905c-0.266,0.981-1.121,1.99-2.248,1.271c-1.096-0.699,0-1.594,0.377-2.27
	c4.49-8.052,9.028-16.077,13.548-24.112c1.294-2.299,2.813-2.61,4.188-0.212c4.711,8.217,9.322,16.492,13.968,24.746
	C418.875,38.328,419.022,38.678,419.177,38.999z M402.682,13.858c-2.754,4.912-5.27,9.38-7.766,13.86
	c-0.624,1.12-0.616,1.885,1.028,1.872c4.979-0.039,9.958-0.014,15.516-0.014C408.405,24.104,405.664,19.198,402.682,13.858z"/>
<path fill-rule="evenodd" clip-rule="evenodd" fill="#262626" d="M212.524,25.832c0-3.8-0.057-7.601,0.04-11.397
	c0.023-0.926-0.79-2.668,1.141-2.553c1.727,0.103,1.035,1.736,1.068,2.741c0.083,2.53,0.121,5.069-0.002,7.596
	c-0.089,1.828,0.577,2.394,2.386,2.371c6.711-0.087,13.425-0.079,20.136-0.004c1.687,0.018,2.203-0.602,2.153-2.213
	c-0.089-2.91-0.01-5.825-0.031-8.738c-0.007-0.966,0.077-1.853,1.326-1.8c1.124,0.048,0.946,0.984,0.947,1.695
	c0.012,8.232,0.013,16.465-0.01,24.697c-0.002,0.691,0.198,1.678-0.885,1.762c-1.234,0.095-1.364-0.847-1.365-1.794
	c-0.003-3.04-0.09-6.083,0.026-9.117c0.07-1.829-0.574-2.401-2.395-2.375c-6.585,0.092-13.173,0.111-19.757-0.008
	c-2.055-0.039-2.623,0.689-2.537,2.621c0.128,2.907,0.037,5.825,0.028,8.737c-0.002,0.9,0.004,1.958-1.224,1.946
	c-1.355-0.013-1.02-1.217-1.028-2.006C212.503,33.938,212.525,29.884,212.524,25.832z"/>
<path fill-rule="evenodd" clip-rule="evenodd" fill="#191919" d="M271.981,52.233c-4.466,5.618-8.538,11.118-13.029,16.25
	c-2.689,3.072-4.107,6.218-3.539,10.282c0.192,1.369,0.038,2.787,0.021,4.182c-0.009,0.779-0.067,1.523-1.149,1.552
	c-1.004,0.028-1.324-0.517-1.315-1.406c0.004-0.381-0.063-0.773,0.005-1.14c1.304-6.892-1.724-12.063-6.208-16.937
	c-3.644-3.958-6.767-8.396-10.176-12.69c2.28-1.165,3.179,0.138,4.149,1.35c3.96,4.951,7.996,9.843,11.87,14.861
	c1.277,1.653,1.996,1.739,3.306,0.039c3.871-5.021,7.907-9.914,11.845-14.882C268.745,52.455,269.663,51.253,271.981,52.233z"/>
<path fill-rule="evenodd" clip-rule="evenodd" fill="#1E1E1E" d="M425.604,25.585c-0.002-3.921-0.016-7.843,0.01-11.764
	c0.005-0.809-0.321-1.993,1.086-1.929c1.31,0.059,1.057,1.196,1.059,2.03c0.018,6.957,0.101,13.916-0.039,20.87
	c-0.05,2.441,0.617,3.271,3.166,3.181c5.685-0.2,11.382-0.078,17.074-0.044c0.789,0.005,1.989-0.353,2.048,0.981
	c0.059,1.325-1.099,1.149-1.938,1.152c-6.831,0.019-13.663-0.041-20.492,0.045c-1.879,0.024-1.997-0.971-1.985-2.378
	C425.627,33.68,425.605,29.632,425.604,25.585z"/>
<path fill-rule="evenodd" clip-rule="evenodd" fill="#131313" d="M315.405,38.776c0.161,1.419-0.847,1.267-1.722,1.268
	c-6.717,0.003-13.434-0.04-20.15,0.03c-1.75,0.018-2.473-0.474-2.453-2.352c0.082-7.856,0.021-15.714,0.051-23.571
	c0.003-0.897-0.464-2.32,1.17-2.235c1.601,0.083,0.991,1.511,0.997,2.376c0.048,6.969,0.104,13.941-0.019,20.909
	c-0.038,2.144,0.566,2.821,2.755,2.785c6.204-0.105,12.412,0.033,18.619,0.076C314.905,38.3,315.155,38.538,315.405,38.776z"/>
<path fill-rule="evenodd" clip-rule="evenodd" fill="#343434" d="M315.405,38.776c-0.25-0.239-0.5-0.476-0.751-0.715
	C315.271,37.915,315.499,38.177,315.405,38.776z"/>
<path fill-rule="evenodd" clip-rule="evenodd" fill="#FDFBF9" d="M89.122,19.545c0.163-0.109,0.406-0.349,0.473-0.307
	c0.385,0.241,0.226,0.498-0.06,0.718C89.396,19.822,89.259,19.685,89.122,19.545z"/>
<path fill-rule="evenodd" clip-rule="evenodd" fill="#5BC368" d="M9.412,64.51c-1.009,2.522-3.323,3.819-5.193,5.533
	c-0.388-0.044-0.775-0.088-1.163-0.132C4.489,67.303,6.569,65.458,9.412,64.51z"/>
</svg>
