<?xml version="1.0" encoding="utf-8"?>
<!-- Generator: Adobe Illustrator 16.0.0, SVG Export Plug-In . SVG Version: 6.00 Build 0)  -->
<!DOCTYPE svg PUBLIC "-//W3C//DTD SVG 1.1//EN" "http://www.w3.org/Graphics/SVG/1.1/DTD/svg11.dtd">
<svg version="1.1" id="Layer_1" xmlns="http://www.w3.org/2000/svg" xmlns:xlink="http://www.w3.org/1999/xlink" x="0px" y="0px"
	 width="167px" height="102.419px" viewBox="0 0 167 102.419" enable-background="new 0 0 167 102.419" xml:space="preserve">
<path fill-rule="evenodd" clip-rule="evenodd" fill="#F99C2E" d="M80.901,1.102c5.53,2.771,8.566,8.034,12.236,12.583
	c2.079,2.577,3.773,2.983,6.561,1.358c3.099-1.806,6.399-3.279,9.668-4.775c5.344-2.443,9.851-0.929,12.521,4.271
	c2.083,4.057,4.056,8.177,5.912,12.343c0.89,1.999,1.875,2.642,4.121,1.912c3.938-1.279,7.987-2.232,12.016-3.216
	c4.886-1.192,8.209,0.556,9.541,5.395c3.813,13.856,7.51,27.746,11.125,41.656c1.267,4.875-0.659,8.176-5.542,9.473
	c-23.784,6.315-47.589,12.552-71.405,18.75c-4.462,1.16-7.065-0.013-9.074-4.255c-0.837-1.767-1.497-1.98-3.048-1.132
	c-1.939,1.062-3.92,2.062-5.942,2.955c-3.454,1.526-6.879,1.348-9.666-1.276c-1.654-1.559-2.601-1.625-4.396-0.19
	c-6.762,5.402-10.602,4.853-15.99-1.987c-2.136-2.713-4.225-5.464-6.334-8.195c1.258-0.866,2.679-0.823,4.106-0.731
	c1.896,2.504,3.747,5.048,5.703,7.505c2.815,3.535,5.402,4.182,8.397,2.229c5.081-3.314,5.218-3.775,2.625-9.022
	c-0.423-0.857-0.904-1.688-1.359-2.529c1.115-1.263,2.58-0.667,3.92-0.737c1.396,2.971,2.711,5.981,4.206,8.9
	c1.744,3.405,4.384,4.148,7.891,2.549c8.357-3.811,8.376-3.766,5.953-12.719c-0.179-0.659-0.309-1.332-0.462-1.998
	c1.145-0.705,2.387-1.037,3.731-0.973c1.253,5.087,2.511,10.171,3.76,15.259c0.671,2.734,2.521,3.479,5.037,2.873
	c3.086-0.745,6.143-1.613,9.213-2.419c20.168-5.294,40.337-10.582,60.502-15.885c5.075-1.336,5.552-2.198,4.208-7.293
	c-0.845-3.204-1.661-6.416-2.525-9.615c-1.99-7.366-4.001-14.728-5.961-21.933c-3.993,1.114-7.429,2.12-10.892,3.027
	c-7.573,1.986-10.6,0.194-12.011-7.397c-0.351-1.888-0.548-2.619-2.719-2.043c-17.49,4.631-35.009,9.156-52.526,13.685
	c-3.164,0.817-4.243,2.511-3.301,5.803c2.126,7.431,4.02,14.93,6.007,22.401c-1.215,0.303-2.43,0.604-3.646,0.906
	c-1.908-7.347-3.836-14.688-5.721-22.041c-1.577-6.15-0.062-8.804,5.99-10.41c14.95-3.965,29.908-7.895,44.863-11.838
	c7.436-1.96,7.438-1.96,4.031-8.858c-0.098-0.197-0.416-0.285-0.668-0.446c-3.903,4.358-9.346,6.13-14.508,8.227
	c-3.13,1.272-5.965-0.124-7.872-2.963c-1.414-2.108-2.125-4.473-2.25-7.013c0.312-0.241,0.485-0.521,0.065-0.784
	c-0.073-0.046-0.338,0.216-0.516,0.335c-1.897,0.801-3.835,1.521-5.687,2.417c-14.921,7.22-29.824,14.483-44.74,21.714
	c-5.797,2.81-6.361,4.373-3.484,10.275c4.115,8.441,8.259,16.867,12.391,25.299c-1.251,0.204-2.502,0.407-3.754,0.609
	c-4.05-8.303-8.117-16.597-12.143-24.912c-3.404-7.032-2.042-10.862,5.027-14.337c10.634-5.227,21.269-10.453,31.903-15.678
	c3.611-1.662,7.245-3.274,10.827-4.994c5.833-2.801,5.822-2.832,1.584-7.768c-0.132-0.153-0.43-0.165-0.767-0.284
	c-2.216,5.633-8.063,7.59-11.824,11.686c-6.661,1.902-9.941-0.222-12.849-8.46C47.678,28.498,32.403,40.52,17.232,52.668
	c-3.08,2.466-2.907,5.216-0.163,8.631c6.049,7.529,12.062,15.087,18.089,22.634c-1.468,0.296-2.934,0.591-4.401,0.887
	c-0.361-1.717-1.632-2.864-2.667-4.137c-4.507-5.544-9.059-11.054-13.593-16.576c-4.875-7.416-4.406-10.439,2.567-16.025
	c2.365-1.896,4.828-3.669,7.208-5.546C41.77,28.731,59.257,14.914,76.748,1.102C78.132,1.102,79.517,1.102,80.901,1.102z
	 M83.895,11.971c-0.247-1.95-1.477-3.458-3.077-4.577c-1.56-1.091-3.143-0.617-4.565,0.535c-2.362,1.915-4.738,3.812-7.115,5.706
	c-2.517,2.008-2.257,4.149-0.391,6.442c1.802,2.212,3.791,2.598,6.089,0.784c2.385-1.884,4.767-3.775,7.159-5.651
	C83.018,14.406,83.674,13.396,83.895,11.971z M138.057,40.353c2.722-0.736,6.198-1.61,9.632-2.627
	c2.627-0.779,3.285-2.604,2.542-5.179c-0.748-2.587-1.999-4.244-5.009-3.482c-3.207,0.812-6.436,1.546-9.615,2.457
	c-2.372,0.681-3.226,2.31-2.625,4.785C133.55,38.648,134.417,40.52,138.057,40.353z M118.184,19.629
	c-0.183-3.876-3.371-5.933-6.878-4.354c-2.767,1.246-5.501,2.575-8.201,3.962c-2.398,1.231-2.866,3.105-1.716,5.548
	c1.054,2.242,2.723,4.194,5.075,2.803C110.513,25.193,116.469,25.453,118.184,19.629z"/>
<path fill-rule="evenodd" clip-rule="evenodd" fill="#46BB56" d="M1.096,80.968c0.019-0.87,0.039-1.741,0.059-2.61
	c0.066-1.082,0.631-1.89,1.413-2.579c0.423,0.048,0.845,0.097,1.269,0.145c-0.61,4.989,0.29,6.511,5.304,7.97
	c7.108,2.067,14.375,1.441,21.618,0.925c1.467-0.295,2.934-0.591,4.4-0.887c5.419-0.522,10.8-1.268,16.047-2.794
	c1.251-0.202,2.502-0.406,3.753-0.609c6.115-0.929,12.146-2.258,18.104-3.915c1.217-0.302,2.431-0.603,3.646-0.906
	c17.34-3.709,34.244-8.955,51.23-13.824c-0.582-2.063-2.488-2.61-2.436-4.711c6.582,0.813,13.051,1.613,20.41,2.522
	c-5.844,4.689-10.94,8.777-16.328,13.099c0.168-5.921,0.183-5.861-5.278-4.555c-15.456,3.698-30.925,7.342-46.389,11.006
	c-1.344-0.064-2.586,0.268-3.731,0.973c-5.932,0.72-11.783,1.864-17.587,3.268c-1.341,0.07-2.805-0.526-3.92,0.737
	c-5.188,0.054-10.251,1.153-15.367,1.817c-1.428-0.092-2.848-0.134-4.106,0.731c-7.139,0.221-14.298,1.281-21.403-0.168
	C7.729,85.774,3.154,85.704,1.096,80.968z"/>
<path fill-rule="evenodd" clip-rule="evenodd" fill="#FDFBF9" d="M96.478,20.824c0.177-0.119,0.442-0.381,0.516-0.335
	c0.42,0.263,0.247,0.543-0.065,0.784C96.777,21.126,96.627,20.976,96.478,20.824z"/>
</svg>
