<?xml version="1.0" encoding="utf-8"?>
<!-- Generator: Adobe Illustrator 16.0.0, SVG Export Plug-In . SVG Version: 6.00 Build 0)  -->
<!DOCTYPE svg PUBLIC "-//W3C//DTD SVG 1.1//EN" "http://www.w3.org/Graphics/SVG/1.1/DTD/svg11.dtd">
<svg version="1.1" id="Layer_1" xmlns="http://www.w3.org/2000/svg" xmlns:xlink="http://www.w3.org/1999/xlink" x="0px" y="0px"
	 width="306.093px" height="244.874px" viewBox="0 0 306.093 244.874" enable-background="new 0 0 306.093 244.874"
	 xml:space="preserve">
<path fill-rule="evenodd" clip-rule="evenodd" fill="#C41230" d="M280.594,118.071c-0.306-0.688-0.807-1.355-0.881-2.068
	c-0.252-2.438-1.172-3.39-3.617-3.421c-1.688-0.02-3.379,0.029-5.066-0.013c-1.802-0.046-2.994,0.725-3.395,2.492
	c-0.574,2.537,0.175,4.396,2.076,5.125c2.36,0.903,4.802,1.611,7.113,2.625c1.354,0.593,2.52,1.614,3.77,2.442
	c0,1.83,0,3.662,0,5.492c-1.172,1.952-2.894,2.696-5.145,2.485c-1.254-0.117-2.529-0.02-3.794-0.021
	c-4.254-0.006-5.686-1.878-4.344-6.257c0.085,0.586,0.213,1.17,0.25,1.759c0.147,2.373,1.029,3.37,3.325,3.479
	c1.823,0.086,3.654,0.047,5.48,0.009c1.872-0.04,3.027-0.96,3.287-2.874c0.384-2.827-0.23-4.425-2.116-5.138
	c-2.624-0.99-5.291-1.868-7.92-2.846c-2.762-1.027-3.629-3.095-2.931-6.799c0.363-1.921,1.879-2.964,4.451-3.019
	c1.406-0.03,2.816,0.061,4.217-0.022c2.177-0.129,3.997,0.435,5.241,2.342C280.594,115.254,280.594,116.663,280.594,118.071z"/>
<path fill-rule="evenodd" clip-rule="evenodd" fill="#C41230" d="M134.375,133.133c-1.553,0-2.729,0-4.051,0
	c0-7.15,0-14.224,0-21.371c1.934-0.731,3.112-0.139,4.034,1.86c1.765,3.823,3.794,7.524,5.727,11.271
	c0.214,0.413,0.512,0.783,0.895,1.358c2.25-4.362,4.397-8.545,6.563-12.716c1.199-2.307,1.214-2.3,4.006-1.719
	c0,6.987,0,13.999,0,21.203c-1.23,0-2.454,0-3.904,0c0-3.22,0-6.559,0-9.898c-0.165-0.052-0.329-0.104-0.494-0.156
	c-0.824,1.549-1.665,3.091-2.471,4.649c-0.676,1.311-1.223,2.699-2.005,3.942c-0.421,0.669-1.168,1.444-1.853,1.534
	c-0.494,0.067-1.311-0.818-1.663-1.455c-1.258-2.274-2.373-4.626-3.551-6.942c-0.273-0.537-0.585-1.056-1.234-1.521
	C134.375,126.42,134.375,129.666,134.375,133.133z"/>
<path fill-rule="evenodd" clip-rule="evenodd" fill="#C41230" d="M46.595,111.694c0,7.191,0,14.26,0,21.42c-1.302,0-2.465,0-3.859,0
	c0-3.478,0-6.864,0-10.251c-0.14-0.029-0.279-0.061-0.417-0.091c-1.35,2.663-2.634,5.365-4.087,7.972
	c-0.523,0.938-1.457,1.647-2.202,2.462c-0.74-0.809-1.667-1.514-2.186-2.446c-1.392-2.501-2.61-5.099-4.338-7.633
	c0,3.286,0,6.571,0,9.964c-1.502,0-2.666,0-4.008,0c0-7.122,0-14.235,0-21.331c2.025-0.761,3.112,0.013,3.99,1.841
	c2.029,4.216,4.247,8.34,6.551,12.817c2.33-4.524,4.477-8.688,6.616-12.854C43.774,111.385,43.767,111.382,46.595,111.694z"/>
<path fill-rule="evenodd" clip-rule="evenodd" fill="#C41230" d="M127.22,122.366c-0.001,2.177,0.037,4.356-0.011,6.533
	c-0.054,2.501-1.741,4.243-4.237,4.294c-3.23,0.065-6.464,0.067-9.695-0.001c-2.527-0.054-4.228-1.729-4.27-4.268
	c-0.073-4.354-0.061-8.711-0.007-13.066c0.03-2.373,1.472-4.084,3.848-4.206c3.5-0.18,7.024-0.189,10.523-0.01
	c2.469,0.125,3.817,1.869,3.844,4.4C127.238,118.15,127.22,120.258,127.22,122.366z M123.063,122.505
	c0-1.757-0.025-3.512,0.008-5.267c0.025-1.25-0.549-1.789-1.78-1.775c-2.106,0.024-4.213,0.035-6.318-0.006
	c-1.347-0.026-1.912,0.594-1.905,1.905c0.02,3.37,0.011,6.74,0.006,10.11c-0.001,1.217,0.578,1.801,1.807,1.791
	c2.177-0.02,4.364,0.112,6.523-0.085c0.597-0.056,1.496-1.002,1.582-1.629C123.208,125.894,123.06,124.189,123.063,122.505z"/>
<path fill-rule="evenodd" clip-rule="evenodd" fill="#C41230" d="M85.322,133.1c-1.344,0-2.573,0-3.875,0
	c-0.077-0.336-0.23-0.615-0.185-0.856c0.731-3.828-0.964-6.51-3.83-8.848c-1.869-1.524-3.435-3.421-5.522-5.545
	c0,5.425,0,10.241,0,15.207c-1.458,0-2.743,0-4.147,0c0-7.062,0-14.065,0-21.216c1.886-0.361,3.516-0.355,5.03,1.328
	c2.528,2.811,5.295,5.406,8.388,8.522c0-3.631,0-6.725,0-9.918c1.534,0,2.768,0,4.141,0C85.322,118.882,85.322,125.936,85.322,133.1
	z"/>
<path fill-rule="evenodd" clip-rule="evenodd" fill="#C41230" d="M61.812,120.476c0,1.264,0,2.283,0,3.455c-2.531,0-4.969,0-7.582,0
	c0,1.778,0,3.408,0,5.286c3.435,0,6.846,0,10.391,0c0,1.398,0,2.557,0,3.855c-4.914,0-9.794,0-14.806,0c0-7.092,0-14.099,0-21.258
	c4.868,0,9.68,0,14.647,0c0,1.083,0,2.16,0,3.457c-3.389,0-6.744,0-10.25,0c0,1.792,0,3.374,0,5.204
	C56.694,120.476,59.19,120.476,61.812,120.476z"/>
<path fill-rule="evenodd" clip-rule="evenodd" fill="#C41230" d="M106.637,111.772c0.036,0.811,0.085,1.432,0.084,2.054
	c0,0.408-0.074,0.816-0.137,1.455c-2.27,0-4.483,0-7.009,0c0,6.081,0,11.931,0,17.851c-1.5,0-2.681,0-4.194,0
	c0-5.867,0-11.704,0-17.775c-2.535,0-4.748,0-7.099,0c0-1.317,0-2.395,0-3.584C94.39,111.772,100.405,111.772,106.637,111.772z"/>
<path fill-rule="evenodd" clip-rule="evenodd" fill="#C41230" d="M197.173,111.944c2.778,6.226,5.558,12.453,8.539,19.132
	c2.95-6.598,5.75-12.861,8.55-19.124c0.177,0.047,0.355,0.094,0.533,0.141c0,6.891,0,13.781,0,20.671
	c-0.241,0.023-0.482,0.046-0.724,0.068c-0.055-1.755-0.131-3.512-0.157-5.269c-0.027-1.831-0.006-3.661-0.006-5.492
	c0-1.875,0-3.75,0-5.624c-0.143-0.037-0.285-0.073-0.427-0.108c-2.454,5.524-4.91,11.05-7.364,16.575
	c-0.238,0.051-0.477,0.1-0.714,0.149c-2.521-5.655-5.042-11.312-7.564-16.967c-0.189,0.04-0.38,0.078-0.57,0.118
	c0,5.522,0,11.046,0,16.569c-0.191-0.005-0.381-0.01-0.572-0.016c0-6.885,0-13.771,0-20.656
	C196.854,112.058,197.014,112,197.173,111.944z"/>
<path fill-rule="evenodd" clip-rule="evenodd" fill="#C41230" d="M247.554,112.045c0,6.916,0,13.832,0,20.749
	c-0.277,0.016-0.555,0.032-0.831,0.047c0-1.287-0.093-2.584,0.023-3.861c0.137-1.533-0.381-2.619-1.494-3.695
	c-3.773-3.647-7.439-7.407-11.517-11.495c0,6.655,0,12.793,0,19.623c-0.704-0.75-1.181-1.021-1.183-1.294
	c-0.041-6.654-0.032-13.309-0.032-19.963c0.202-0.134,0.402-0.268,0.603-0.401c4.396,4.394,8.793,8.789,13.651,13.645
	c0-4.88,0-9.1,0-13.32C247.034,112.067,247.293,112.056,247.554,112.045z"/>
<path fill-rule="evenodd" clip-rule="evenodd" fill="#C41230" d="M156.108,132.766c0-6.833,0-13.665,0-20.687
	c3.222,0,6.5-0.171,9.75,0.068c1.789,0.131,2.727,1.596,2.761,3.442c0.031,1.615,0.031,3.232,0.002,4.848
	c-0.044,2.479-1.432,3.905-3.925,3.958c-2.448,0.053-4.899,0.012-7.686,0.012c0,1.578,0,3.018,0,4.458c0,1.32,0,2.642,0,3.961
	C156.709,132.806,156.409,132.786,156.108,132.766z M157.217,112.958c0,3.627,0,6.95,0,10.378c2.659,0,5.112,0.044,7.561-0.016
	c1.64-0.04,2.644-0.968,2.739-2.61c0.098-1.679,0.094-3.37-0.001-5.049c-0.09-1.613-1.016-2.636-2.673-2.684
	C162.333,112.906,159.821,112.958,157.217,112.958z"/>
<path fill-rule="evenodd" clip-rule="evenodd" fill="#C41230" d="M219.008,112.768c0,3.234,0,6.012,0,9.151c2.875,0,5.664,0,8.454,0
	c-0.001,0.244-0.004,0.488-0.005,0.731c-2.78,0-5.559,0-8.439,0c0,3.214,0,6.061,0,9.358c3.813,0,7.533,0,11.253,0
	c-0.009,0.218-0.018,0.435-0.026,0.651c-4.075,0-8.148,0-12.38,0c0-6.771,0-13.613,0-20.46c4.054,0,8.037,0,12.02,0
	c0.005,0.189,0.01,0.378,0.015,0.567C226.349,112.768,222.798,112.768,219.008,112.768z"/>
<path fill-rule="evenodd" clip-rule="evenodd" fill="#C41230" d="M166.422,132.577c2.787-6.899,5.576-13.798,8.363-20.697
	c0.277-0.023,0.554-0.047,0.833-0.069c2.794,6.922,5.587,13.843,8.381,20.766c-0.188,0.117-0.377,0.235-0.567,0.354
	c-0.359-0.534-0.796-1.033-1.061-1.61c-0.787-1.715-1.057-4.157-2.373-5.005c-1.418-0.915-3.793-0.438-5.748-0.406
	c-5.027,0.084-3.493-0.881-5.601,3.856c-0.478,1.072-0.94,2.149-1.411,3.225C166.966,132.852,166.694,132.715,166.422,132.577z
	 M179.739,124.778c-1.541-3.834-2.964-7.376-4.542-11.301c-1.589,3.994-3.014,7.578-4.496,11.301
	C173.824,124.778,176.619,124.778,179.739,124.778z"/>
<path fill-rule="evenodd" clip-rule="evenodd" fill="#C41230" d="M249.351,112.24c5.197,0,10.395,0,15.59,0
	c0.006,0.19,0.012,0.381,0.02,0.57c-2.301,0-4.601,0-7.304,0c0,6.844,0,13.413,0,19.981c-0.269,0.004-0.536,0.008-0.804,0.012
	c-0.599-3.197-0.176-6.467-0.255-9.696c-0.079-3.286-0.017-6.576-0.017-10.112c-2.511,0-4.851,0-7.189,0
	C249.379,112.744,249.366,112.493,249.351,112.24z"/>
<path fill-rule="evenodd" clip-rule="evenodd" fill="#C41230" d="M186.764,132.888c-0.106-0.582-0.376-1.187-0.295-1.74
	c0.736-4.905-0.887-9.043-3.829-12.881c-1.434-1.87-2.529-3.999-3.576-6.162c2.328,0.867,2.859,3.258,4.119,4.995
	c1.358,1.871,2.487,3.907,3.804,6.013c2.784-3.708,4.706-7.873,7.545-11.361c0.25,0.16,0.499,0.319,0.748,0.48
	c-0.361,0.607-0.716,1.222-1.089,1.824c-0.666,1.077-1.258,2.212-2.028,3.207c-3.326,4.3-5.469,8.942-4.539,14.563
	c0.051,0.306-0.096,0.645-0.151,0.968C187.236,132.824,187,132.856,186.764,132.888z"/>
</svg>
