<?xml version="1.0" encoding="utf-8"?>
<!-- Generator: Adobe Illustrator 16.0.0, SVG Export Plug-In . SVG Version: 6.00 Build 0)  -->
<!DOCTYPE svg PUBLIC "-//W3C//DTD SVG 1.1//EN" "http://www.w3.org/Graphics/SVG/1.1/DTD/svg11.dtd">
<svg version="1.1" id="Layer_1" xmlns="http://www.w3.org/2000/svg" xmlns:xlink="http://www.w3.org/1999/xlink" x="0px" y="0px"
	 width="485.881px" height="168.667px" viewBox="0 0 485.881 168.667" enable-background="new 0 0 485.881 168.667"
	 xml:space="preserve">
<path fill-rule="evenodd" clip-rule="evenodd" fill="#080808" d="M1.896,148.325c2.012-2.61,3.05-5.73,4.453-8.649
	C23,105.024,39.6,70.347,56.216,35.68c3.782-7.891,7.544-9.027,15.482-5.617c11.731,5.042,13.017,8.827,7.219,20.661
	c-17.082,34.863-33.66,69.971-50.438,104.982c-3.733,7.791-7.635,9.109-15.533,5.402c-4.444-2.087-9.104-3.845-11.05-8.98
	C1.896,150.86,1.896,149.593,1.896,148.325z M64.999,62.125c0.064-1.053-0.688-1.325-1.371-1.653
	c-1.826-0.878-3.78-1.563-5.454-2.671c-2.706-1.794-3.864-1.008-5.199,1.807c-13.394,28.23-26.938,56.389-40.441,84.568
	c-3.284,6.853-3.212,6.707,3.574,10.19c2.932,1.506,4.228,1.159,5.694-1.93c13.938-29.371,28.04-58.665,42.095-87.979
	C64.278,63.659,64.652,62.857,64.999,62.125z M67.247,53.956c1.506,0.337,1.883-0.358,2.212-1.039
	c1.693-3.513,3.347-7.046,5.055-10.552c0.685-1.406,0.409-2.398-1.019-3.075c-2.274-1.08-4.534-2.189-6.809-3.267
	c-1.247-0.591-2.209-0.232-2.803,0.999c-1.747,3.627-3.468,7.266-5.214,10.894c-0.353,0.732-0.63,1.533,0.236,1.974
	C61.817,51.373,64.779,52.762,67.247,53.956z"/>
<path fill-rule="evenodd" clip-rule="evenodd" fill="#171717" d="M68.833,0c0.534,4.505,2.822,7.433,7.991,8.319
	c-4.567,1.319-7.622,3.625-8.513,8.521c-1.175-4.602-3.535-7.524-8.543-8.226C64.214,7.039,67.727,5.124,67.312,0
	C67.819,0,68.326,0,68.833,0z M69.949,8.51c-0.245-0.877-0.779-1.622-1.718-1.6c-0.747,0.018-1.402,0.679-1.463,1.444
	c-0.084,1.044,0.743,1.564,1.642,1.549C69.143,9.891,69.729,9.331,69.949,8.51z"/>
<path fill-rule="evenodd" clip-rule="evenodd" fill="#171717" d="M279.704,118.877c-5.874,8.98-11.745,17.963-17.622,26.941
	c-2.603,3.977-2.673,3.983-5.204,0.146c-5.961-9.041-11.91-18.088-18.583-26.978c0,2.96,0,5.922,0,8.884
	c0,11.277,0.001,22.554,0,33.83c0,1.625,0.396,3.349-2.311,3.281c-2.559-0.064-1.999-1.759-2.001-3.168
	c-0.021-15.711-0.029-31.423,0.025-47.134c0.003-1.096-0.824-2.865,1.071-3.138c1.769-0.255,3.663-0.69,5.019,1.473
	c3.699,5.901,7.596,11.677,11.421,17.497c2.498,3.799,5.008,7.588,7.497,11.355c1.46-0.422,1.763-1.62,2.346-2.511
	c5.477-8.373,11.032-16.698,16.292-25.205c1.453-2.349,3.131-3.2,5.562-2.679c2.703,0.58,1.411,2.894,1.421,4.373
	c0.101,15.204,0.078,30.409,0.037,45.613c-0.005,1.45,0.812,3.462-2.039,3.509c-2.792,0.046-2.171-1.86-2.174-3.389
	c-0.021-14.167-0.013-28.334-0.013-42.502C280.199,119.009,279.951,118.943,279.704,118.877z"/>
<path fill-rule="evenodd" clip-rule="evenodd" fill="#121212" d="M141.59,49.388c-5.971,9.126-11.829,18.087-17.694,27.045
	c-2.696,4.118-2.73,4.119-5.42,0.036c-5.917-8.982-11.825-17.969-17.777-27.015c-1.272,0.968-0.676,2.194-0.68,3.205
	c-0.048,13.181-0.009,26.362-0.063,39.543c-0.006,1.403,0.925,3.458-1.993,3.504c-2.772,0.044-2.221-1.801-2.223-3.356
	c-0.016-15.589-0.029-31.178,0.028-46.768c0.004-1.195-0.88-3.088,1.313-3.354c1.831-0.223,3.565-0.365,4.912,1.755
	c5.708,8.979,11.629,17.822,17.476,26.713c0.416,0.634,0.854,1.252,1.314,1.923c1.6-0.402,1.924-1.91,2.627-2.981
	c5.491-8.365,10.934-16.763,16.336-25.186c0.949-1.479,1.898-2.398,3.884-2.369c2.122,0.031,2.817,0.603,2.805,2.802
	c-0.087,15.968-0.041,31.938-0.058,47.907c-0.001,1.297,0.485,2.829-1.833,2.918c-2.395,0.093-2.263-1.321-2.261-2.926
	c0.018-13.181,0.025-26.362-0.015-39.543C142.266,52.076,142.731,50.787,141.59,49.388z"/>
<path fill-rule="evenodd" clip-rule="evenodd" fill="#171717" d="M252.928,67.713c2.973,0.365,7.641-1.598,9.945,0.757
	c2.108,2.155,0.442,6.754,0.623,10.271c0.032,0.632-0.111,1.293,0.022,1.896c1.565,7.045-2.661,10.384-8.164,13.046
	c-12.02,5.815-27.724,2.158-34.834-8.193c-7.56-11.005-6.092-27.937,3.189-36.805c9.457-9.036,25.896-9.763,36.433-1.538
	c0.951,0.742,2.89,1.239,1.997,3.081c-0.641,1.322-1.591,2.158-3.211,0.682c-2.665-2.426-5.915-3.875-9.399-4.783
	c-10.038-2.619-20.359,0.919-25.638,8.792c-5.558,8.288-5.393,20.803,0.378,28.678c7.224,9.859,24.706,11.808,33.82,3.795
	c0.91-0.8,1.377-1.639,1.489-2.896c1.168-13.075,1.188-13.073-11.853-13.073c-1.647,0-3.296-0.044-4.942,0.008
	c-1.477,0.046-2.009-0.602-1.972-2.056c0.036-1.412,0.818-1.671,1.968-1.667C245.947,67.722,249.116,67.713,252.928,67.713z"/>
<path fill-rule="evenodd" clip-rule="evenodd" fill="#111111" d="M382.357,155.238c0-2.138,0-3.334,0-4.532
	c0-12.03-0.013-24.06,0.017-36.09c0.003-1.375-0.647-3.132,1.925-3.224c2.732-0.1,2.278,1.679,2.278,3.281
	c0.004,15.702,0.014,31.404-0.023,47.106c-0.002,1.032,0.641,2.542-0.863,2.95c-1.347,0.364-1.852-1.101-2.534-1.934
	c-10.426-12.737-20.817-25.503-31.249-38.234c-0.76-0.927-1.249-2.184-2.634-2.635c-0.743,1.198-0.335,2.474-0.339,3.666
	c-0.039,12.156-0.031,24.313-0.014,36.469c0.002,1.588,0.169,2.997-2.247,2.909c-2.34-0.084-1.842-1.609-1.844-2.896
	c-0.019-15.829-0.026-31.658,0.021-47.486c0.003-1.016-0.719-2.506,0.739-2.995c1.353-0.453,1.908,0.963,2.592,1.804
	c10.236,12.564,20.454,25.145,30.681,37.717C379.782,152.243,380.746,153.339,382.357,155.238z"/>
<path fill-rule="evenodd" clip-rule="evenodd" fill="#161616" d="M463.764,110.701c6.585-0.075,12.65,1.258,17.132,6.568
	c0.722,0.854,2.665,1.734,0.802,3.31c-1.396,1.181-2.441,1.14-3.668-0.532c-5.322-7.25-21.688-6.525-27.409-1.757
	c-5.251,4.375-4.462,11.27,1.749,14.141c3.84,1.774,8.021,2.308,12.119,3.126c4.475,0.895,9.008,1.631,13.105,3.785
	c8.208,4.315,9.359,15.822,2.211,21.744c-9.398,7.788-28.994,5.75-36.426-3.895c-0.708-0.919-2.935-1.956-0.894-3.678
	c1.799-1.517,2.82-0.703,4.184,0.987c6.26,7.761,20.407,9.879,28.917,4.54c3.166-1.986,4.735-4.852,4.673-8.577
	c-0.061-3.716-2.127-6.112-5.291-7.703c-3.79-1.905-7.939-2.571-12.039-3.39c-4.227-0.843-8.49-1.57-12.467-3.323
	c-4.063-1.79-7.024-4.519-7.435-9.262c-0.44-5.083,1.225-9.242,5.514-12.15C453.135,111.523,458.356,110.711,463.764,110.701z"/>
<path fill-rule="evenodd" clip-rule="evenodd" fill="#131313" d="M296.266,138.052c0-7.728,0.157-15.46-0.08-23.181
	c-0.092-2.988,0.909-3.546,3.638-3.504c10.006,0.153,20.016,0.043,30.024,0.08c1.491,0.005,3.498-0.711,3.418,2.115
	c-0.073,2.578-1.92,1.869-3.278,1.876c-8.74,0.043-17.483,0.104-26.222-0.03c-2.515-0.039-3.631,0.455-3.494,3.281
	c0.233,4.803,0.172,9.629,0.018,14.438c-0.074,2.311,0.635,3.073,2.993,3.037c8.232-0.127,16.469-0.096,24.703-0.003
	c1.372,0.016,3.644-1.076,3.71,1.765c0.073,3.14-2.409,1.958-3.873,1.976c-8.107,0.103-16.217,0.135-24.322-0.002
	c-2.472-0.042-3.328,0.632-3.224,3.195c0.202,4.933,0.184,9.884,0.007,14.819c-0.087,2.419,0.796,2.987,3.058,2.961
	c9.12-0.107,18.242-0.074,27.363-0.012c1.418,0.01,3.486-0.876,3.499,2.011c0.011,2.879-2.038,2.04-3.474,2.047
	c-10.515,0.052-21.031-0.04-31.545,0.08c-2.357,0.027-3.008-0.69-2.97-3.005C296.347,154.016,296.266,146.034,296.266,138.052z"/>
<path fill-rule="evenodd" clip-rule="evenodd" fill="#171717" d="M95.635,137.966c0-7.718,0.09-15.437-0.051-23.152
	c-0.047-2.523,0.486-3.587,3.292-3.503c6.7,0.201,13.411-0.025,20.114,0.092c10.711,0.189,17.654,7.236,17.604,17.697
	c-0.05,10.402-7.125,17.333-17.86,17.438c-5.188,0.051-10.382,0.178-15.56-0.057c-2.77-0.126-3.41,0.826-3.275,3.406
	c0.211,4.038,0.036,8.095,0.065,12.143c0.013,1.586,0.164,2.995-2.226,2.956c-2.469-0.043-2.099-1.618-2.101-3.106
	C95.633,153.906,95.635,145.936,95.635,137.966z M99.95,128.549c0,3.924,0.022,7.849-0.013,11.773
	c-0.012,1.37-0.019,2.438,1.914,2.398c6.326-0.131,12.677,0.188,18.978-0.245c7.014-0.483,11.717-6.28,11.659-13.544
	c-0.059-7.46-5.001-13.117-12.195-13.45c-6.065-0.28-12.151-0.042-18.227-0.141c-1.688-0.028-2.18,0.587-2.143,2.195
	C100.01,121.205,99.951,124.877,99.95,128.549z"/>
<path fill-rule="evenodd" clip-rule="evenodd" fill="#121212" d="M135.811,164.509c0.323-0.858,0.583-1.68,0.934-2.46
	c7.149-15.932,14.312-31.86,21.462-47.793c0.67-1.493,1.084-2.895,3.345-2.924c2.302-0.029,3.023,1.157,3.793,2.882
	c7.065,15.833,14.201,31.635,21.227,47.484c0.392,0.883,2.176,2.318,0.138,3.076c-1.413,0.526-3.193,0.573-4.028-1.631
	c-1.164-3.072-2.72-5.992-3.974-9.033c-0.65-1.578-1.457-2.392-3.335-2.373c-9.125,0.094-18.252,0.079-27.378,0.008
	c-1.661-0.012-2.516,0.594-3.117,2.098c-1.08,2.701-2.532,5.264-3.462,8.01C140.439,164.729,138.81,165.604,135.811,164.509z
	 M161.721,115.566c-4.915,11.152-9.463,21.469-14.229,32.282c9.195,0,17.761-0.003,26.327,0.001c2.322,0.001,1.591-1.295,1.064-2.49
	C170.614,135.688,166.339,126.018,161.721,115.566z"/>
<path fill-rule="evenodd" clip-rule="evenodd" fill="#140C0C" d="M208.626,69.068c-0.171,0.958-0.66,1.672-1.577,1.985
	c-0.959,0.325-1.93,0.657-2.923,0.827c-10.893,1.873-17.418,8.123-19.261,19.109c-0.063,0.373-0.221,0.727-0.316,1.094
	c-0.408,1.579-0.547,3.579-2.736,3.512c-2.17-0.066-2.151-2.179-2.625-3.683c-0.532-1.688-0.944-3.414-1.417-5.12
	c-2.004-7.222-6.703-11.735-13.866-13.753c-1.952-0.55-3.914-1.065-5.876-1.575c-1.401-0.364-2.798-0.77-2.739-2.592
	c0.052-1.595,1.302-2.002,2.58-2.334c1.84-0.479,3.67-0.996,5.51-1.474c7.669-1.992,12.558-6.782,14.579-14.465
	c0.451-1.712,0.834-3.447,1.368-5.134c0.44-1.391,0.595-3.209,2.698-3.104c1.799,0.09,2.039,1.633,2.412,2.974
	c0.475,1.706,0.967,3.408,1.399,5.125c1.938,7.723,6.81,12.521,14.46,14.57c2.081,0.558,4.159,1.129,6.241,1.684
	C207.766,67.039,208.521,67.766,208.626,69.068z M200.709,68.987c-10.443-2.946-16.226-9.033-18.877-19.046
	c-2.519,10.26-8.447,16.1-18.639,18.998c10.097,2.915,16.087,8.794,18.711,19.049C184.518,77.838,190.367,71.893,200.709,68.987z"/>
<path fill-rule="evenodd" clip-rule="evenodd" fill="#161616" d="M287.525,68.301c0.462-10.553,4.508-19.284,14.509-23.908
	c10.301-4.763,20.489-3.959,29.819,2.903c0.903,0.665,3.363,1.122,1.612,3.328c-1.581,1.992-2.698,0.595-4.023-0.399
	c-9.483-7.122-23.55-6.365-31.417,1.642c-7.937,8.08-8.618,23.089-1.46,32.228c7.416,9.469,22.53,10.982,32.974,3.362
	c0.809-0.591,1.387-2.144,2.793-1.317c2.339,1.375,1.979,2.679-0.074,4.185c-9.602,7.044-19.965,7.949-30.519,3.004
	C291.402,88.483,287.666,79.354,287.525,68.301z"/>
<path fill-rule="evenodd" clip-rule="evenodd" fill="#121212" d="M203.473,139.414c5.615-8.678,10.984-16.776,16.115-25.023
	c1.565-2.517,3.285-3.645,6.21-2.694c0.317,1.291-0.746,2.035-1.316,2.914c-5.575,8.6-11.149,17.202-16.851,25.717
	c-1.4,2.091-2.126,4.147-2.047,6.687c0.154,4.933,0.06,9.874,0.036,14.811c-0.007,1.437,0.491,3.087-2.035,3.143
	c-2.736,0.06-2.24-1.714-2.27-3.305c-0.002-0.127-0.017-0.256,0.002-0.38c2.021-12.667-2.026-23.4-9.922-33.219
	c-3.941-4.902-6.979-10.531-10.575-16.062c2.845-1.149,4.659-0.697,6.312,1.965C192.329,122.338,197.763,130.563,203.473,139.414z"
	/>
<path fill-rule="evenodd" clip-rule="evenodd" fill="#1C1C1C" d="M417.917,140.324c0,7.213-0.002,14.425,0.001,21.638
	c0,1.513,0.324,3.049-2.141,3.036c-2.389-0.013-2.208-1.446-2.206-3.018c0.013-14.299-0.063-28.599,0.069-42.896
	c0.026-2.832-0.499-4.043-3.66-3.828c-4.409,0.3-8.853,0.053-13.282,0.087c-1.408,0.011-2.413-0.102-2.407-1.975
	c0.006-1.971,1.186-1.849,2.496-1.849c12.655,0.009,25.308,0.016,37.962-0.011c1.383-0.002,2.44-0.012,2.442,1.899
	c0.002,1.881-0.994,1.957-2.411,1.94c-4.429-0.049-8.874,0.21-13.282-0.095c-3.158-0.218-3.719,0.985-3.645,3.812
	C418.041,126.147,417.917,133.237,417.917,140.324z"/>
<path fill-rule="evenodd" clip-rule="evenodd" fill="#202020" d="M278.717,69.103c0,7.857,0.002,15.714-0.002,23.571
	c-0.001,1.488,0.384,3.085-2.107,3.074c-2.46-0.011-2.136-1.579-2.136-3.084c-0.002-15.84-0.001-31.681-0.001-47.522
	c0-1.514-0.312-3.068,2.145-3.071c2.495-0.003,2.098,1.599,2.099,3.081C278.72,53.135,278.717,61.119,278.717,69.103z"/>
<path fill-rule="evenodd" clip-rule="evenodd" fill="#1C1313" d="M42.269,36.353c-1.05-0.172-1.215-1.216-1.342-1.991
	c-0.913-5.6-4.206-8.73-9.712-9.718c-0.85-0.152-1.942-0.297-1.952-1.436c-0.009-1.146,1.084-1.299,1.931-1.451
	c5.501-0.986,8.812-4.097,9.729-9.702c0.125-0.763,0.253-1.973,1.439-1.944c1.108,0.027,1.285,1.053,1.438,1.932
	c0.958,5.532,4.193,8.762,9.732,9.702c0.885,0.151,1.922,0.413,1.961,1.463c0.028,0.81-0.802,1.224-1.608,1.351
	c-5.858,0.93-9.214,4.313-10.199,10.174C43.483,35.934,42.876,36.353,42.269,36.353z M42.733,29.001
	c1.22-2.349,3.448-3.94,5.616-5.875c-2.382-1.704-4.311-3.576-6.029-6.247c-1.514,2.903-5.065,4.346-5.154,6.243
	c-0.085,1.81,3.112,3.777,4.875,5.667C42.115,28.868,42.276,28.865,42.733,29.001z"/>
<path fill-rule="evenodd" clip-rule="evenodd" fill="#F40000" d="M67.247,53.956c-2.468-1.194-5.43-2.583-8.343-4.066
	c-0.866-0.44-0.589-1.241-0.236-1.974c1.746-3.627,3.467-7.267,5.214-10.894c0.594-1.231,1.556-1.59,2.803-0.999
	c2.275,1.077,4.535,2.187,6.809,3.267c1.428,0.677,1.704,1.668,1.019,3.075c-1.708,3.506-3.361,7.039-5.055,10.552
	C69.13,53.598,68.753,54.293,67.247,53.956z"/>
<path fill-rule="evenodd" clip-rule="evenodd" fill="#F40000" d="M69.949,8.51c-0.221,0.821-0.806,1.381-1.539,1.394
	c-0.898,0.015-1.726-0.505-1.642-1.549c0.061-0.765,0.716-1.426,1.463-1.444C69.17,6.888,69.705,7.632,69.949,8.51z"/>
<path fill-rule="evenodd" clip-rule="evenodd" fill="#F40000" d="M200.709,68.987c-10.342,2.906-16.191,8.851-18.805,19
	c-2.624-10.255-8.615-16.135-18.711-19.049c10.192-2.897,16.121-8.738,18.639-18.998C184.483,59.955,190.266,66.041,200.709,68.987z
	"/>
<path fill-rule="evenodd" clip-rule="evenodd" fill="#F40000" d="M42.733,29.001c-0.458-0.136-0.618-0.133-0.692-0.212
	c-1.763-1.89-4.96-3.857-4.875-5.667c0.089-1.897,3.641-3.34,5.154-6.243c1.719,2.671,3.647,4.543,6.029,6.247
	C46.181,25.061,43.954,26.652,42.733,29.001z"/>
</svg>
