<?xml version="1.0" encoding="utf-8"?>
<!-- Generator: Adobe Illustrator 16.0.0, SVG Export Plug-In . SVG Version: 6.00 Build 0)  -->
<!DOCTYPE svg PUBLIC "-//W3C//DTD SVG 1.1//EN" "http://www.w3.org/Graphics/SVG/1.1/DTD/svg11.dtd">
<svg version="1.1" id="Layer_1" xmlns="http://www.w3.org/2000/svg" xmlns:xlink="http://www.w3.org/1999/xlink" x="0px" y="0px"
	 width="133.908px" height="136px" viewBox="0 0 133.908 136" enable-background="new 0 0 133.908 136" xml:space="preserve">
<path fill-rule="evenodd" clip-rule="evenodd" fill="#140C0C" d="M133.251,68.719c-0.425,2.374-1.634,4.147-3.91,4.921
	c-2.376,0.804-4.786,1.628-7.249,2.05c-27.008,4.643-43.188,20.141-47.756,47.381c-0.155,0.922-0.548,1.801-0.784,2.712
	c-1.012,3.914-1.358,8.872-6.785,8.707c-5.381-0.164-5.333-5.402-6.508-9.132c-1.317-4.187-2.339-8.465-3.512-12.696
	c-4.969-17.908-16.622-29.097-34.38-34.102c-4.841-1.363-9.704-2.641-14.571-3.904c-3.475-0.903-6.937-1.908-6.791-6.426
	c0.129-3.955,3.229-4.965,6.396-5.789c4.563-1.187,9.1-2.468,13.662-3.652C40.078,53.848,52.2,41.972,57.211,22.922
	c1.118-4.248,2.068-8.546,3.392-12.729c1.092-3.45,1.476-7.957,6.689-7.697c4.462,0.223,5.055,4.048,5.981,7.373
	c1.178,4.23,2.398,8.45,3.468,12.708c4.808,19.148,16.886,31.046,35.854,36.126c5.161,1.382,10.311,2.799,15.475,4.173
	C131.119,63.687,132.99,65.488,133.251,68.719z M113.621,68.519c-25.894-7.305-40.232-22.397-46.806-47.227
	C60.569,46.731,45.87,61.214,20.598,68.396c25.036,7.228,39.89,21.806,46.397,47.234C73.475,90.464,87.977,75.724,113.621,68.519z"
	/>
<path fill-rule="evenodd" clip-rule="evenodd" fill="#F40000" d="M113.621,68.519c-25.644,7.205-40.146,21.945-46.626,47.112
	c-6.507-25.428-21.361-40.006-46.397-47.234c25.272-7.183,39.972-21.666,46.217-47.105C73.388,46.121,87.727,61.214,113.621,68.519z
	"/>
</svg>
