<?xml version="1.0" encoding="utf-8"?>
<!-- Generator: Adobe Illustrator 16.0.0, SVG Export Plug-In . SVG Version: 6.00 Build 0)  -->
<!DOCTYPE svg PUBLIC "-//W3C//DTD SVG 1.1//EN" "http://www.w3.org/Graphics/SVG/1.1/DTD/svg11.dtd">
<svg version="1.1" id="Layer_1" xmlns="http://www.w3.org/2000/svg" xmlns:xlink="http://www.w3.org/1999/xlink" x="0px" y="0px"
	 width="485.881px" height="83px" viewBox="0 0 485.881 83" enable-background="new 0 0 485.881 83" xml:space="preserve">
<path fill-rule="evenodd" clip-rule="evenodd" fill="#2EADE3" d="M304.757,81.706c-2.815-1.761-6.155-1.445-9.208-2.304
	c-8.127-2.283-15.742-5.523-23.129-11.231c3.367-0.503,5.659-0.421,8.03,1.017c9.882,5.994,20.735,8.543,32.219,8.547
	c56.058,0.017,112.115,0.006,168.173,0.01c4.691,0.001,4.914,0.272,3.52,3.96c-0.519,0-1.036,0-1.555,0
	c-1.149-1.265-2.668-0.753-4.028-0.753c-54.332-0.026-108.664-0.026-162.998,0c-1.359,0-2.878-0.51-4.027,0.753
	C309.422,81.706,307.089,81.706,304.757,81.706z"/>
<path fill-rule="evenodd" clip-rule="evenodd" fill="#2DACE2" d="M-0.029,78.596c1.763-1.075,3.724-0.848,5.646-0.848
	c57.518-0.004,115.038-0.003,172.556-0.004c7.486,0,9.092-1.049,11.742-8.02c0.563-1.482,1.375-2.082,2.879-1.857
	c2.199,0.331,0.873,1.781,0.735,2.671c-0.91,5.891-5.04,8.948-10.064,11.167c-0.518,0-1.037,0-1.555,0
	c-1.416-1.409-3.201-0.742-4.804-0.744c-56.987-0.039-113.974-0.035-170.961-0.02c-2.213,0.001-4.419,0.151-6.174-1.568
	C-0.029,79.114-0.029,78.854-0.029,78.596z"/>
<path fill-rule="evenodd" clip-rule="evenodd" fill="#38B2E6" d="M287.651,0.844c2.988,3.19,2.986,4.004-0.381,6.734
	c-5.864,4.754-11.182,10.05-15.667,16.107c-1.516,2.048-3.109,2.45-5.748,1.669c4.622-7.532,10.865-13.435,17.81-19.882
	C275.932,5,269.271,6.189,262.648,7.478c-14.304,2.78-27.512,8.161-39.121,17.108c-1.875,1.445-3.837,1.212-6.144,1.042
	c0.385-1.926,2.017-2.63,3.222-3.564c14.724-11.421,31.63-17.321,49.936-19.736C273.145,1.983,284.542,0.844,287.651,0.844z"/>
<path fill-rule="evenodd" clip-rule="evenodd" fill="#43B4E5" d="M-0.029,79.374c1.755,1.72,3.961,1.57,6.174,1.568
	c56.988-0.015,113.975-0.019,170.961,0.02c1.603,0.001,3.388-0.666,4.804,0.744c-59.614,0-119.227,0.001-178.84-0.009
	C1.505,81.697-0.764,82.499-0.029,79.374z"/>
<path fill-rule="evenodd" clip-rule="evenodd" fill="#43B4E5" d="M311.755,81.706c1.149-1.263,2.668-0.753,4.027-0.753
	c54.333-0.026,108.666-0.026,162.998,0c1.36,0,2.879-0.512,4.028,0.753C425.79,81.706,368.772,81.706,311.755,81.706z"/>
<path fill-rule="evenodd" clip-rule="evenodd" fill="#0D0D0D" d="M345.91,50.542c4-6.208,7.626-11.849,11.27-17.478
	c0.832-1.285,1.549-2.966,3.493-2.477c2.057,0.518,1.624,2.371,1.628,3.873c0.019,7.903,0.014,15.806,0.002,23.708
	c-0.002,1.261,0.288,2.94-1.515,3.044c-2.198,0.125-1.794-1.776-1.801-3.114c-0.036-6.714-0.016-13.43-0.663-20.501
	c-2.604,3.985-5.308,7.91-7.792,11.969c-4.511,7.377-4.763,7.473-9.218,0.125c-2.507-4.135-5.247-8.129-8.542-13.203
	c0,7.876,0.025,14.546-0.021,21.216c-0.01,1.429,0.588,3.605-1.803,3.493c-2.04-0.097-1.438-2.125-1.445-3.433
	c-0.045-7.903-0.029-15.806-0.017-23.708c0.001-1.4-0.253-3.036,1.62-3.487c1.727-0.417,2.527,0.886,3.317,2.117
	C338.119,38.45,341.83,44.204,345.91,50.542z"/>
<path fill-rule="evenodd" clip-rule="evenodd" fill="#181818" d="M422.146,54.787c0-5.988,0-11.877,0-17.766
	c0-1.036-0.039-2.072,0.009-3.105c0.063-1.345-0.442-3.261,1.591-3.353c2.129-0.095,1.713,1.843,1.729,3.188
	c0.042,3.623,0.014,7.246,0.014,10.87c0,4.399,0.02,8.799-0.011,13.198c-0.009,1.242,0.369,2.737-1.235,3.347
	c-1.728,0.659-2.595-0.655-3.488-1.757c-5.291-6.534-10.571-13.076-15.855-19.615c-0.79-0.978-1.584-1.949-3.077-3.783
	c0,7.09,0,13.203,0,19.316c0,1.165-0.001,2.33-0.004,3.495c-0.003,1.27-0.323,2.503-1.812,2.458
	c-1.514-0.044-1.677-1.373-1.68-2.589c-0.012-5.177-0.006-10.352-0.007-15.528c-0.001-3.106-0.009-6.21,0.004-9.315
	c0.005-1.298-0.09-2.732,1.457-3.265c1.539-0.529,2.352,0.649,3.175,1.654c5.651,6.905,11.29,13.82,16.966,20.706
	C420.453,53.588,420.751,54.542,422.146,54.787z"/>
<path fill-rule="evenodd" clip-rule="evenodd" fill="#1B1B1B" d="M368.523,45.937c0-4.014,0.096-8.032-0.037-12.042
	c-0.078-2.376,0.863-3.222,3.181-3.192c6.343,0.083,12.689,0.02,19.034,0.037c1.256,0.003,2.976-0.287,2.998,1.547
	c0.021,1.746-1.602,1.69-2.924,1.69c-5.18-0.003-10.362,0.105-15.538-0.045c-2.425-0.071-3.362,0.516-3.343,3.178
	c0.051,7.083-0.087,7.084,6.839,7.084c2.589,0,5.183-0.086,7.767,0.035c1.389,0.065,3.647-0.825,3.741,1.494
	c0.098,2.409-2.192,1.628-3.572,1.661c-4.012,0.092-8.03,0.118-12.041-0.002c-2.008-0.061-2.629,0.621-2.715,2.646
	c-0.33,7.823-0.406,7.82,7.548,7.82c3.885,0,7.77,0.015,11.654-0.003c1.259-0.008,2.571,0.169,2.602,1.649
	c0.032,1.598-1.375,1.575-2.575,1.573c-6.604-0.004-13.208-0.052-19.812,0.023c-2.277,0.025-2.878-1.053-2.833-3.11
	C368.584,53.966,368.523,49.951,368.523,45.937z"/>
<path fill-rule="evenodd" clip-rule="evenodd" fill="#191919" d="M197.408,45.952c0.001-4.146,0.062-8.293-0.025-12.438
	c-0.042-2.012,0.795-2.796,2.75-2.786c6.607,0.038,13.215,0.009,19.823,0.021c1.167,0.002,2.595-0.068,2.575,1.578
	c-0.02,1.568-1.389,1.634-2.589,1.637c-5.441,0.011-10.885,0.086-16.324-0.03c-2.139-0.046-2.857,0.575-2.891,2.82
	c-0.109,7.447-0.208,7.447,7.244,7.447c2.462,0,4.927-0.083,7.383,0.031c1.401,0.065,3.664-0.793,3.761,1.49
	c0.102,2.389-2.196,1.625-3.584,1.657c-4.014,0.091-8.034,0.106-12.047,0.001c-1.924-0.051-2.674,0.457-2.755,2.57
	c-0.303,7.906-0.392,7.901,7.465,7.903c3.757,0,7.515-0.019,11.271,0.011c1.256,0.009,2.924-0.267,3.028,1.555
	c0.113,1.985-1.628,1.617-2.843,1.624c-6.348,0.034-12.699-0.078-19.044,0.062c-2.664,0.06-3.325-1.075-3.237-3.493
	C197.511,53.729,197.407,49.839,197.408,45.952z"/>
<path fill-rule="evenodd" clip-rule="evenodd" fill="#141414" d="M164.06,45.888c0-3.883,0.097-7.769-0.036-11.647
	c-0.082-2.401,0.577-3.649,3.239-3.514c4.132,0.209,8.312-0.104,12.404,0.378c8.221,0.969,12.592,6.405,12.531,14.984
	c-0.057,8.103-4.716,13.756-12.577,14.646c-4.223,0.479-8.53,0.181-12.795,0.329c-2.314,0.081-2.833-1.116-2.791-3.139
	C164.119,53.914,164.061,49.901,164.06,45.888z M174.115,33.946c-0.904,0-1.826,0.12-2.706-0.021
	c-3.278-0.526-4.256,0.858-3.991,4.04c0.277,3.332,0.062,6.705,0.062,10.06c0,10.949,0.515,11.377,11.602,9.645
	c4.938-0.77,8.136-3.704,9.334-8.559C190.726,39.751,185.265,33.96,174.115,33.946z"/>
<path fill-rule="evenodd" clip-rule="evenodd" fill="#1C1C1C" d="M295.371,50.133c0,3.248-0.006,5.968,0.003,8.688
	c0.004,1.28-0.301,2.493-1.792,2.476c-1.531-0.016-1.687-1.331-1.731-2.552c-0.005-0.129,0.003-0.26-0.005-0.389
	c-0.449-6.915-0.45-6.915-7.254-6.915c-3.497,0-7.005,0.163-10.488-0.054c-2.493-0.156-3.199,0.772-2.978,3.092
	c0.16,1.666,0.058,3.367-0.034,5.045c-0.054,0.99-0.634,1.777-1.689,1.797c-1.068,0.021-1.741-0.786-1.711-1.751
	c0.223-7.217-1.152-14.552,1.035-21.623c1.667-5.39,6.691-8.031,13.762-7.769c6.339,0.235,10.722,3.453,12.216,8.886
	C295.754,42.892,295.221,46.792,295.371,50.133z M281.524,48.271c2.709,0,5.42-0.034,8.129,0.013
	c1.316,0.023,2.026-0.201,2.238-1.817c1.291-9.873-6.292-15.862-15.561-12.189c-3.875,1.536-6.305,6.647-5.062,12.232
	c0.809,3.635,4.235,1.129,6.399,1.705C278.874,48.535,280.234,48.273,281.524,48.271z"/>
<path fill-rule="evenodd" clip-rule="evenodd" fill="#141414" d="M83.021,48.961c2.554,3.133,4.849,5.929,7.117,8.744
	c0.858,1.064,1.598,2.285,0.1,3.316c-1.285,0.885-2.158-0.146-2.898-1.08c-2.253-2.841-4.482-5.702-6.728-8.552
	c-1.58-2.003-9.148-3.525-11.364-2.334c-1.068,0.575-0.735,1.542-0.751,2.381c-0.044,2.46-0.021,4.924-0.017,7.385
	c0.003,1.253-0.182,2.471-1.762,2.449c-1.337-0.018-1.581-1.094-1.581-2.219c0.003-8.681,0.019-17.362-0.004-26.044
	c-0.006-2.03,1.269-2.258,2.831-2.254c4.405,0.014,8.813-0.076,13.216,0.032c5.926,0.144,9.08,2.668,9.645,7.502
	C91.465,43.75,89.168,47.063,83.021,48.961z M76.344,33.977c-7.877-0.032-7.877-0.032-7.868,7.771c0.001,0.647,0.054,1.3-0.009,1.94
	c-0.163,1.634,0.443,2.352,2.176,2.302c3.623-0.103,7.257,0.093,10.87-0.116c4.022-0.233,5.905-2.425,5.811-6.275
	c-0.093-3.71-1.793-5.357-5.933-5.606C79.715,33.894,78.027,33.977,76.344,33.977z"/>
<path fill-rule="evenodd" clip-rule="evenodd" fill="#191919" d="M137.353,61.581c-5.311,0.007-9.39-0.524-12.734-3.409
	c-1.04-0.896-2.499-2.039-1.375-3.563c1.361-1.85,2.368-0.096,3.431,0.73c4.588,3.565,9.741,3.849,15.074,2.292
	c2.709-0.789,4.432-2.673,4.34-5.702c-0.099-3.285-2.589-3.897-5.104-4.181c-3.465-0.393-6.973-0.423-10.426-0.884
	c-3.348-0.447-6.324-1.663-7.046-5.558c-0.756-4.08,0.826-7.296,4.578-9.372c5.119-2.832,14.352-2.231,18.473,1.243
	c0.951,0.803,2.377,1.647,1.256,3.143c-1.156,1.54-2.194,0.324-3.257-0.423c-4.527-3.18-9.442-3.19-14.416-1.4
	c-2.264,0.815-3.443,2.747-3.307,5.194c0.145,2.6,2.132,3.439,4.278,3.692c3.206,0.377,6.455,0.393,9.661,0.766
	c5.977,0.698,8.565,2.979,8.73,7.441c0.187,5.06-2.667,8.443-8.234,9.582C139.639,61.506,137.939,61.522,137.353,61.581z"/>
<path fill-rule="evenodd" clip-rule="evenodd" fill="#1B1B1B" d="M16.408,61.581c-5.346,0.017-9.405-0.563-12.761-3.425
	c-1.092-0.931-2.363-2.173-1.229-3.612c1.415-1.796,2.356,0.088,3.398,0.863c4.767,3.544,10.03,3.875,15.458,2.055
	c2.721-0.913,4.12-3.02,3.786-6.03c-0.318-2.865-2.548-3.379-4.764-3.634c-3.591-0.414-7.222-0.491-10.806-0.944
	c-3.589-0.455-6.478-2.034-7.044-6.049c-0.55-3.903,1.134-6.77,4.459-8.728c4.969-2.925,14.155-2.484,18.493,0.905
	c1.096,0.856,2.672,1.82,1.473,3.417c-1.08,1.439-2.197,0.238-3.281-0.526c-4.386-3.091-9.176-3.123-14.057-1.496
	c-2.492,0.83-3.68,2.757-3.534,5.391c0.147,2.678,2.195,3.372,4.303,3.627c3.075,0.372,6.193,0.373,9.274,0.712
	c6.17,0.68,8.93,3.035,9.105,7.566c0.194,4.986-3.046,8.587-8.764,9.606C18.399,61.55,16.833,61.545,16.408,61.581z"/>
<path fill-rule="evenodd" clip-rule="evenodd" fill="#191919" d="M471.467,61.769c-4.376-0.192-8.589-0.722-11.958-3.842
	c-1-0.927-2.366-2.102-0.89-3.575c1.425-1.42,2.222,0.243,3.173,0.97c4.733,3.623,10,3.95,15.439,2.191
	c2.693-0.872,4.261-2.91,3.972-5.939c-0.29-3.056-2.7-3.552-5.044-3.822c-3.464-0.399-6.974-0.42-10.427-0.883
	c-3.51-0.47-6.552-1.788-7.129-5.919c-0.578-4.142,0.97-7.377,4.984-9.116c6.185-2.679,12.342-2.53,18.094,1.345
	c1.002,0.675,2.427,1.582,1.313,3.108c-1.13,1.547-2.179,0.403-3.253-0.365c-4.374-3.127-9.157-3.17-14.051-1.585
	c-2.485,0.805-3.818,2.718-3.699,5.315c0.128,2.805,2.351,3.538,4.618,3.794c3.209,0.361,6.46,0.358,9.666,0.75
	c5.663,0.694,8.197,3.009,8.392,7.358c0.215,4.809-2.336,8.116-7.467,9.397C475.337,61.417,473.38,61.508,471.467,61.769z"/>
<path fill-rule="evenodd" clip-rule="evenodd" fill="#181818" d="M237.937,45.883c0-4.003,0.093-8.009-0.035-12.008
	c-0.076-2.386,0.907-3.209,3.2-3.157c4.647,0.104,9.303-0.095,13.943,0.109c5.916,0.259,8.956,3.405,9.025,8.933
	c0.073,5.806-2.955,9.038-8.994,9.313c-3.738,0.169-7.491,0.125-11.232,0.015c-1.866-0.054-2.556,0.605-2.46,2.449
	c0.105,2.06,0.081,4.133,0.001,6.195c-0.057,1.437,0.522,3.563-1.839,3.498c-2.011-0.055-1.586-1.986-1.598-3.339
	C237.915,53.89,237.937,49.886,237.937,45.883z M249.219,33.999c-7.84-0.043-7.84-0.043-7.826,7.848
	c0.001,0.777,0.042,1.555-0.001,2.33c-0.085,1.515,0.646,2.023,2.1,1.995c3.752-0.076,7.516,0.098,11.258-0.126
	c3.988-0.237,5.836-2.445,5.754-6.33c-0.08-3.768-1.737-5.434-5.85-5.697C252.849,33.902,251.03,33.999,249.219,33.999z"/>
<path fill-rule="evenodd" clip-rule="evenodd" fill="#151515" d="M96.143,45.751c-0.002-4.009,0.069-8.019-0.031-12.026
	c-0.053-2.134,0.7-3.031,2.908-3.001c6.335,0.085,12.674,0.023,19.011,0.037c1.14,0.002,2.64-0.204,2.707,1.415
	c0.074,1.831-1.479,1.779-2.798,1.781c-5.173,0.004-10.347,0.076-15.518-0.033c-2.005-0.042-2.933,0.27-2.973,2.663
	c-0.138,8.313-0.249,8.311,8.159,8.311c2.328,0,4.656-0.022,6.983,0.013c1.248,0.019,2.88-0.273,2.793,1.704
	c-0.074,1.679-1.56,1.432-2.678,1.44c-4.138,0.03-8.281,0.128-12.414-0.033c-2.198-0.086-2.963,0.593-2.817,2.811
	c0.177,2.705,0.039,5.428,0.04,8.145c0,1.3-0.362,2.415-1.906,2.296c-1.35-0.104-1.464-1.245-1.464-2.331
	C96.145,54.545,96.146,50.148,96.143,45.751z"/>
<path fill-rule="evenodd" clip-rule="evenodd" fill="#151515" d="M59.131,41.954c0,2.845,0.184,5.704-0.037,8.532
	c-0.542,6.965-4.865,10.862-12.015,11.076c-8.252,0.248-12.849-3.115-13.828-10.355c-0.816-6.045-0.21-12.143-0.334-18.216
	c-0.024-1.217,0.254-2.527,1.795-2.463c1.471,0.06,1.714,1.307,1.713,2.564c-0.003,5.044-0.065,10.091,0.025,15.135
	c0.123,6.904,3.449,10.292,9.873,10.235c6.134-0.054,9.419-3.486,9.561-10.198c0.104-4.913,0.021-9.831,0.031-14.746
	c0.003-1.285-0.175-2.895,1.622-2.956c1.881-0.063,1.674,1.592,1.687,2.854c0.029,2.846,0.01,5.692,0.01,8.538
	C59.2,41.954,59.166,41.954,59.131,41.954z"/>
<path fill-rule="evenodd" clip-rule="evenodd" fill="#141414" d="M309.983,53.378c0.908-3.575-0.826-6.779-3.687-9.765
	c-2.769-2.89-5.209-6.093-7.814-9.141c-0.929-1.087-2.281-2.24-0.648-3.558c1.641-1.324,2.534,0.365,3.411,1.388
	c2.943,3.438,5.917,6.853,8.708,10.412c1.318,1.68,2.071,1.72,3.418,0.021c2.89-3.646,5.978-7.136,9.013-10.666
	c0.813-0.944,1.693-2.412,3.117-1.137c1.263,1.13,0.383,2.307-0.536,3.348c-1.624,1.842-3.031,3.907-4.808,5.579
	c-5.29,4.977-8.097,10.771-6.852,18.199c0.22,1.309,0.403,3.253-1.705,3.186c-2.083-0.068-1.547-1.99-1.605-3.329
	C309.939,56.625,309.983,55.33,309.983,53.378z"/>
<path fill-rule="evenodd" clip-rule="evenodd" fill="#111111" d="M441.458,47.124c0-2.069,0-4.141,0-6.211
	c0-6.964,0-6.963-6.789-6.966c-1.164,0-2.329,0.003-3.493-0.019c-1.112-0.021-2.198-0.286-2.207-1.619
	c-0.009-1.394,1.135-1.527,2.222-1.527c7.895-0.005,15.788-0.011,23.681,0.004c1.032,0.001,2.266-0.028,2.311,1.421
	c0.053,1.663-1.293,1.705-2.468,1.725c-2.458,0.041-4.925,0.133-7.374-0.019c-2.079-0.129-2.621,0.671-2.59,2.665
	c0.105,7.116,0.056,14.234,0.027,21.351c-0.005,1.341,0.455,3.255-1.631,3.294c-2.141,0.039-1.653-1.901-1.671-3.229
	C441.426,54.372,441.459,50.748,441.458,47.124z"/>
<path fill-rule="evenodd" clip-rule="evenodd" fill="#070707" d="M154.515,45.58c0-4.137-0.009-8.273,0.006-12.41
	c0.004-1.165-0.061-2.558,1.565-2.591c1.549-0.031,1.735,1.221,1.735,2.47c-0.004,8.532-0.006,17.063,0.001,25.594
	c0.002,1.222-0.063,2.544-1.617,2.571c-1.937,0.035-1.671-1.594-1.68-2.836C154.495,54.112,154.514,49.845,154.515,45.58z"/>
</svg>
