<?xml version="1.0" encoding="utf-8"?>
<!-- Generator: Adobe Illustrator 16.0.0, SVG Export Plug-In . SVG Version: 6.00 Build 0)  -->
<!DOCTYPE svg PUBLIC "-//W3C//DTD SVG 1.1//EN" "http://www.w3.org/Graphics/SVG/1.1/DTD/svg11.dtd">
<svg version="1.1" id="Layer_1" xmlns="http://www.w3.org/2000/svg" xmlns:xlink="http://www.w3.org/1999/xlink" x="0px" y="0px"
	 width="167px" height="60.19px" viewBox="0 0 167 60.19" enable-background="new 0 0 167 60.19" xml:space="preserve">
<path fill-rule="evenodd" clip-rule="evenodd" fill="#38B2E6" d="M159.785,4.358c6.697,7.149,6.693,8.974-0.856,15.093
	c-13.141,10.653-25.062,22.525-35.113,36.1c-3.398,4.589-6.97,5.492-12.882,3.741c10.358-16.88,24.352-30.11,39.917-44.56
	c-17.332-1.06-32.262,1.606-47.106,4.493c-32.057,6.232-61.66,18.291-87.68,38.346c-4.201,3.238-8.599,2.716-13.768,2.333
	c0.862-4.317,4.521-5.895,7.22-7.988C42.518,26.32,80.409,13.095,121.436,7.682C127.271,6.911,152.814,4.358,159.785,4.358z"/>
</svg>
